%TF.GenerationSoftware,KiCad,Pcbnew,9.0.1-9.0.1-0~ubuntu24.04.1*%
%TF.CreationDate,2025-04-06T11:40:15+01:00*%
%TF.ProjectId,NanoMotorBreakout,4e616e6f-4d6f-4746-9f72-427265616b6f,rev?*%
%TF.SameCoordinates,Original*%
%TF.FileFunction,Legend,Top*%
%TF.FilePolarity,Positive*%
%FSLAX46Y46*%
G04 Gerber Fmt 4.6, Leading zero omitted, Abs format (unit mm)*
G04 Created by KiCad (PCBNEW 9.0.1-9.0.1-0~ubuntu24.04.1) date 2025-04-06 11:40:15*
%MOMM*%
%LPD*%
G01*
G04 APERTURE LIST*
%ADD10C,0.150000*%
%ADD11C,0.100000*%
%ADD12C,0.120000*%
%ADD13C,0.152400*%
%ADD14C,0.000000*%
G04 APERTURE END LIST*
D10*
X133001905Y-101690057D02*
X133049524Y-101642438D01*
X133049524Y-101642438D02*
X133144762Y-101594819D01*
X133144762Y-101594819D02*
X133382857Y-101594819D01*
X133382857Y-101594819D02*
X133478095Y-101642438D01*
X133478095Y-101642438D02*
X133525714Y-101690057D01*
X133525714Y-101690057D02*
X133573333Y-101785295D01*
X133573333Y-101785295D02*
X133573333Y-101880533D01*
X133573333Y-101880533D02*
X133525714Y-102023390D01*
X133525714Y-102023390D02*
X132954286Y-102594819D01*
X132954286Y-102594819D02*
X133573333Y-102594819D01*
X133954286Y-101690057D02*
X134001905Y-101642438D01*
X134001905Y-101642438D02*
X134097143Y-101594819D01*
X134097143Y-101594819D02*
X134335238Y-101594819D01*
X134335238Y-101594819D02*
X134430476Y-101642438D01*
X134430476Y-101642438D02*
X134478095Y-101690057D01*
X134478095Y-101690057D02*
X134525714Y-101785295D01*
X134525714Y-101785295D02*
X134525714Y-101880533D01*
X134525714Y-101880533D02*
X134478095Y-102023390D01*
X134478095Y-102023390D02*
X133906667Y-102594819D01*
X133906667Y-102594819D02*
X134525714Y-102594819D01*
X135144762Y-101594819D02*
X135240000Y-101594819D01*
X135240000Y-101594819D02*
X135335238Y-101642438D01*
X135335238Y-101642438D02*
X135382857Y-101690057D01*
X135382857Y-101690057D02*
X135430476Y-101785295D01*
X135430476Y-101785295D02*
X135478095Y-101975771D01*
X135478095Y-101975771D02*
X135478095Y-102213866D01*
X135478095Y-102213866D02*
X135430476Y-102404342D01*
X135430476Y-102404342D02*
X135382857Y-102499580D01*
X135382857Y-102499580D02*
X135335238Y-102547200D01*
X135335238Y-102547200D02*
X135240000Y-102594819D01*
X135240000Y-102594819D02*
X135144762Y-102594819D01*
X135144762Y-102594819D02*
X135049524Y-102547200D01*
X135049524Y-102547200D02*
X135001905Y-102499580D01*
X135001905Y-102499580D02*
X134954286Y-102404342D01*
X134954286Y-102404342D02*
X134906667Y-102213866D01*
X134906667Y-102213866D02*
X134906667Y-101975771D01*
X134906667Y-101975771D02*
X134954286Y-101785295D01*
X134954286Y-101785295D02*
X135001905Y-101690057D01*
X135001905Y-101690057D02*
X135049524Y-101642438D01*
X135049524Y-101642438D02*
X135144762Y-101594819D01*
X132954286Y-109594819D02*
X133573333Y-109594819D01*
X133573333Y-109594819D02*
X133240000Y-109975771D01*
X133240000Y-109975771D02*
X133382857Y-109975771D01*
X133382857Y-109975771D02*
X133478095Y-110023390D01*
X133478095Y-110023390D02*
X133525714Y-110071009D01*
X133525714Y-110071009D02*
X133573333Y-110166247D01*
X133573333Y-110166247D02*
X133573333Y-110404342D01*
X133573333Y-110404342D02*
X133525714Y-110499580D01*
X133525714Y-110499580D02*
X133478095Y-110547200D01*
X133478095Y-110547200D02*
X133382857Y-110594819D01*
X133382857Y-110594819D02*
X133097143Y-110594819D01*
X133097143Y-110594819D02*
X133001905Y-110547200D01*
X133001905Y-110547200D02*
X132954286Y-110499580D01*
X134192381Y-109594819D02*
X134287619Y-109594819D01*
X134287619Y-109594819D02*
X134382857Y-109642438D01*
X134382857Y-109642438D02*
X134430476Y-109690057D01*
X134430476Y-109690057D02*
X134478095Y-109785295D01*
X134478095Y-109785295D02*
X134525714Y-109975771D01*
X134525714Y-109975771D02*
X134525714Y-110213866D01*
X134525714Y-110213866D02*
X134478095Y-110404342D01*
X134478095Y-110404342D02*
X134430476Y-110499580D01*
X134430476Y-110499580D02*
X134382857Y-110547200D01*
X134382857Y-110547200D02*
X134287619Y-110594819D01*
X134287619Y-110594819D02*
X134192381Y-110594819D01*
X134192381Y-110594819D02*
X134097143Y-110547200D01*
X134097143Y-110547200D02*
X134049524Y-110499580D01*
X134049524Y-110499580D02*
X134001905Y-110404342D01*
X134001905Y-110404342D02*
X133954286Y-110213866D01*
X133954286Y-110213866D02*
X133954286Y-109975771D01*
X133954286Y-109975771D02*
X134001905Y-109785295D01*
X134001905Y-109785295D02*
X134049524Y-109690057D01*
X134049524Y-109690057D02*
X134097143Y-109642438D01*
X134097143Y-109642438D02*
X134192381Y-109594819D01*
X135144762Y-109594819D02*
X135240000Y-109594819D01*
X135240000Y-109594819D02*
X135335238Y-109642438D01*
X135335238Y-109642438D02*
X135382857Y-109690057D01*
X135382857Y-109690057D02*
X135430476Y-109785295D01*
X135430476Y-109785295D02*
X135478095Y-109975771D01*
X135478095Y-109975771D02*
X135478095Y-110213866D01*
X135478095Y-110213866D02*
X135430476Y-110404342D01*
X135430476Y-110404342D02*
X135382857Y-110499580D01*
X135382857Y-110499580D02*
X135335238Y-110547200D01*
X135335238Y-110547200D02*
X135240000Y-110594819D01*
X135240000Y-110594819D02*
X135144762Y-110594819D01*
X135144762Y-110594819D02*
X135049524Y-110547200D01*
X135049524Y-110547200D02*
X135001905Y-110499580D01*
X135001905Y-110499580D02*
X134954286Y-110404342D01*
X134954286Y-110404342D02*
X134906667Y-110213866D01*
X134906667Y-110213866D02*
X134906667Y-109975771D01*
X134906667Y-109975771D02*
X134954286Y-109785295D01*
X134954286Y-109785295D02*
X135001905Y-109690057D01*
X135001905Y-109690057D02*
X135049524Y-109642438D01*
X135049524Y-109642438D02*
X135144762Y-109594819D01*
X133001905Y-105690057D02*
X133049524Y-105642438D01*
X133049524Y-105642438D02*
X133144762Y-105594819D01*
X133144762Y-105594819D02*
X133382857Y-105594819D01*
X133382857Y-105594819D02*
X133478095Y-105642438D01*
X133478095Y-105642438D02*
X133525714Y-105690057D01*
X133525714Y-105690057D02*
X133573333Y-105785295D01*
X133573333Y-105785295D02*
X133573333Y-105880533D01*
X133573333Y-105880533D02*
X133525714Y-106023390D01*
X133525714Y-106023390D02*
X132954286Y-106594819D01*
X132954286Y-106594819D02*
X133573333Y-106594819D01*
X133954286Y-105690057D02*
X134001905Y-105642438D01*
X134001905Y-105642438D02*
X134097143Y-105594819D01*
X134097143Y-105594819D02*
X134335238Y-105594819D01*
X134335238Y-105594819D02*
X134430476Y-105642438D01*
X134430476Y-105642438D02*
X134478095Y-105690057D01*
X134478095Y-105690057D02*
X134525714Y-105785295D01*
X134525714Y-105785295D02*
X134525714Y-105880533D01*
X134525714Y-105880533D02*
X134478095Y-106023390D01*
X134478095Y-106023390D02*
X133906667Y-106594819D01*
X133906667Y-106594819D02*
X134525714Y-106594819D01*
X135144762Y-105594819D02*
X135240000Y-105594819D01*
X135240000Y-105594819D02*
X135335238Y-105642438D01*
X135335238Y-105642438D02*
X135382857Y-105690057D01*
X135382857Y-105690057D02*
X135430476Y-105785295D01*
X135430476Y-105785295D02*
X135478095Y-105975771D01*
X135478095Y-105975771D02*
X135478095Y-106213866D01*
X135478095Y-106213866D02*
X135430476Y-106404342D01*
X135430476Y-106404342D02*
X135382857Y-106499580D01*
X135382857Y-106499580D02*
X135335238Y-106547200D01*
X135335238Y-106547200D02*
X135240000Y-106594819D01*
X135240000Y-106594819D02*
X135144762Y-106594819D01*
X135144762Y-106594819D02*
X135049524Y-106547200D01*
X135049524Y-106547200D02*
X135001905Y-106499580D01*
X135001905Y-106499580D02*
X134954286Y-106404342D01*
X134954286Y-106404342D02*
X134906667Y-106213866D01*
X134906667Y-106213866D02*
X134906667Y-105975771D01*
X134906667Y-105975771D02*
X134954286Y-105785295D01*
X134954286Y-105785295D02*
X135001905Y-105690057D01*
X135001905Y-105690057D02*
X135049524Y-105642438D01*
X135049524Y-105642438D02*
X135144762Y-105594819D01*
X183166667Y-75142319D02*
X183833333Y-75142319D01*
X183833333Y-75142319D02*
X183404762Y-76142319D01*
X174964286Y-67800057D02*
X175011905Y-67752438D01*
X175011905Y-67752438D02*
X175107143Y-67704819D01*
X175107143Y-67704819D02*
X175345238Y-67704819D01*
X175345238Y-67704819D02*
X175440476Y-67752438D01*
X175440476Y-67752438D02*
X175488095Y-67800057D01*
X175488095Y-67800057D02*
X175535714Y-67895295D01*
X175535714Y-67895295D02*
X175535714Y-67990533D01*
X175535714Y-67990533D02*
X175488095Y-68133390D01*
X175488095Y-68133390D02*
X174916667Y-68704819D01*
X174916667Y-68704819D02*
X175535714Y-68704819D01*
X174916667Y-70254819D02*
X175535714Y-70254819D01*
X175535714Y-70254819D02*
X175202381Y-70635771D01*
X175202381Y-70635771D02*
X175345238Y-70635771D01*
X175345238Y-70635771D02*
X175440476Y-70683390D01*
X175440476Y-70683390D02*
X175488095Y-70731009D01*
X175488095Y-70731009D02*
X175535714Y-70826247D01*
X175535714Y-70826247D02*
X175535714Y-71064342D01*
X175535714Y-71064342D02*
X175488095Y-71159580D01*
X175488095Y-71159580D02*
X175440476Y-71207200D01*
X175440476Y-71207200D02*
X175345238Y-71254819D01*
X175345238Y-71254819D02*
X175059524Y-71254819D01*
X175059524Y-71254819D02*
X174964286Y-71207200D01*
X174964286Y-71207200D02*
X174916667Y-71159580D01*
X174916667Y-80454819D02*
X175583333Y-80454819D01*
X175583333Y-80454819D02*
X175154762Y-81454819D01*
X183059523Y-68454819D02*
X182488095Y-68454819D01*
X182773809Y-68454819D02*
X182773809Y-67454819D01*
X182773809Y-67454819D02*
X182678571Y-67597676D01*
X182678571Y-67597676D02*
X182583333Y-67692914D01*
X182583333Y-67692914D02*
X182488095Y-67740533D01*
X183678571Y-67454819D02*
X183773809Y-67454819D01*
X183773809Y-67454819D02*
X183869047Y-67502438D01*
X183869047Y-67502438D02*
X183916666Y-67550057D01*
X183916666Y-67550057D02*
X183964285Y-67645295D01*
X183964285Y-67645295D02*
X184011904Y-67835771D01*
X184011904Y-67835771D02*
X184011904Y-68073866D01*
X184011904Y-68073866D02*
X183964285Y-68264342D01*
X183964285Y-68264342D02*
X183916666Y-68359580D01*
X183916666Y-68359580D02*
X183869047Y-68407200D01*
X183869047Y-68407200D02*
X183773809Y-68454819D01*
X183773809Y-68454819D02*
X183678571Y-68454819D01*
X183678571Y-68454819D02*
X183583333Y-68407200D01*
X183583333Y-68407200D02*
X183535714Y-68359580D01*
X183535714Y-68359580D02*
X183488095Y-68264342D01*
X183488095Y-68264342D02*
X183440476Y-68073866D01*
X183440476Y-68073866D02*
X183440476Y-67835771D01*
X183440476Y-67835771D02*
X183488095Y-67645295D01*
X183488095Y-67645295D02*
X183535714Y-67550057D01*
X183535714Y-67550057D02*
X183583333Y-67502438D01*
X183583333Y-67502438D02*
X183678571Y-67454819D01*
X177011905Y-94669104D02*
X177488095Y-94669104D01*
X176916667Y-94954819D02*
X177250000Y-93954819D01*
X177250000Y-93954819D02*
X177583333Y-94954819D01*
X178107143Y-93954819D02*
X178297619Y-93954819D01*
X178297619Y-93954819D02*
X178392857Y-94002438D01*
X178392857Y-94002438D02*
X178488095Y-94097676D01*
X178488095Y-94097676D02*
X178535714Y-94288152D01*
X178535714Y-94288152D02*
X178535714Y-94621485D01*
X178535714Y-94621485D02*
X178488095Y-94811961D01*
X178488095Y-94811961D02*
X178392857Y-94907200D01*
X178392857Y-94907200D02*
X178297619Y-94954819D01*
X178297619Y-94954819D02*
X178107143Y-94954819D01*
X178107143Y-94954819D02*
X178011905Y-94907200D01*
X178011905Y-94907200D02*
X177916667Y-94811961D01*
X177916667Y-94811961D02*
X177869048Y-94621485D01*
X177869048Y-94621485D02*
X177869048Y-94288152D01*
X177869048Y-94288152D02*
X177916667Y-94097676D01*
X177916667Y-94097676D02*
X178011905Y-94002438D01*
X178011905Y-94002438D02*
X178107143Y-93954819D01*
X179488095Y-94954819D02*
X178916667Y-94954819D01*
X179202381Y-94954819D02*
X179202381Y-93954819D01*
X179202381Y-93954819D02*
X179107143Y-94097676D01*
X179107143Y-94097676D02*
X179011905Y-94192914D01*
X179011905Y-94192914D02*
X178916667Y-94240533D01*
X183166667Y-85392319D02*
X183785714Y-85392319D01*
X183785714Y-85392319D02*
X183452381Y-85773271D01*
X183452381Y-85773271D02*
X183595238Y-85773271D01*
X183595238Y-85773271D02*
X183690476Y-85820890D01*
X183690476Y-85820890D02*
X183738095Y-85868509D01*
X183738095Y-85868509D02*
X183785714Y-85963747D01*
X183785714Y-85963747D02*
X183785714Y-86201842D01*
X183785714Y-86201842D02*
X183738095Y-86297080D01*
X183738095Y-86297080D02*
X183690476Y-86344700D01*
X183690476Y-86344700D02*
X183595238Y-86392319D01*
X183595238Y-86392319D02*
X183309524Y-86392319D01*
X183309524Y-86392319D02*
X183214286Y-86344700D01*
X183214286Y-86344700D02*
X183166667Y-86297080D01*
X134120952Y-90594819D02*
X133549524Y-90594819D01*
X133835238Y-90594819D02*
X133835238Y-89594819D01*
X133835238Y-89594819D02*
X133740000Y-89737676D01*
X133740000Y-89737676D02*
X133644762Y-89832914D01*
X133644762Y-89832914D02*
X133549524Y-89880533D01*
X134549524Y-90594819D02*
X134549524Y-89594819D01*
X134644762Y-90213866D02*
X134930476Y-90594819D01*
X134930476Y-89928152D02*
X134549524Y-90309104D01*
X180988095Y-66204819D02*
X180988095Y-65204819D01*
X180988095Y-65204819D02*
X181226190Y-65204819D01*
X181226190Y-65204819D02*
X181369047Y-65252438D01*
X181369047Y-65252438D02*
X181464285Y-65347676D01*
X181464285Y-65347676D02*
X181511904Y-65442914D01*
X181511904Y-65442914D02*
X181559523Y-65633390D01*
X181559523Y-65633390D02*
X181559523Y-65776247D01*
X181559523Y-65776247D02*
X181511904Y-65966723D01*
X181511904Y-65966723D02*
X181464285Y-66061961D01*
X181464285Y-66061961D02*
X181369047Y-66157200D01*
X181369047Y-66157200D02*
X181226190Y-66204819D01*
X181226190Y-66204819D02*
X180988095Y-66204819D01*
X175440476Y-77904819D02*
X175250000Y-77904819D01*
X175250000Y-77904819D02*
X175154762Y-77952438D01*
X175154762Y-77952438D02*
X175107143Y-78000057D01*
X175107143Y-78000057D02*
X175011905Y-78142914D01*
X175011905Y-78142914D02*
X174964286Y-78333390D01*
X174964286Y-78333390D02*
X174964286Y-78714342D01*
X174964286Y-78714342D02*
X175011905Y-78809580D01*
X175011905Y-78809580D02*
X175059524Y-78857200D01*
X175059524Y-78857200D02*
X175154762Y-78904819D01*
X175154762Y-78904819D02*
X175345238Y-78904819D01*
X175345238Y-78904819D02*
X175440476Y-78857200D01*
X175440476Y-78857200D02*
X175488095Y-78809580D01*
X175488095Y-78809580D02*
X175535714Y-78714342D01*
X175535714Y-78714342D02*
X175535714Y-78476247D01*
X175535714Y-78476247D02*
X175488095Y-78381009D01*
X175488095Y-78381009D02*
X175440476Y-78333390D01*
X175440476Y-78333390D02*
X175345238Y-78285771D01*
X175345238Y-78285771D02*
X175154762Y-78285771D01*
X175154762Y-78285771D02*
X175059524Y-78333390D01*
X175059524Y-78333390D02*
X175011905Y-78381009D01*
X175011905Y-78381009D02*
X174964286Y-78476247D01*
X177321428Y-99931009D02*
X177464285Y-99978628D01*
X177464285Y-99978628D02*
X177511904Y-100026247D01*
X177511904Y-100026247D02*
X177559523Y-100121485D01*
X177559523Y-100121485D02*
X177559523Y-100264342D01*
X177559523Y-100264342D02*
X177511904Y-100359580D01*
X177511904Y-100359580D02*
X177464285Y-100407200D01*
X177464285Y-100407200D02*
X177369047Y-100454819D01*
X177369047Y-100454819D02*
X176988095Y-100454819D01*
X176988095Y-100454819D02*
X176988095Y-99454819D01*
X176988095Y-99454819D02*
X177321428Y-99454819D01*
X177321428Y-99454819D02*
X177416666Y-99502438D01*
X177416666Y-99502438D02*
X177464285Y-99550057D01*
X177464285Y-99550057D02*
X177511904Y-99645295D01*
X177511904Y-99645295D02*
X177511904Y-99740533D01*
X177511904Y-99740533D02*
X177464285Y-99835771D01*
X177464285Y-99835771D02*
X177416666Y-99883390D01*
X177416666Y-99883390D02*
X177321428Y-99931009D01*
X177321428Y-99931009D02*
X176988095Y-99931009D01*
X178178571Y-99454819D02*
X178369047Y-99454819D01*
X178369047Y-99454819D02*
X178464285Y-99502438D01*
X178464285Y-99502438D02*
X178559523Y-99597676D01*
X178559523Y-99597676D02*
X178607142Y-99788152D01*
X178607142Y-99788152D02*
X178607142Y-100121485D01*
X178607142Y-100121485D02*
X178559523Y-100311961D01*
X178559523Y-100311961D02*
X178464285Y-100407200D01*
X178464285Y-100407200D02*
X178369047Y-100454819D01*
X178369047Y-100454819D02*
X178178571Y-100454819D01*
X178178571Y-100454819D02*
X178083333Y-100407200D01*
X178083333Y-100407200D02*
X177988095Y-100311961D01*
X177988095Y-100311961D02*
X177940476Y-100121485D01*
X177940476Y-100121485D02*
X177940476Y-99788152D01*
X177940476Y-99788152D02*
X177988095Y-99597676D01*
X177988095Y-99597676D02*
X178083333Y-99502438D01*
X178083333Y-99502438D02*
X178178571Y-99454819D01*
X178988095Y-99550057D02*
X179035714Y-99502438D01*
X179035714Y-99502438D02*
X179130952Y-99454819D01*
X179130952Y-99454819D02*
X179369047Y-99454819D01*
X179369047Y-99454819D02*
X179464285Y-99502438D01*
X179464285Y-99502438D02*
X179511904Y-99550057D01*
X179511904Y-99550057D02*
X179559523Y-99645295D01*
X179559523Y-99645295D02*
X179559523Y-99740533D01*
X179559523Y-99740533D02*
X179511904Y-99883390D01*
X179511904Y-99883390D02*
X178940476Y-100454819D01*
X178940476Y-100454819D02*
X179559523Y-100454819D01*
X177321428Y-102681009D02*
X177464285Y-102728628D01*
X177464285Y-102728628D02*
X177511904Y-102776247D01*
X177511904Y-102776247D02*
X177559523Y-102871485D01*
X177559523Y-102871485D02*
X177559523Y-103014342D01*
X177559523Y-103014342D02*
X177511904Y-103109580D01*
X177511904Y-103109580D02*
X177464285Y-103157200D01*
X177464285Y-103157200D02*
X177369047Y-103204819D01*
X177369047Y-103204819D02*
X176988095Y-103204819D01*
X176988095Y-103204819D02*
X176988095Y-102204819D01*
X176988095Y-102204819D02*
X177321428Y-102204819D01*
X177321428Y-102204819D02*
X177416666Y-102252438D01*
X177416666Y-102252438D02*
X177464285Y-102300057D01*
X177464285Y-102300057D02*
X177511904Y-102395295D01*
X177511904Y-102395295D02*
X177511904Y-102490533D01*
X177511904Y-102490533D02*
X177464285Y-102585771D01*
X177464285Y-102585771D02*
X177416666Y-102633390D01*
X177416666Y-102633390D02*
X177321428Y-102681009D01*
X177321428Y-102681009D02*
X176988095Y-102681009D01*
X178178571Y-102204819D02*
X178369047Y-102204819D01*
X178369047Y-102204819D02*
X178464285Y-102252438D01*
X178464285Y-102252438D02*
X178559523Y-102347676D01*
X178559523Y-102347676D02*
X178607142Y-102538152D01*
X178607142Y-102538152D02*
X178607142Y-102871485D01*
X178607142Y-102871485D02*
X178559523Y-103061961D01*
X178559523Y-103061961D02*
X178464285Y-103157200D01*
X178464285Y-103157200D02*
X178369047Y-103204819D01*
X178369047Y-103204819D02*
X178178571Y-103204819D01*
X178178571Y-103204819D02*
X178083333Y-103157200D01*
X178083333Y-103157200D02*
X177988095Y-103061961D01*
X177988095Y-103061961D02*
X177940476Y-102871485D01*
X177940476Y-102871485D02*
X177940476Y-102538152D01*
X177940476Y-102538152D02*
X177988095Y-102347676D01*
X177988095Y-102347676D02*
X178083333Y-102252438D01*
X178083333Y-102252438D02*
X178178571Y-102204819D01*
X179559523Y-103204819D02*
X178988095Y-103204819D01*
X179273809Y-103204819D02*
X179273809Y-102204819D01*
X179273809Y-102204819D02*
X179178571Y-102347676D01*
X179178571Y-102347676D02*
X179083333Y-102442914D01*
X179083333Y-102442914D02*
X178988095Y-102490533D01*
X157910112Y-102516121D02*
X158052969Y-102563740D01*
X158052969Y-102563740D02*
X158100588Y-102611359D01*
X158100588Y-102611359D02*
X158148207Y-102706597D01*
X158148207Y-102706597D02*
X158148207Y-102849454D01*
X158148207Y-102849454D02*
X158100588Y-102944692D01*
X158100588Y-102944692D02*
X158052969Y-102992312D01*
X158052969Y-102992312D02*
X157957731Y-103039931D01*
X157957731Y-103039931D02*
X157576779Y-103039931D01*
X157576779Y-103039931D02*
X157576779Y-102039931D01*
X157576779Y-102039931D02*
X157910112Y-102039931D01*
X157910112Y-102039931D02*
X158005350Y-102087550D01*
X158005350Y-102087550D02*
X158052969Y-102135169D01*
X158052969Y-102135169D02*
X158100588Y-102230407D01*
X158100588Y-102230407D02*
X158100588Y-102325645D01*
X158100588Y-102325645D02*
X158052969Y-102420883D01*
X158052969Y-102420883D02*
X158005350Y-102468502D01*
X158005350Y-102468502D02*
X157910112Y-102516121D01*
X157910112Y-102516121D02*
X157576779Y-102516121D01*
X158957731Y-102992312D02*
X158862493Y-103039931D01*
X158862493Y-103039931D02*
X158672017Y-103039931D01*
X158672017Y-103039931D02*
X158576779Y-102992312D01*
X158576779Y-102992312D02*
X158529160Y-102897073D01*
X158529160Y-102897073D02*
X158529160Y-102516121D01*
X158529160Y-102516121D02*
X158576779Y-102420883D01*
X158576779Y-102420883D02*
X158672017Y-102373264D01*
X158672017Y-102373264D02*
X158862493Y-102373264D01*
X158862493Y-102373264D02*
X158957731Y-102420883D01*
X158957731Y-102420883D02*
X159005350Y-102516121D01*
X159005350Y-102516121D02*
X159005350Y-102611359D01*
X159005350Y-102611359D02*
X158529160Y-102706597D01*
X159433922Y-102373264D02*
X159433922Y-103039931D01*
X159433922Y-102468502D02*
X159481541Y-102420883D01*
X159481541Y-102420883D02*
X159576779Y-102373264D01*
X159576779Y-102373264D02*
X159719636Y-102373264D01*
X159719636Y-102373264D02*
X159814874Y-102420883D01*
X159814874Y-102420883D02*
X159862493Y-102516121D01*
X159862493Y-102516121D02*
X159862493Y-103039931D01*
X161005351Y-102039931D02*
X161243446Y-103039931D01*
X161243446Y-103039931D02*
X161433922Y-102325645D01*
X161433922Y-102325645D02*
X161624398Y-103039931D01*
X161624398Y-103039931D02*
X161862494Y-102039931D01*
X162243446Y-103039931D02*
X162243446Y-102373264D01*
X162243446Y-102039931D02*
X162195827Y-102087550D01*
X162195827Y-102087550D02*
X162243446Y-102135169D01*
X162243446Y-102135169D02*
X162291065Y-102087550D01*
X162291065Y-102087550D02*
X162243446Y-102039931D01*
X162243446Y-102039931D02*
X162243446Y-102135169D01*
X162862493Y-103039931D02*
X162767255Y-102992312D01*
X162767255Y-102992312D02*
X162719636Y-102897073D01*
X162719636Y-102897073D02*
X162719636Y-102039931D01*
X163100589Y-102373264D02*
X163481541Y-102373264D01*
X163243446Y-102039931D02*
X163243446Y-102897073D01*
X163243446Y-102897073D02*
X163291065Y-102992312D01*
X163291065Y-102992312D02*
X163386303Y-103039931D01*
X163386303Y-103039931D02*
X163481541Y-103039931D01*
X163767256Y-102992312D02*
X163862494Y-103039931D01*
X163862494Y-103039931D02*
X164052970Y-103039931D01*
X164052970Y-103039931D02*
X164148208Y-102992312D01*
X164148208Y-102992312D02*
X164195827Y-102897073D01*
X164195827Y-102897073D02*
X164195827Y-102849454D01*
X164195827Y-102849454D02*
X164148208Y-102754216D01*
X164148208Y-102754216D02*
X164052970Y-102706597D01*
X164052970Y-102706597D02*
X163910113Y-102706597D01*
X163910113Y-102706597D02*
X163814875Y-102658978D01*
X163814875Y-102658978D02*
X163767256Y-102563740D01*
X163767256Y-102563740D02*
X163767256Y-102516121D01*
X163767256Y-102516121D02*
X163814875Y-102420883D01*
X163814875Y-102420883D02*
X163910113Y-102373264D01*
X163910113Y-102373264D02*
X164052970Y-102373264D01*
X164052970Y-102373264D02*
X164148208Y-102420883D01*
X164624399Y-103039931D02*
X164624399Y-102039931D01*
X165052970Y-103039931D02*
X165052970Y-102516121D01*
X165052970Y-102516121D02*
X165005351Y-102420883D01*
X165005351Y-102420883D02*
X164910113Y-102373264D01*
X164910113Y-102373264D02*
X164767256Y-102373264D01*
X164767256Y-102373264D02*
X164672018Y-102420883D01*
X164672018Y-102420883D02*
X164624399Y-102468502D01*
X165529161Y-103039931D02*
X165529161Y-102373264D01*
X165529161Y-102039931D02*
X165481542Y-102087550D01*
X165481542Y-102087550D02*
X165529161Y-102135169D01*
X165529161Y-102135169D02*
X165576780Y-102087550D01*
X165576780Y-102087550D02*
X165529161Y-102039931D01*
X165529161Y-102039931D02*
X165529161Y-102135169D01*
X166005351Y-103039931D02*
X166005351Y-102373264D01*
X166005351Y-102563740D02*
X166052970Y-102468502D01*
X166052970Y-102468502D02*
X166100589Y-102420883D01*
X166100589Y-102420883D02*
X166195827Y-102373264D01*
X166195827Y-102373264D02*
X166291065Y-102373264D01*
X167005351Y-102992312D02*
X166910113Y-103039931D01*
X166910113Y-103039931D02*
X166719637Y-103039931D01*
X166719637Y-103039931D02*
X166624399Y-102992312D01*
X166624399Y-102992312D02*
X166576780Y-102897073D01*
X166576780Y-102897073D02*
X166576780Y-102516121D01*
X166576780Y-102516121D02*
X166624399Y-102420883D01*
X166624399Y-102420883D02*
X166719637Y-102373264D01*
X166719637Y-102373264D02*
X166910113Y-102373264D01*
X166910113Y-102373264D02*
X167005351Y-102420883D01*
X167005351Y-102420883D02*
X167052970Y-102516121D01*
X167052970Y-102516121D02*
X167052970Y-102611359D01*
X167052970Y-102611359D02*
X166576780Y-102706597D01*
X157529160Y-104364160D02*
X158005350Y-104364160D01*
X157433922Y-104649875D02*
X157767255Y-103649875D01*
X157767255Y-103649875D02*
X158100588Y-104649875D01*
X158433922Y-104649875D02*
X158433922Y-103983208D01*
X158433922Y-104173684D02*
X158481541Y-104078446D01*
X158481541Y-104078446D02*
X158529160Y-104030827D01*
X158529160Y-104030827D02*
X158624398Y-103983208D01*
X158624398Y-103983208D02*
X158719636Y-103983208D01*
X159481541Y-104649875D02*
X159481541Y-103649875D01*
X159481541Y-104602256D02*
X159386303Y-104649875D01*
X159386303Y-104649875D02*
X159195827Y-104649875D01*
X159195827Y-104649875D02*
X159100589Y-104602256D01*
X159100589Y-104602256D02*
X159052970Y-104554636D01*
X159052970Y-104554636D02*
X159005351Y-104459398D01*
X159005351Y-104459398D02*
X159005351Y-104173684D01*
X159005351Y-104173684D02*
X159052970Y-104078446D01*
X159052970Y-104078446D02*
X159100589Y-104030827D01*
X159100589Y-104030827D02*
X159195827Y-103983208D01*
X159195827Y-103983208D02*
X159386303Y-103983208D01*
X159386303Y-103983208D02*
X159481541Y-104030827D01*
X160386303Y-103983208D02*
X160386303Y-104649875D01*
X159957732Y-103983208D02*
X159957732Y-104507017D01*
X159957732Y-104507017D02*
X160005351Y-104602256D01*
X160005351Y-104602256D02*
X160100589Y-104649875D01*
X160100589Y-104649875D02*
X160243446Y-104649875D01*
X160243446Y-104649875D02*
X160338684Y-104602256D01*
X160338684Y-104602256D02*
X160386303Y-104554636D01*
X160862494Y-104649875D02*
X160862494Y-103983208D01*
X160862494Y-103649875D02*
X160814875Y-103697494D01*
X160814875Y-103697494D02*
X160862494Y-103745113D01*
X160862494Y-103745113D02*
X160910113Y-103697494D01*
X160910113Y-103697494D02*
X160862494Y-103649875D01*
X160862494Y-103649875D02*
X160862494Y-103745113D01*
X161338684Y-103983208D02*
X161338684Y-104649875D01*
X161338684Y-104078446D02*
X161386303Y-104030827D01*
X161386303Y-104030827D02*
X161481541Y-103983208D01*
X161481541Y-103983208D02*
X161624398Y-103983208D01*
X161624398Y-103983208D02*
X161719636Y-104030827D01*
X161719636Y-104030827D02*
X161767255Y-104126065D01*
X161767255Y-104126065D02*
X161767255Y-104649875D01*
X162386303Y-104649875D02*
X162291065Y-104602256D01*
X162291065Y-104602256D02*
X162243446Y-104554636D01*
X162243446Y-104554636D02*
X162195827Y-104459398D01*
X162195827Y-104459398D02*
X162195827Y-104173684D01*
X162195827Y-104173684D02*
X162243446Y-104078446D01*
X162243446Y-104078446D02*
X162291065Y-104030827D01*
X162291065Y-104030827D02*
X162386303Y-103983208D01*
X162386303Y-103983208D02*
X162529160Y-103983208D01*
X162529160Y-103983208D02*
X162624398Y-104030827D01*
X162624398Y-104030827D02*
X162672017Y-104078446D01*
X162672017Y-104078446D02*
X162719636Y-104173684D01*
X162719636Y-104173684D02*
X162719636Y-104459398D01*
X162719636Y-104459398D02*
X162672017Y-104554636D01*
X162672017Y-104554636D02*
X162624398Y-104602256D01*
X162624398Y-104602256D02*
X162529160Y-104649875D01*
X162529160Y-104649875D02*
X162386303Y-104649875D01*
X163910113Y-103983208D02*
X163910113Y-104649875D01*
X163910113Y-104078446D02*
X163957732Y-104030827D01*
X163957732Y-104030827D02*
X164052970Y-103983208D01*
X164052970Y-103983208D02*
X164195827Y-103983208D01*
X164195827Y-103983208D02*
X164291065Y-104030827D01*
X164291065Y-104030827D02*
X164338684Y-104126065D01*
X164338684Y-104126065D02*
X164338684Y-104649875D01*
X165243446Y-104649875D02*
X165243446Y-104126065D01*
X165243446Y-104126065D02*
X165195827Y-104030827D01*
X165195827Y-104030827D02*
X165100589Y-103983208D01*
X165100589Y-103983208D02*
X164910113Y-103983208D01*
X164910113Y-103983208D02*
X164814875Y-104030827D01*
X165243446Y-104602256D02*
X165148208Y-104649875D01*
X165148208Y-104649875D02*
X164910113Y-104649875D01*
X164910113Y-104649875D02*
X164814875Y-104602256D01*
X164814875Y-104602256D02*
X164767256Y-104507017D01*
X164767256Y-104507017D02*
X164767256Y-104411779D01*
X164767256Y-104411779D02*
X164814875Y-104316541D01*
X164814875Y-104316541D02*
X164910113Y-104268922D01*
X164910113Y-104268922D02*
X165148208Y-104268922D01*
X165148208Y-104268922D02*
X165243446Y-104221303D01*
X165719637Y-103983208D02*
X165719637Y-104649875D01*
X165719637Y-104078446D02*
X165767256Y-104030827D01*
X165767256Y-104030827D02*
X165862494Y-103983208D01*
X165862494Y-103983208D02*
X166005351Y-103983208D01*
X166005351Y-103983208D02*
X166100589Y-104030827D01*
X166100589Y-104030827D02*
X166148208Y-104126065D01*
X166148208Y-104126065D02*
X166148208Y-104649875D01*
X166767256Y-104649875D02*
X166672018Y-104602256D01*
X166672018Y-104602256D02*
X166624399Y-104554636D01*
X166624399Y-104554636D02*
X166576780Y-104459398D01*
X166576780Y-104459398D02*
X166576780Y-104173684D01*
X166576780Y-104173684D02*
X166624399Y-104078446D01*
X166624399Y-104078446D02*
X166672018Y-104030827D01*
X166672018Y-104030827D02*
X166767256Y-103983208D01*
X166767256Y-103983208D02*
X166910113Y-103983208D01*
X166910113Y-103983208D02*
X167005351Y-104030827D01*
X167005351Y-104030827D02*
X167052970Y-104078446D01*
X167052970Y-104078446D02*
X167100589Y-104173684D01*
X167100589Y-104173684D02*
X167100589Y-104459398D01*
X167100589Y-104459398D02*
X167052970Y-104554636D01*
X167052970Y-104554636D02*
X167005351Y-104602256D01*
X167005351Y-104602256D02*
X166910113Y-104649875D01*
X166910113Y-104649875D02*
X166767256Y-104649875D01*
X168624399Y-104126065D02*
X168767256Y-104173684D01*
X168767256Y-104173684D02*
X168814875Y-104221303D01*
X168814875Y-104221303D02*
X168862494Y-104316541D01*
X168862494Y-104316541D02*
X168862494Y-104459398D01*
X168862494Y-104459398D02*
X168814875Y-104554636D01*
X168814875Y-104554636D02*
X168767256Y-104602256D01*
X168767256Y-104602256D02*
X168672018Y-104649875D01*
X168672018Y-104649875D02*
X168291066Y-104649875D01*
X168291066Y-104649875D02*
X168291066Y-103649875D01*
X168291066Y-103649875D02*
X168624399Y-103649875D01*
X168624399Y-103649875D02*
X168719637Y-103697494D01*
X168719637Y-103697494D02*
X168767256Y-103745113D01*
X168767256Y-103745113D02*
X168814875Y-103840351D01*
X168814875Y-103840351D02*
X168814875Y-103935589D01*
X168814875Y-103935589D02*
X168767256Y-104030827D01*
X168767256Y-104030827D02*
X168719637Y-104078446D01*
X168719637Y-104078446D02*
X168624399Y-104126065D01*
X168624399Y-104126065D02*
X168291066Y-104126065D01*
X169291066Y-104649875D02*
X169291066Y-103983208D01*
X169291066Y-104173684D02*
X169338685Y-104078446D01*
X169338685Y-104078446D02*
X169386304Y-104030827D01*
X169386304Y-104030827D02*
X169481542Y-103983208D01*
X169481542Y-103983208D02*
X169576780Y-103983208D01*
X170291066Y-104602256D02*
X170195828Y-104649875D01*
X170195828Y-104649875D02*
X170005352Y-104649875D01*
X170005352Y-104649875D02*
X169910114Y-104602256D01*
X169910114Y-104602256D02*
X169862495Y-104507017D01*
X169862495Y-104507017D02*
X169862495Y-104126065D01*
X169862495Y-104126065D02*
X169910114Y-104030827D01*
X169910114Y-104030827D02*
X170005352Y-103983208D01*
X170005352Y-103983208D02*
X170195828Y-103983208D01*
X170195828Y-103983208D02*
X170291066Y-104030827D01*
X170291066Y-104030827D02*
X170338685Y-104126065D01*
X170338685Y-104126065D02*
X170338685Y-104221303D01*
X170338685Y-104221303D02*
X169862495Y-104316541D01*
X171195828Y-104649875D02*
X171195828Y-104126065D01*
X171195828Y-104126065D02*
X171148209Y-104030827D01*
X171148209Y-104030827D02*
X171052971Y-103983208D01*
X171052971Y-103983208D02*
X170862495Y-103983208D01*
X170862495Y-103983208D02*
X170767257Y-104030827D01*
X171195828Y-104602256D02*
X171100590Y-104649875D01*
X171100590Y-104649875D02*
X170862495Y-104649875D01*
X170862495Y-104649875D02*
X170767257Y-104602256D01*
X170767257Y-104602256D02*
X170719638Y-104507017D01*
X170719638Y-104507017D02*
X170719638Y-104411779D01*
X170719638Y-104411779D02*
X170767257Y-104316541D01*
X170767257Y-104316541D02*
X170862495Y-104268922D01*
X170862495Y-104268922D02*
X171100590Y-104268922D01*
X171100590Y-104268922D02*
X171195828Y-104221303D01*
X171672019Y-104649875D02*
X171672019Y-103649875D01*
X171767257Y-104268922D02*
X172052971Y-104649875D01*
X172052971Y-103983208D02*
X171672019Y-104364160D01*
X172624400Y-104649875D02*
X172529162Y-104602256D01*
X172529162Y-104602256D02*
X172481543Y-104554636D01*
X172481543Y-104554636D02*
X172433924Y-104459398D01*
X172433924Y-104459398D02*
X172433924Y-104173684D01*
X172433924Y-104173684D02*
X172481543Y-104078446D01*
X172481543Y-104078446D02*
X172529162Y-104030827D01*
X172529162Y-104030827D02*
X172624400Y-103983208D01*
X172624400Y-103983208D02*
X172767257Y-103983208D01*
X172767257Y-103983208D02*
X172862495Y-104030827D01*
X172862495Y-104030827D02*
X172910114Y-104078446D01*
X172910114Y-104078446D02*
X172957733Y-104173684D01*
X172957733Y-104173684D02*
X172957733Y-104459398D01*
X172957733Y-104459398D02*
X172910114Y-104554636D01*
X172910114Y-104554636D02*
X172862495Y-104602256D01*
X172862495Y-104602256D02*
X172767257Y-104649875D01*
X172767257Y-104649875D02*
X172624400Y-104649875D01*
X173814876Y-103983208D02*
X173814876Y-104649875D01*
X173386305Y-103983208D02*
X173386305Y-104507017D01*
X173386305Y-104507017D02*
X173433924Y-104602256D01*
X173433924Y-104602256D02*
X173529162Y-104649875D01*
X173529162Y-104649875D02*
X173672019Y-104649875D01*
X173672019Y-104649875D02*
X173767257Y-104602256D01*
X173767257Y-104602256D02*
X173814876Y-104554636D01*
X174148210Y-103983208D02*
X174529162Y-103983208D01*
X174291067Y-103649875D02*
X174291067Y-104507017D01*
X174291067Y-104507017D02*
X174338686Y-104602256D01*
X174338686Y-104602256D02*
X174433924Y-104649875D01*
X174433924Y-104649875D02*
X174529162Y-104649875D01*
X157767255Y-105259819D02*
X157862493Y-105259819D01*
X157862493Y-105259819D02*
X157957731Y-105307438D01*
X157957731Y-105307438D02*
X158005350Y-105355057D01*
X158005350Y-105355057D02*
X158052969Y-105450295D01*
X158052969Y-105450295D02*
X158100588Y-105640771D01*
X158100588Y-105640771D02*
X158100588Y-105878866D01*
X158100588Y-105878866D02*
X158052969Y-106069342D01*
X158052969Y-106069342D02*
X158005350Y-106164580D01*
X158005350Y-106164580D02*
X157957731Y-106212200D01*
X157957731Y-106212200D02*
X157862493Y-106259819D01*
X157862493Y-106259819D02*
X157767255Y-106259819D01*
X157767255Y-106259819D02*
X157672017Y-106212200D01*
X157672017Y-106212200D02*
X157624398Y-106164580D01*
X157624398Y-106164580D02*
X157576779Y-106069342D01*
X157576779Y-106069342D02*
X157529160Y-105878866D01*
X157529160Y-105878866D02*
X157529160Y-105640771D01*
X157529160Y-105640771D02*
X157576779Y-105450295D01*
X157576779Y-105450295D02*
X157624398Y-105355057D01*
X157624398Y-105355057D02*
X157672017Y-105307438D01*
X157672017Y-105307438D02*
X157767255Y-105259819D01*
X158957731Y-105593152D02*
X158957731Y-106259819D01*
X158719636Y-105212200D02*
X158481541Y-105926485D01*
X158481541Y-105926485D02*
X159100588Y-105926485D01*
X160195826Y-105212200D02*
X159338684Y-106497914D01*
X160719636Y-105259819D02*
X160814874Y-105259819D01*
X160814874Y-105259819D02*
X160910112Y-105307438D01*
X160910112Y-105307438D02*
X160957731Y-105355057D01*
X160957731Y-105355057D02*
X161005350Y-105450295D01*
X161005350Y-105450295D02*
X161052969Y-105640771D01*
X161052969Y-105640771D02*
X161052969Y-105878866D01*
X161052969Y-105878866D02*
X161005350Y-106069342D01*
X161005350Y-106069342D02*
X160957731Y-106164580D01*
X160957731Y-106164580D02*
X160910112Y-106212200D01*
X160910112Y-106212200D02*
X160814874Y-106259819D01*
X160814874Y-106259819D02*
X160719636Y-106259819D01*
X160719636Y-106259819D02*
X160624398Y-106212200D01*
X160624398Y-106212200D02*
X160576779Y-106164580D01*
X160576779Y-106164580D02*
X160529160Y-106069342D01*
X160529160Y-106069342D02*
X160481541Y-105878866D01*
X160481541Y-105878866D02*
X160481541Y-105640771D01*
X160481541Y-105640771D02*
X160529160Y-105450295D01*
X160529160Y-105450295D02*
X160576779Y-105355057D01*
X160576779Y-105355057D02*
X160624398Y-105307438D01*
X160624398Y-105307438D02*
X160719636Y-105259819D01*
X161910112Y-105593152D02*
X161910112Y-106259819D01*
X161672017Y-105212200D02*
X161433922Y-105926485D01*
X161433922Y-105926485D02*
X162052969Y-105926485D01*
X163148207Y-105212200D02*
X162291065Y-106497914D01*
X163433922Y-105355057D02*
X163481541Y-105307438D01*
X163481541Y-105307438D02*
X163576779Y-105259819D01*
X163576779Y-105259819D02*
X163814874Y-105259819D01*
X163814874Y-105259819D02*
X163910112Y-105307438D01*
X163910112Y-105307438D02*
X163957731Y-105355057D01*
X163957731Y-105355057D02*
X164005350Y-105450295D01*
X164005350Y-105450295D02*
X164005350Y-105545533D01*
X164005350Y-105545533D02*
X163957731Y-105688390D01*
X163957731Y-105688390D02*
X163386303Y-106259819D01*
X163386303Y-106259819D02*
X164005350Y-106259819D01*
X164910112Y-105259819D02*
X164433922Y-105259819D01*
X164433922Y-105259819D02*
X164386303Y-105736009D01*
X164386303Y-105736009D02*
X164433922Y-105688390D01*
X164433922Y-105688390D02*
X164529160Y-105640771D01*
X164529160Y-105640771D02*
X164767255Y-105640771D01*
X164767255Y-105640771D02*
X164862493Y-105688390D01*
X164862493Y-105688390D02*
X164910112Y-105736009D01*
X164910112Y-105736009D02*
X164957731Y-105831247D01*
X164957731Y-105831247D02*
X164957731Y-106069342D01*
X164957731Y-106069342D02*
X164910112Y-106164580D01*
X164910112Y-106164580D02*
X164862493Y-106212200D01*
X164862493Y-106212200D02*
X164767255Y-106259819D01*
X164767255Y-106259819D02*
X164529160Y-106259819D01*
X164529160Y-106259819D02*
X164433922Y-106212200D01*
X164433922Y-106212200D02*
X164386303Y-106164580D01*
X133073333Y-93928152D02*
X133073333Y-94594819D01*
X132835238Y-93547200D02*
X132597143Y-94261485D01*
X132597143Y-94261485D02*
X133216190Y-94261485D01*
X133501905Y-93594819D02*
X134168571Y-93594819D01*
X134168571Y-93594819D02*
X133740000Y-94594819D01*
X134549524Y-94594819D02*
X134549524Y-93594819D01*
X134644762Y-94213866D02*
X134930476Y-94594819D01*
X134930476Y-93928152D02*
X134549524Y-94309104D01*
X135835238Y-93594819D02*
X135359048Y-93594819D01*
X135359048Y-93594819D02*
X135311429Y-94071009D01*
X135311429Y-94071009D02*
X135359048Y-94023390D01*
X135359048Y-94023390D02*
X135454286Y-93975771D01*
X135454286Y-93975771D02*
X135692381Y-93975771D01*
X135692381Y-93975771D02*
X135787619Y-94023390D01*
X135787619Y-94023390D02*
X135835238Y-94071009D01*
X135835238Y-94071009D02*
X135882857Y-94166247D01*
X135882857Y-94166247D02*
X135882857Y-94404342D01*
X135882857Y-94404342D02*
X135835238Y-94499580D01*
X135835238Y-94499580D02*
X135787619Y-94547200D01*
X135787619Y-94547200D02*
X135692381Y-94594819D01*
X135692381Y-94594819D02*
X135454286Y-94594819D01*
X135454286Y-94594819D02*
X135359048Y-94547200D01*
X135359048Y-94547200D02*
X135311429Y-94499580D01*
X183214286Y-88050057D02*
X183261905Y-88002438D01*
X183261905Y-88002438D02*
X183357143Y-87954819D01*
X183357143Y-87954819D02*
X183595238Y-87954819D01*
X183595238Y-87954819D02*
X183690476Y-88002438D01*
X183690476Y-88002438D02*
X183738095Y-88050057D01*
X183738095Y-88050057D02*
X183785714Y-88145295D01*
X183785714Y-88145295D02*
X183785714Y-88240533D01*
X183785714Y-88240533D02*
X183738095Y-88383390D01*
X183738095Y-88383390D02*
X183166667Y-88954819D01*
X183166667Y-88954819D02*
X183785714Y-88954819D01*
X183690476Y-77704819D02*
X183500000Y-77704819D01*
X183500000Y-77704819D02*
X183404762Y-77752438D01*
X183404762Y-77752438D02*
X183357143Y-77800057D01*
X183357143Y-77800057D02*
X183261905Y-77942914D01*
X183261905Y-77942914D02*
X183214286Y-78133390D01*
X183214286Y-78133390D02*
X183214286Y-78514342D01*
X183214286Y-78514342D02*
X183261905Y-78609580D01*
X183261905Y-78609580D02*
X183309524Y-78657200D01*
X183309524Y-78657200D02*
X183404762Y-78704819D01*
X183404762Y-78704819D02*
X183595238Y-78704819D01*
X183595238Y-78704819D02*
X183690476Y-78657200D01*
X183690476Y-78657200D02*
X183738095Y-78609580D01*
X183738095Y-78609580D02*
X183785714Y-78514342D01*
X183785714Y-78514342D02*
X183785714Y-78276247D01*
X183785714Y-78276247D02*
X183738095Y-78181009D01*
X183738095Y-78181009D02*
X183690476Y-78133390D01*
X183690476Y-78133390D02*
X183595238Y-78085771D01*
X183595238Y-78085771D02*
X183404762Y-78085771D01*
X183404762Y-78085771D02*
X183309524Y-78133390D01*
X183309524Y-78133390D02*
X183261905Y-78181009D01*
X183261905Y-78181009D02*
X183214286Y-78276247D01*
X177011905Y-97419104D02*
X177488095Y-97419104D01*
X176916667Y-97704819D02*
X177250000Y-96704819D01*
X177250000Y-96704819D02*
X177583333Y-97704819D01*
X178107143Y-96704819D02*
X178297619Y-96704819D01*
X178297619Y-96704819D02*
X178392857Y-96752438D01*
X178392857Y-96752438D02*
X178488095Y-96847676D01*
X178488095Y-96847676D02*
X178535714Y-97038152D01*
X178535714Y-97038152D02*
X178535714Y-97371485D01*
X178535714Y-97371485D02*
X178488095Y-97561961D01*
X178488095Y-97561961D02*
X178392857Y-97657200D01*
X178392857Y-97657200D02*
X178297619Y-97704819D01*
X178297619Y-97704819D02*
X178107143Y-97704819D01*
X178107143Y-97704819D02*
X178011905Y-97657200D01*
X178011905Y-97657200D02*
X177916667Y-97561961D01*
X177916667Y-97561961D02*
X177869048Y-97371485D01*
X177869048Y-97371485D02*
X177869048Y-97038152D01*
X177869048Y-97038152D02*
X177916667Y-96847676D01*
X177916667Y-96847676D02*
X178011905Y-96752438D01*
X178011905Y-96752438D02*
X178107143Y-96704819D01*
X178916667Y-96800057D02*
X178964286Y-96752438D01*
X178964286Y-96752438D02*
X179059524Y-96704819D01*
X179059524Y-96704819D02*
X179297619Y-96704819D01*
X179297619Y-96704819D02*
X179392857Y-96752438D01*
X179392857Y-96752438D02*
X179440476Y-96800057D01*
X179440476Y-96800057D02*
X179488095Y-96895295D01*
X179488095Y-96895295D02*
X179488095Y-96990533D01*
X179488095Y-96990533D02*
X179440476Y-97133390D01*
X179440476Y-97133390D02*
X178869048Y-97704819D01*
X178869048Y-97704819D02*
X179488095Y-97704819D01*
X183404762Y-73008390D02*
X183309524Y-72960771D01*
X183309524Y-72960771D02*
X183261905Y-72913152D01*
X183261905Y-72913152D02*
X183214286Y-72817914D01*
X183214286Y-72817914D02*
X183214286Y-72770295D01*
X183214286Y-72770295D02*
X183261905Y-72675057D01*
X183261905Y-72675057D02*
X183309524Y-72627438D01*
X183309524Y-72627438D02*
X183404762Y-72579819D01*
X183404762Y-72579819D02*
X183595238Y-72579819D01*
X183595238Y-72579819D02*
X183690476Y-72627438D01*
X183690476Y-72627438D02*
X183738095Y-72675057D01*
X183738095Y-72675057D02*
X183785714Y-72770295D01*
X183785714Y-72770295D02*
X183785714Y-72817914D01*
X183785714Y-72817914D02*
X183738095Y-72913152D01*
X183738095Y-72913152D02*
X183690476Y-72960771D01*
X183690476Y-72960771D02*
X183595238Y-73008390D01*
X183595238Y-73008390D02*
X183404762Y-73008390D01*
X183404762Y-73008390D02*
X183309524Y-73056009D01*
X183309524Y-73056009D02*
X183261905Y-73103628D01*
X183261905Y-73103628D02*
X183214286Y-73198866D01*
X183214286Y-73198866D02*
X183214286Y-73389342D01*
X183214286Y-73389342D02*
X183261905Y-73484580D01*
X183261905Y-73484580D02*
X183309524Y-73532200D01*
X183309524Y-73532200D02*
X183404762Y-73579819D01*
X183404762Y-73579819D02*
X183595238Y-73579819D01*
X183595238Y-73579819D02*
X183690476Y-73532200D01*
X183690476Y-73532200D02*
X183738095Y-73484580D01*
X183738095Y-73484580D02*
X183785714Y-73389342D01*
X183785714Y-73389342D02*
X183785714Y-73198866D01*
X183785714Y-73198866D02*
X183738095Y-73103628D01*
X183738095Y-73103628D02*
X183690476Y-73056009D01*
X183690476Y-73056009D02*
X183595238Y-73008390D01*
X177011905Y-65919104D02*
X177488095Y-65919104D01*
X176916667Y-66204819D02*
X177250000Y-65204819D01*
X177250000Y-65204819D02*
X177583333Y-66204819D01*
X175440476Y-73138152D02*
X175440476Y-73804819D01*
X175202381Y-72757200D02*
X174964286Y-73471485D01*
X174964286Y-73471485D02*
X175583333Y-73471485D01*
X183738095Y-80267319D02*
X183261905Y-80267319D01*
X183261905Y-80267319D02*
X183214286Y-80743509D01*
X183214286Y-80743509D02*
X183261905Y-80695890D01*
X183261905Y-80695890D02*
X183357143Y-80648271D01*
X183357143Y-80648271D02*
X183595238Y-80648271D01*
X183595238Y-80648271D02*
X183690476Y-80695890D01*
X183690476Y-80695890D02*
X183738095Y-80743509D01*
X183738095Y-80743509D02*
X183785714Y-80838747D01*
X183785714Y-80838747D02*
X183785714Y-81076842D01*
X183785714Y-81076842D02*
X183738095Y-81172080D01*
X183738095Y-81172080D02*
X183690476Y-81219700D01*
X183690476Y-81219700D02*
X183595238Y-81267319D01*
X183595238Y-81267319D02*
X183357143Y-81267319D01*
X183357143Y-81267319D02*
X183261905Y-81219700D01*
X183261905Y-81219700D02*
X183214286Y-81172080D01*
X175488095Y-75354819D02*
X175011905Y-75354819D01*
X175011905Y-75354819D02*
X174964286Y-75831009D01*
X174964286Y-75831009D02*
X175011905Y-75783390D01*
X175011905Y-75783390D02*
X175107143Y-75735771D01*
X175107143Y-75735771D02*
X175345238Y-75735771D01*
X175345238Y-75735771D02*
X175440476Y-75783390D01*
X175440476Y-75783390D02*
X175488095Y-75831009D01*
X175488095Y-75831009D02*
X175535714Y-75926247D01*
X175535714Y-75926247D02*
X175535714Y-76164342D01*
X175535714Y-76164342D02*
X175488095Y-76259580D01*
X175488095Y-76259580D02*
X175440476Y-76307200D01*
X175440476Y-76307200D02*
X175345238Y-76354819D01*
X175345238Y-76354819D02*
X175107143Y-76354819D01*
X175107143Y-76354819D02*
X175011905Y-76307200D01*
X175011905Y-76307200D02*
X174964286Y-76259580D01*
X141692380Y-122594819D02*
X141359047Y-122118628D01*
X141120952Y-122594819D02*
X141120952Y-121594819D01*
X141120952Y-121594819D02*
X141501904Y-121594819D01*
X141501904Y-121594819D02*
X141597142Y-121642438D01*
X141597142Y-121642438D02*
X141644761Y-121690057D01*
X141644761Y-121690057D02*
X141692380Y-121785295D01*
X141692380Y-121785295D02*
X141692380Y-121928152D01*
X141692380Y-121928152D02*
X141644761Y-122023390D01*
X141644761Y-122023390D02*
X141597142Y-122071009D01*
X141597142Y-122071009D02*
X141501904Y-122118628D01*
X141501904Y-122118628D02*
X141120952Y-122118628D01*
X142073333Y-122547200D02*
X142216190Y-122594819D01*
X142216190Y-122594819D02*
X142454285Y-122594819D01*
X142454285Y-122594819D02*
X142549523Y-122547200D01*
X142549523Y-122547200D02*
X142597142Y-122499580D01*
X142597142Y-122499580D02*
X142644761Y-122404342D01*
X142644761Y-122404342D02*
X142644761Y-122309104D01*
X142644761Y-122309104D02*
X142597142Y-122213866D01*
X142597142Y-122213866D02*
X142549523Y-122166247D01*
X142549523Y-122166247D02*
X142454285Y-122118628D01*
X142454285Y-122118628D02*
X142263809Y-122071009D01*
X142263809Y-122071009D02*
X142168571Y-122023390D01*
X142168571Y-122023390D02*
X142120952Y-121975771D01*
X142120952Y-121975771D02*
X142073333Y-121880533D01*
X142073333Y-121880533D02*
X142073333Y-121785295D01*
X142073333Y-121785295D02*
X142120952Y-121690057D01*
X142120952Y-121690057D02*
X142168571Y-121642438D01*
X142168571Y-121642438D02*
X142263809Y-121594819D01*
X142263809Y-121594819D02*
X142501904Y-121594819D01*
X142501904Y-121594819D02*
X142644761Y-121642438D01*
X142930476Y-121594819D02*
X143501904Y-121594819D01*
X143216190Y-122594819D02*
X143216190Y-121594819D01*
X132597143Y-97690057D02*
X132644762Y-97642438D01*
X132644762Y-97642438D02*
X132740000Y-97594819D01*
X132740000Y-97594819D02*
X132978095Y-97594819D01*
X132978095Y-97594819D02*
X133073333Y-97642438D01*
X133073333Y-97642438D02*
X133120952Y-97690057D01*
X133120952Y-97690057D02*
X133168571Y-97785295D01*
X133168571Y-97785295D02*
X133168571Y-97880533D01*
X133168571Y-97880533D02*
X133120952Y-98023390D01*
X133120952Y-98023390D02*
X132549524Y-98594819D01*
X132549524Y-98594819D02*
X133168571Y-98594819D01*
X133549524Y-97690057D02*
X133597143Y-97642438D01*
X133597143Y-97642438D02*
X133692381Y-97594819D01*
X133692381Y-97594819D02*
X133930476Y-97594819D01*
X133930476Y-97594819D02*
X134025714Y-97642438D01*
X134025714Y-97642438D02*
X134073333Y-97690057D01*
X134073333Y-97690057D02*
X134120952Y-97785295D01*
X134120952Y-97785295D02*
X134120952Y-97880533D01*
X134120952Y-97880533D02*
X134073333Y-98023390D01*
X134073333Y-98023390D02*
X133501905Y-98594819D01*
X133501905Y-98594819D02*
X134120952Y-98594819D01*
X134549524Y-98594819D02*
X134549524Y-97594819D01*
X134644762Y-98213866D02*
X134930476Y-98594819D01*
X134930476Y-97928152D02*
X134549524Y-98309104D01*
X135882857Y-98594819D02*
X135311429Y-98594819D01*
X135597143Y-98594819D02*
X135597143Y-97594819D01*
X135597143Y-97594819D02*
X135501905Y-97737676D01*
X135501905Y-97737676D02*
X135406667Y-97832914D01*
X135406667Y-97832914D02*
X135311429Y-97880533D01*
X183690476Y-83163152D02*
X183690476Y-83829819D01*
X183452381Y-82782200D02*
X183214286Y-83496485D01*
X183214286Y-83496485D02*
X183833333Y-83496485D01*
X183309524Y-71017319D02*
X183500000Y-71017319D01*
X183500000Y-71017319D02*
X183595238Y-70969700D01*
X183595238Y-70969700D02*
X183642857Y-70922080D01*
X183642857Y-70922080D02*
X183738095Y-70779223D01*
X183738095Y-70779223D02*
X183785714Y-70588747D01*
X183785714Y-70588747D02*
X183785714Y-70207795D01*
X183785714Y-70207795D02*
X183738095Y-70112557D01*
X183738095Y-70112557D02*
X183690476Y-70064938D01*
X183690476Y-70064938D02*
X183595238Y-70017319D01*
X183595238Y-70017319D02*
X183404762Y-70017319D01*
X183404762Y-70017319D02*
X183309524Y-70064938D01*
X183309524Y-70064938D02*
X183261905Y-70112557D01*
X183261905Y-70112557D02*
X183214286Y-70207795D01*
X183214286Y-70207795D02*
X183214286Y-70445890D01*
X183214286Y-70445890D02*
X183261905Y-70541128D01*
X183261905Y-70541128D02*
X183309524Y-70588747D01*
X183309524Y-70588747D02*
X183404762Y-70636366D01*
X183404762Y-70636366D02*
X183595238Y-70636366D01*
X183595238Y-70636366D02*
X183690476Y-70588747D01*
X183690476Y-70588747D02*
X183738095Y-70541128D01*
X183738095Y-70541128D02*
X183785714Y-70445890D01*
X176906666Y-82544819D02*
X176906666Y-83259104D01*
X176906666Y-83259104D02*
X176859047Y-83401961D01*
X176859047Y-83401961D02*
X176763809Y-83497200D01*
X176763809Y-83497200D02*
X176620952Y-83544819D01*
X176620952Y-83544819D02*
X176525714Y-83544819D01*
X177811428Y-82878152D02*
X177811428Y-83544819D01*
X177573333Y-82497200D02*
X177335238Y-83211485D01*
X177335238Y-83211485D02*
X177954285Y-83211485D01*
X146078095Y-98994819D02*
X146078095Y-99804342D01*
X146078095Y-99804342D02*
X146125714Y-99899580D01*
X146125714Y-99899580D02*
X146173333Y-99947200D01*
X146173333Y-99947200D02*
X146268571Y-99994819D01*
X146268571Y-99994819D02*
X146459047Y-99994819D01*
X146459047Y-99994819D02*
X146554285Y-99947200D01*
X146554285Y-99947200D02*
X146601904Y-99899580D01*
X146601904Y-99899580D02*
X146649523Y-99804342D01*
X146649523Y-99804342D02*
X146649523Y-98994819D01*
X147649523Y-99994819D02*
X147078095Y-99994819D01*
X147363809Y-99994819D02*
X147363809Y-98994819D01*
X147363809Y-98994819D02*
X147268571Y-99137676D01*
X147268571Y-99137676D02*
X147173333Y-99232914D01*
X147173333Y-99232914D02*
X147078095Y-99280533D01*
X143030000Y-89965119D02*
X143030000Y-90203214D01*
X142791905Y-90107976D02*
X143030000Y-90203214D01*
X143030000Y-90203214D02*
X143268095Y-90107976D01*
X142887143Y-90393690D02*
X143030000Y-90203214D01*
X143030000Y-90203214D02*
X143172857Y-90393690D01*
X143030000Y-89965119D02*
X143030000Y-90203214D01*
X142791905Y-90107976D02*
X143030000Y-90203214D01*
X143030000Y-90203214D02*
X143268095Y-90107976D01*
X142887143Y-90393690D02*
X143030000Y-90203214D01*
X143030000Y-90203214D02*
X143172857Y-90393690D01*
X140906667Y-113797200D02*
X141049524Y-113844819D01*
X141049524Y-113844819D02*
X141287619Y-113844819D01*
X141287619Y-113844819D02*
X141382857Y-113797200D01*
X141382857Y-113797200D02*
X141430476Y-113749580D01*
X141430476Y-113749580D02*
X141478095Y-113654342D01*
X141478095Y-113654342D02*
X141478095Y-113559104D01*
X141478095Y-113559104D02*
X141430476Y-113463866D01*
X141430476Y-113463866D02*
X141382857Y-113416247D01*
X141382857Y-113416247D02*
X141287619Y-113368628D01*
X141287619Y-113368628D02*
X141097143Y-113321009D01*
X141097143Y-113321009D02*
X141001905Y-113273390D01*
X141001905Y-113273390D02*
X140954286Y-113225771D01*
X140954286Y-113225771D02*
X140906667Y-113130533D01*
X140906667Y-113130533D02*
X140906667Y-113035295D01*
X140906667Y-113035295D02*
X140954286Y-112940057D01*
X140954286Y-112940057D02*
X141001905Y-112892438D01*
X141001905Y-112892438D02*
X141097143Y-112844819D01*
X141097143Y-112844819D02*
X141335238Y-112844819D01*
X141335238Y-112844819D02*
X141478095Y-112892438D01*
X141811429Y-112844819D02*
X142049524Y-113844819D01*
X142049524Y-113844819D02*
X142240000Y-113130533D01*
X142240000Y-113130533D02*
X142430476Y-113844819D01*
X142430476Y-113844819D02*
X142668572Y-112844819D01*
X143001905Y-112940057D02*
X143049524Y-112892438D01*
X143049524Y-112892438D02*
X143144762Y-112844819D01*
X143144762Y-112844819D02*
X143382857Y-112844819D01*
X143382857Y-112844819D02*
X143478095Y-112892438D01*
X143478095Y-112892438D02*
X143525714Y-112940057D01*
X143525714Y-112940057D02*
X143573333Y-113035295D01*
X143573333Y-113035295D02*
X143573333Y-113130533D01*
X143573333Y-113130533D02*
X143525714Y-113273390D01*
X143525714Y-113273390D02*
X142954286Y-113844819D01*
X142954286Y-113844819D02*
X143573333Y-113844819D01*
X180906666Y-90454819D02*
X180906666Y-91169104D01*
X180906666Y-91169104D02*
X180859047Y-91311961D01*
X180859047Y-91311961D02*
X180763809Y-91407200D01*
X180763809Y-91407200D02*
X180620952Y-91454819D01*
X180620952Y-91454819D02*
X180525714Y-91454819D01*
X181859047Y-90454819D02*
X181382857Y-90454819D01*
X181382857Y-90454819D02*
X181335238Y-90931009D01*
X181335238Y-90931009D02*
X181382857Y-90883390D01*
X181382857Y-90883390D02*
X181478095Y-90835771D01*
X181478095Y-90835771D02*
X181716190Y-90835771D01*
X181716190Y-90835771D02*
X181811428Y-90883390D01*
X181811428Y-90883390D02*
X181859047Y-90931009D01*
X181859047Y-90931009D02*
X181906666Y-91026247D01*
X181906666Y-91026247D02*
X181906666Y-91264342D01*
X181906666Y-91264342D02*
X181859047Y-91359580D01*
X181859047Y-91359580D02*
X181811428Y-91407200D01*
X181811428Y-91407200D02*
X181716190Y-91454819D01*
X181716190Y-91454819D02*
X181478095Y-91454819D01*
X181478095Y-91454819D02*
X181382857Y-91407200D01*
X181382857Y-91407200D02*
X181335238Y-91359580D01*
X134073333Y-92594819D02*
X133740000Y-92118628D01*
X133501905Y-92594819D02*
X133501905Y-91594819D01*
X133501905Y-91594819D02*
X133882857Y-91594819D01*
X133882857Y-91594819D02*
X133978095Y-91642438D01*
X133978095Y-91642438D02*
X134025714Y-91690057D01*
X134025714Y-91690057D02*
X134073333Y-91785295D01*
X134073333Y-91785295D02*
X134073333Y-91928152D01*
X134073333Y-91928152D02*
X134025714Y-92023390D01*
X134025714Y-92023390D02*
X133978095Y-92071009D01*
X133978095Y-92071009D02*
X133882857Y-92118628D01*
X133882857Y-92118628D02*
X133501905Y-92118628D01*
X135025714Y-92594819D02*
X134454286Y-92594819D01*
X134740000Y-92594819D02*
X134740000Y-91594819D01*
X134740000Y-91594819D02*
X134644762Y-91737676D01*
X134644762Y-91737676D02*
X134549524Y-91832914D01*
X134549524Y-91832914D02*
X134454286Y-91880533D01*
X134073333Y-96594819D02*
X133740000Y-96118628D01*
X133501905Y-96594819D02*
X133501905Y-95594819D01*
X133501905Y-95594819D02*
X133882857Y-95594819D01*
X133882857Y-95594819D02*
X133978095Y-95642438D01*
X133978095Y-95642438D02*
X134025714Y-95690057D01*
X134025714Y-95690057D02*
X134073333Y-95785295D01*
X134073333Y-95785295D02*
X134073333Y-95928152D01*
X134073333Y-95928152D02*
X134025714Y-96023390D01*
X134025714Y-96023390D02*
X133978095Y-96071009D01*
X133978095Y-96071009D02*
X133882857Y-96118628D01*
X133882857Y-96118628D02*
X133501905Y-96118628D01*
X134454286Y-95690057D02*
X134501905Y-95642438D01*
X134501905Y-95642438D02*
X134597143Y-95594819D01*
X134597143Y-95594819D02*
X134835238Y-95594819D01*
X134835238Y-95594819D02*
X134930476Y-95642438D01*
X134930476Y-95642438D02*
X134978095Y-95690057D01*
X134978095Y-95690057D02*
X135025714Y-95785295D01*
X135025714Y-95785295D02*
X135025714Y-95880533D01*
X135025714Y-95880533D02*
X134978095Y-96023390D01*
X134978095Y-96023390D02*
X134406667Y-96594819D01*
X134406667Y-96594819D02*
X135025714Y-96594819D01*
X156049580Y-74551554D02*
X156097200Y-74599173D01*
X156097200Y-74599173D02*
X156144819Y-74742030D01*
X156144819Y-74742030D02*
X156144819Y-74837268D01*
X156144819Y-74837268D02*
X156097200Y-74980125D01*
X156097200Y-74980125D02*
X156001961Y-75075363D01*
X156001961Y-75075363D02*
X155906723Y-75122982D01*
X155906723Y-75122982D02*
X155716247Y-75170601D01*
X155716247Y-75170601D02*
X155573390Y-75170601D01*
X155573390Y-75170601D02*
X155382914Y-75122982D01*
X155382914Y-75122982D02*
X155287676Y-75075363D01*
X155287676Y-75075363D02*
X155192438Y-74980125D01*
X155192438Y-74980125D02*
X155144819Y-74837268D01*
X155144819Y-74837268D02*
X155144819Y-74742030D01*
X155144819Y-74742030D02*
X155192438Y-74599173D01*
X155192438Y-74599173D02*
X155240057Y-74551554D01*
X155240057Y-74170601D02*
X155192438Y-74122982D01*
X155192438Y-74122982D02*
X155144819Y-74027744D01*
X155144819Y-74027744D02*
X155144819Y-73789649D01*
X155144819Y-73789649D02*
X155192438Y-73694411D01*
X155192438Y-73694411D02*
X155240057Y-73646792D01*
X155240057Y-73646792D02*
X155335295Y-73599173D01*
X155335295Y-73599173D02*
X155430533Y-73599173D01*
X155430533Y-73599173D02*
X155573390Y-73646792D01*
X155573390Y-73646792D02*
X156144819Y-74218220D01*
X156144819Y-74218220D02*
X156144819Y-73599173D01*
X131944819Y-72178094D02*
X130944819Y-72178094D01*
X130944819Y-72178094D02*
X130944819Y-71939999D01*
X130944819Y-71939999D02*
X130992438Y-71797142D01*
X130992438Y-71797142D02*
X131087676Y-71701904D01*
X131087676Y-71701904D02*
X131182914Y-71654285D01*
X131182914Y-71654285D02*
X131373390Y-71606666D01*
X131373390Y-71606666D02*
X131516247Y-71606666D01*
X131516247Y-71606666D02*
X131706723Y-71654285D01*
X131706723Y-71654285D02*
X131801961Y-71701904D01*
X131801961Y-71701904D02*
X131897200Y-71797142D01*
X131897200Y-71797142D02*
X131944819Y-71939999D01*
X131944819Y-71939999D02*
X131944819Y-72178094D01*
X130944819Y-71273332D02*
X130944819Y-70654285D01*
X130944819Y-70654285D02*
X131325771Y-70987618D01*
X131325771Y-70987618D02*
X131325771Y-70844761D01*
X131325771Y-70844761D02*
X131373390Y-70749523D01*
X131373390Y-70749523D02*
X131421009Y-70701904D01*
X131421009Y-70701904D02*
X131516247Y-70654285D01*
X131516247Y-70654285D02*
X131754342Y-70654285D01*
X131754342Y-70654285D02*
X131849580Y-70701904D01*
X131849580Y-70701904D02*
X131897200Y-70749523D01*
X131897200Y-70749523D02*
X131944819Y-70844761D01*
X131944819Y-70844761D02*
X131944819Y-71130475D01*
X131944819Y-71130475D02*
X131897200Y-71225713D01*
X131897200Y-71225713D02*
X131849580Y-71273332D01*
X131894819Y-67891904D02*
X130894819Y-67891904D01*
X131894819Y-67320476D02*
X131323390Y-67749047D01*
X130894819Y-67320476D02*
X131466247Y-67891904D01*
D11*
X177127419Y-115949523D02*
X176127419Y-115949523D01*
X176127419Y-115949523D02*
X176841704Y-115616190D01*
X176841704Y-115616190D02*
X176127419Y-115282857D01*
X176127419Y-115282857D02*
X177127419Y-115282857D01*
X177127419Y-114282857D02*
X177127419Y-114854285D01*
X177127419Y-114568571D02*
X176127419Y-114568571D01*
X176127419Y-114568571D02*
X176270276Y-114663809D01*
X176270276Y-114663809D02*
X176365514Y-114759047D01*
X176365514Y-114759047D02*
X176413133Y-114854285D01*
G36*
X164276961Y-119692893D02*
G01*
X164325441Y-119697704D01*
X164366586Y-119711431D01*
X164401899Y-119733752D01*
X164432345Y-119765341D01*
X164455628Y-119802582D01*
X164472986Y-119846660D01*
X164484047Y-119898842D01*
X164487987Y-119960659D01*
X164485538Y-120022382D01*
X164478553Y-120077209D01*
X164466717Y-120128171D01*
X164452312Y-120166465D01*
X164362003Y-120166465D01*
X164377351Y-120126110D01*
X164392457Y-120072492D01*
X164402664Y-120015625D01*
X164406104Y-119956446D01*
X164401856Y-119901185D01*
X164390525Y-119860106D01*
X164373544Y-119829959D01*
X164349236Y-119806298D01*
X164320340Y-119792282D01*
X164285341Y-119787415D01*
X164250668Y-119791568D01*
X164223426Y-119803169D01*
X164200321Y-119823195D01*
X164176669Y-119857253D01*
X164155943Y-119899675D01*
X164131010Y-119963819D01*
X164104369Y-120025853D01*
X164075915Y-120073099D01*
X164045968Y-120108167D01*
X164019430Y-120128926D01*
X163988297Y-120144083D01*
X163951677Y-120153612D01*
X163908398Y-120156985D01*
X163869478Y-120153421D01*
X163835691Y-120143190D01*
X163806045Y-120126531D01*
X163780243Y-120104029D01*
X163758405Y-120076119D01*
X163740420Y-120042038D01*
X163727865Y-120005298D01*
X163720027Y-119964059D01*
X163717294Y-119917612D01*
X163720311Y-119857111D01*
X163728880Y-119804222D01*
X163742516Y-119754309D01*
X163759288Y-119710753D01*
X163840163Y-119740154D01*
X163824867Y-119780127D01*
X163811816Y-119824692D01*
X163803159Y-119871009D01*
X163800229Y-119919718D01*
X163804090Y-119965768D01*
X163814455Y-120000231D01*
X163830180Y-120025781D01*
X163852204Y-120045551D01*
X163878204Y-120057352D01*
X163909452Y-120061455D01*
X163945054Y-120057273D01*
X163972466Y-120045702D01*
X163995413Y-120026023D01*
X164017621Y-119994273D01*
X164037079Y-119955078D01*
X164060669Y-119897645D01*
X164086677Y-119834606D01*
X164112646Y-119785858D01*
X164133021Y-119757100D01*
X164155218Y-119734219D01*
X164179325Y-119716523D01*
X164206195Y-119703830D01*
X164238360Y-119695769D01*
X164276961Y-119692893D01*
G37*
G36*
X164477500Y-119304913D02*
G01*
X164477500Y-119399435D01*
X163810762Y-119399435D01*
X163810762Y-119633588D01*
X163727781Y-119633588D01*
X163727781Y-119071814D01*
X163810762Y-119071814D01*
X163810762Y-119304913D01*
X164477500Y-119304913D01*
G37*
G36*
X164314155Y-118439738D02*
G01*
X164356036Y-118453102D01*
X164391586Y-118474653D01*
X164421858Y-118504865D01*
X164445122Y-118540840D01*
X164462474Y-118583676D01*
X164473548Y-118634674D01*
X164477500Y-118695420D01*
X164477500Y-118958974D01*
X163727781Y-118958974D01*
X163727781Y-118744788D01*
X163727966Y-118740575D01*
X163808656Y-118740575D01*
X163808656Y-118864452D01*
X164047021Y-118864452D01*
X164047021Y-118725874D01*
X164046659Y-118720608D01*
X164125744Y-118720608D01*
X164125744Y-118864452D01*
X164397678Y-118864452D01*
X164397678Y-118713281D01*
X164394575Y-118661762D01*
X164386336Y-118623264D01*
X164374203Y-118595001D01*
X164358843Y-118574703D01*
X164330822Y-118553412D01*
X164297392Y-118540401D01*
X164256994Y-118535823D01*
X164219601Y-118540502D01*
X164188416Y-118553925D01*
X164161968Y-118576260D01*
X164147810Y-118597056D01*
X164136462Y-118626324D01*
X164128686Y-118666523D01*
X164125744Y-118720608D01*
X164046659Y-118720608D01*
X164042603Y-118661585D01*
X164031513Y-118619644D01*
X164016064Y-118593571D01*
X163993093Y-118574328D01*
X163963179Y-118562240D01*
X163924152Y-118557851D01*
X163893889Y-118560890D01*
X163869834Y-118569331D01*
X163850631Y-118582734D01*
X163835446Y-118601448D01*
X163821883Y-118631964D01*
X163812350Y-118676785D01*
X163808656Y-118740575D01*
X163727966Y-118740575D01*
X163730974Y-118672002D01*
X163739663Y-118613880D01*
X163752706Y-118567984D01*
X163769272Y-118532159D01*
X163793125Y-118501382D01*
X163823989Y-118479282D01*
X163863353Y-118465286D01*
X163913665Y-118460215D01*
X163956407Y-118464547D01*
X163992522Y-118476896D01*
X164023391Y-118496988D01*
X164048279Y-118524088D01*
X164067072Y-118558849D01*
X164079536Y-118603005D01*
X164084803Y-118603005D01*
X164095458Y-118557485D01*
X164112097Y-118517459D01*
X164136294Y-118483173D01*
X164168838Y-118457100D01*
X164194264Y-118445351D01*
X164225658Y-118437769D01*
X164264367Y-118435027D01*
X164314155Y-118439738D01*
G37*
G36*
X164096343Y-118081485D02*
G01*
X163727781Y-117886213D01*
X163727781Y-117784364D01*
X164186652Y-118034270D01*
X164477500Y-118034270D01*
X164477500Y-118128746D01*
X164190865Y-118128746D01*
X163727781Y-118378653D01*
X163727781Y-118275750D01*
X164096343Y-118081485D01*
G37*
G36*
X166854155Y-111541113D02*
G01*
X166896036Y-111554476D01*
X166931586Y-111576027D01*
X166961858Y-111606240D01*
X166985122Y-111642215D01*
X167002474Y-111685050D01*
X167013548Y-111736049D01*
X167017500Y-111796795D01*
X167017500Y-112060348D01*
X166267781Y-112060348D01*
X166267781Y-111846163D01*
X166267966Y-111841949D01*
X166348656Y-111841949D01*
X166348656Y-111965826D01*
X166587021Y-111965826D01*
X166587021Y-111827249D01*
X166586659Y-111821982D01*
X166665744Y-111821982D01*
X166665744Y-111965826D01*
X166937678Y-111965826D01*
X166937678Y-111814655D01*
X166934575Y-111763136D01*
X166926336Y-111724638D01*
X166914203Y-111696375D01*
X166898843Y-111676078D01*
X166870822Y-111654786D01*
X166837392Y-111641775D01*
X166796994Y-111637198D01*
X166759601Y-111641877D01*
X166728416Y-111655300D01*
X166701968Y-111677635D01*
X166687810Y-111698431D01*
X166676462Y-111727698D01*
X166668686Y-111767897D01*
X166665744Y-111821982D01*
X166586659Y-111821982D01*
X166582603Y-111762960D01*
X166571513Y-111721019D01*
X166556064Y-111694946D01*
X166533093Y-111675702D01*
X166503179Y-111663614D01*
X166464152Y-111659225D01*
X166433889Y-111662264D01*
X166409834Y-111670706D01*
X166390631Y-111684108D01*
X166375446Y-111702823D01*
X166361883Y-111733339D01*
X166352350Y-111778160D01*
X166348656Y-111841949D01*
X166267966Y-111841949D01*
X166270974Y-111773376D01*
X166279663Y-111715255D01*
X166292706Y-111669359D01*
X166309272Y-111633534D01*
X166333125Y-111602756D01*
X166363989Y-111580657D01*
X166403353Y-111566660D01*
X166453665Y-111561589D01*
X166496407Y-111565922D01*
X166532522Y-111578271D01*
X166563391Y-111598363D01*
X166588279Y-111625463D01*
X166607072Y-111660223D01*
X166619536Y-111704380D01*
X166624803Y-111704380D01*
X166635458Y-111658860D01*
X166652097Y-111618833D01*
X166676294Y-111584548D01*
X166708838Y-111558475D01*
X166734264Y-111546725D01*
X166765658Y-111539144D01*
X166804367Y-111536402D01*
X166854155Y-111541113D01*
G37*
G36*
X166718526Y-110728730D02*
G01*
X166785796Y-110742109D01*
X166844805Y-110763419D01*
X166886258Y-110785767D01*
X166922239Y-110812438D01*
X166953279Y-110843549D01*
X166979718Y-110879419D01*
X167000151Y-110918434D01*
X167015221Y-110962558D01*
X167024675Y-111012590D01*
X167027987Y-111069470D01*
X167024647Y-111128062D01*
X167015147Y-111179229D01*
X167000069Y-111223994D01*
X166979718Y-111263231D01*
X166953202Y-111299274D01*
X166922053Y-111330246D01*
X166885923Y-111356505D01*
X166844255Y-111378178D01*
X166785007Y-111398612D01*
X166717551Y-111411453D01*
X166640556Y-111415959D01*
X166564274Y-111411451D01*
X166497523Y-111398609D01*
X166438965Y-111378178D01*
X166397839Y-111356552D01*
X166362045Y-111330320D01*
X166331058Y-111299335D01*
X166304555Y-111263231D01*
X166284216Y-111224008D01*
X166269122Y-111179096D01*
X166259594Y-111127585D01*
X166256240Y-111068417D01*
X166339222Y-111068417D01*
X166342884Y-111119645D01*
X166353185Y-111162787D01*
X166369439Y-111199207D01*
X166391456Y-111229987D01*
X166419547Y-111255858D01*
X166460660Y-111280886D01*
X166510237Y-111299738D01*
X166569905Y-111311865D01*
X166641610Y-111316217D01*
X166713278Y-111311914D01*
X166773152Y-111299903D01*
X166823109Y-111281205D01*
X166864726Y-111256362D01*
X166893226Y-111230623D01*
X166915529Y-111199965D01*
X166931979Y-111163662D01*
X166942399Y-111120625D01*
X166946104Y-111069470D01*
X166942374Y-111017801D01*
X166931910Y-110974565D01*
X166915435Y-110938315D01*
X166893152Y-110907907D01*
X166864726Y-110882579D01*
X166823176Y-110858204D01*
X166773243Y-110839829D01*
X166713345Y-110828013D01*
X166641610Y-110823777D01*
X166569803Y-110828029D01*
X166510100Y-110839869D01*
X166460560Y-110858244D01*
X166419547Y-110882579D01*
X166391495Y-110907860D01*
X166369496Y-110938154D01*
X166353230Y-110974214D01*
X166342902Y-111017162D01*
X166339222Y-111068417D01*
X166256240Y-111068417D01*
X166259512Y-111012089D01*
X166268863Y-110962393D01*
X166283790Y-110918426D01*
X166304051Y-110879419D01*
X166330237Y-110843569D01*
X166361100Y-110812465D01*
X166396992Y-110785786D01*
X166438461Y-110763419D01*
X166497440Y-110742110D01*
X166564693Y-110728730D01*
X166641610Y-110724035D01*
X166718526Y-110728730D01*
G37*
G36*
X167017500Y-110114084D02*
G01*
X167017500Y-110609683D01*
X166940838Y-110609683D01*
X166742406Y-110413358D01*
X166641610Y-110317828D01*
X166596648Y-110282835D01*
X166555010Y-110259027D01*
X166510897Y-110244138D01*
X166462045Y-110239060D01*
X166422369Y-110243558D01*
X166391760Y-110255984D01*
X166368073Y-110275834D01*
X166350681Y-110301970D01*
X166339887Y-110333348D01*
X166336062Y-110371363D01*
X166341006Y-110423759D01*
X166354976Y-110467442D01*
X166376918Y-110508299D01*
X166407457Y-110551935D01*
X166345496Y-110601303D01*
X166311855Y-110554477D01*
X166283031Y-110500003D01*
X166268957Y-110461076D01*
X166260286Y-110418404D01*
X166257294Y-110371363D01*
X166261012Y-110318847D01*
X166271471Y-110274563D01*
X166287977Y-110237130D01*
X166310325Y-110205446D01*
X166338834Y-110179185D01*
X166372054Y-110160354D01*
X166410923Y-110148657D01*
X166456779Y-110144538D01*
X166495434Y-110147263D01*
X166532057Y-110155324D01*
X166567055Y-110168718D01*
X166617158Y-110196955D01*
X166668400Y-110235900D01*
X166718563Y-110281286D01*
X166774966Y-110336696D01*
X166929297Y-110493133D01*
X166933510Y-110493133D01*
X166933510Y-110114084D01*
X167017500Y-110114084D01*
G37*
G36*
X166854155Y-119598915D02*
G01*
X166896036Y-119612278D01*
X166931586Y-119633829D01*
X166961858Y-119664042D01*
X166985122Y-119700017D01*
X167002474Y-119742852D01*
X167013548Y-119793851D01*
X167017500Y-119854597D01*
X167017500Y-120118150D01*
X166267781Y-120118150D01*
X166267781Y-119903965D01*
X166267966Y-119899751D01*
X166348656Y-119899751D01*
X166348656Y-120023628D01*
X166587021Y-120023628D01*
X166587021Y-119885051D01*
X166586659Y-119879784D01*
X166665744Y-119879784D01*
X166665744Y-120023628D01*
X166937678Y-120023628D01*
X166937678Y-119872457D01*
X166934575Y-119820938D01*
X166926336Y-119782440D01*
X166914203Y-119754177D01*
X166898843Y-119733880D01*
X166870822Y-119712588D01*
X166837392Y-119699577D01*
X166796994Y-119695000D01*
X166759601Y-119699679D01*
X166728416Y-119713102D01*
X166701968Y-119735437D01*
X166687810Y-119756233D01*
X166676462Y-119785500D01*
X166668686Y-119825699D01*
X166665744Y-119879784D01*
X166586659Y-119879784D01*
X166582603Y-119820762D01*
X166571513Y-119778821D01*
X166556064Y-119752748D01*
X166533093Y-119733504D01*
X166503179Y-119721416D01*
X166464152Y-119717027D01*
X166433889Y-119720066D01*
X166409834Y-119728508D01*
X166390631Y-119741910D01*
X166375446Y-119760625D01*
X166361883Y-119791141D01*
X166352350Y-119835962D01*
X166348656Y-119899751D01*
X166267966Y-119899751D01*
X166270974Y-119831178D01*
X166279663Y-119773057D01*
X166292706Y-119727161D01*
X166309272Y-119691336D01*
X166333125Y-119660558D01*
X166363989Y-119638459D01*
X166403353Y-119624462D01*
X166453665Y-119619391D01*
X166496407Y-119623724D01*
X166532522Y-119636073D01*
X166563391Y-119656165D01*
X166588279Y-119683265D01*
X166607072Y-119718025D01*
X166619536Y-119762182D01*
X166624803Y-119762182D01*
X166635458Y-119716662D01*
X166652097Y-119676635D01*
X166676294Y-119642350D01*
X166708838Y-119616277D01*
X166734264Y-119604527D01*
X166765658Y-119596946D01*
X166804367Y-119594204D01*
X166854155Y-119598915D01*
G37*
G36*
X167017500Y-119224908D02*
G01*
X167017500Y-119495835D01*
X166962911Y-119495835D01*
X166942944Y-119407633D01*
X166343389Y-119407633D01*
X166322415Y-119495835D01*
X166267781Y-119495835D01*
X166267781Y-119224908D01*
X166322415Y-119224908D01*
X166343389Y-119313111D01*
X166942944Y-119313111D01*
X166962911Y-119224908D01*
X167017500Y-119224908D01*
G37*
G36*
X167017500Y-118486318D02*
G01*
X167017500Y-118596548D01*
X166394863Y-118997671D01*
X166394863Y-119001838D01*
X166486226Y-118996618D01*
X166598562Y-118993458D01*
X167017500Y-118993458D01*
X167017500Y-119080607D01*
X166267781Y-119080607D01*
X166267781Y-118971384D01*
X166888356Y-118571360D01*
X166888356Y-118567147D01*
X166837981Y-118569803D01*
X166764479Y-118572963D01*
X166690932Y-118574520D01*
X166267781Y-118574520D01*
X166267781Y-118486318D01*
X167017500Y-118486318D01*
G37*
G36*
X167017500Y-118011785D02*
G01*
X167017500Y-118102048D01*
X166493553Y-118102048D01*
X166421104Y-118101040D01*
X166364409Y-118097880D01*
X166392757Y-118128334D01*
X166422158Y-118162956D01*
X166487233Y-118242777D01*
X166425317Y-118291046D01*
X166267781Y-118088401D01*
X166267781Y-118011785D01*
X167017500Y-118011785D01*
G37*
G36*
X161937500Y-119647739D02*
G01*
X161705454Y-119738047D01*
X161705454Y-120035215D01*
X161937500Y-120124470D01*
X161937500Y-120220000D01*
X161184667Y-119927045D01*
X161184667Y-119886104D01*
X161282303Y-119886104D01*
X161345821Y-119902911D01*
X161394639Y-119918665D01*
X161621465Y-120003707D01*
X161621465Y-119766395D01*
X161394639Y-119850384D01*
X161364231Y-119860917D01*
X161318527Y-119875068D01*
X161282303Y-119886104D01*
X161184667Y-119886104D01*
X161184667Y-119842003D01*
X161937500Y-119550102D01*
X161937500Y-119647739D01*
G37*
G36*
X161937500Y-119236632D02*
G01*
X161937500Y-119507558D01*
X161882911Y-119507558D01*
X161862944Y-119419356D01*
X161263389Y-119419356D01*
X161242415Y-119507558D01*
X161187781Y-119507558D01*
X161187781Y-119236632D01*
X161242415Y-119236632D01*
X161263389Y-119324834D01*
X161862944Y-119324834D01*
X161882911Y-119236632D01*
X161937500Y-119236632D01*
G37*
G36*
X161937500Y-118498042D02*
G01*
X161937500Y-118608271D01*
X161314863Y-119009395D01*
X161314863Y-119013562D01*
X161406226Y-119008341D01*
X161518562Y-119005181D01*
X161937500Y-119005181D01*
X161937500Y-119092330D01*
X161187781Y-119092330D01*
X161187781Y-118983108D01*
X161808356Y-118583084D01*
X161808356Y-118578871D01*
X161757981Y-118581527D01*
X161684479Y-118584687D01*
X161610932Y-118586244D01*
X161187781Y-118586244D01*
X161187781Y-118498042D01*
X161937500Y-118498042D01*
G37*
G36*
X161937500Y-118023508D02*
G01*
X161937500Y-118113771D01*
X161413553Y-118113771D01*
X161341104Y-118112764D01*
X161284409Y-118109604D01*
X161312757Y-118140058D01*
X161342158Y-118174679D01*
X161407233Y-118254501D01*
X161345317Y-118302769D01*
X161187781Y-118100124D01*
X161187781Y-118023508D01*
X161937500Y-118023508D01*
G37*
G36*
X164477500Y-111557697D02*
G01*
X164245454Y-111648005D01*
X164245454Y-111945173D01*
X164477500Y-112034428D01*
X164477500Y-112129958D01*
X163724667Y-111837003D01*
X163724667Y-111796062D01*
X163822303Y-111796062D01*
X163885821Y-111812869D01*
X163934639Y-111828623D01*
X164161465Y-111913665D01*
X164161465Y-111676353D01*
X163934639Y-111760342D01*
X163904231Y-111770875D01*
X163858527Y-111785026D01*
X163822303Y-111796062D01*
X163724667Y-111796062D01*
X163724667Y-111751961D01*
X164477500Y-111460060D01*
X164477500Y-111557697D01*
G37*
G36*
X164178526Y-110728730D02*
G01*
X164245796Y-110742109D01*
X164304805Y-110763419D01*
X164346258Y-110785767D01*
X164382239Y-110812438D01*
X164413279Y-110843549D01*
X164439718Y-110879419D01*
X164460151Y-110918434D01*
X164475221Y-110962558D01*
X164484675Y-111012590D01*
X164487987Y-111069470D01*
X164484647Y-111128062D01*
X164475147Y-111179229D01*
X164460069Y-111223994D01*
X164439718Y-111263231D01*
X164413202Y-111299274D01*
X164382053Y-111330246D01*
X164345923Y-111356505D01*
X164304255Y-111378178D01*
X164245007Y-111398612D01*
X164177551Y-111411453D01*
X164100556Y-111415959D01*
X164024274Y-111411451D01*
X163957523Y-111398609D01*
X163898965Y-111378178D01*
X163857839Y-111356552D01*
X163822045Y-111330320D01*
X163791058Y-111299335D01*
X163764555Y-111263231D01*
X163744216Y-111224008D01*
X163729122Y-111179096D01*
X163719594Y-111127585D01*
X163716240Y-111068417D01*
X163799222Y-111068417D01*
X163802884Y-111119645D01*
X163813185Y-111162787D01*
X163829439Y-111199207D01*
X163851456Y-111229987D01*
X163879547Y-111255858D01*
X163920660Y-111280886D01*
X163970237Y-111299738D01*
X164029905Y-111311865D01*
X164101610Y-111316217D01*
X164173278Y-111311914D01*
X164233152Y-111299903D01*
X164283109Y-111281205D01*
X164324726Y-111256362D01*
X164353226Y-111230623D01*
X164375529Y-111199965D01*
X164391979Y-111163663D01*
X164402399Y-111120625D01*
X164406104Y-111069470D01*
X164402374Y-111017801D01*
X164391910Y-110974565D01*
X164375435Y-110938315D01*
X164353152Y-110907907D01*
X164324726Y-110882579D01*
X164283176Y-110858204D01*
X164233243Y-110839829D01*
X164173345Y-110828013D01*
X164101610Y-110823777D01*
X164029803Y-110828029D01*
X163970100Y-110839869D01*
X163920560Y-110858244D01*
X163879547Y-110882579D01*
X163851495Y-110907860D01*
X163829496Y-110938154D01*
X163813230Y-110974214D01*
X163802902Y-111017162D01*
X163799222Y-111068417D01*
X163716240Y-111068417D01*
X163719512Y-111012089D01*
X163728863Y-110962393D01*
X163743790Y-110918426D01*
X163764051Y-110879419D01*
X163790237Y-110843569D01*
X163821100Y-110812465D01*
X163856992Y-110785786D01*
X163898461Y-110763419D01*
X163957440Y-110742110D01*
X164024693Y-110728730D01*
X164101610Y-110724035D01*
X164178526Y-110728730D01*
G37*
G36*
X164477500Y-110114084D02*
G01*
X164477500Y-110609683D01*
X164400838Y-110609683D01*
X164202406Y-110413358D01*
X164101610Y-110317828D01*
X164056648Y-110282835D01*
X164015010Y-110259027D01*
X163970897Y-110244138D01*
X163922045Y-110239060D01*
X163882369Y-110243558D01*
X163851760Y-110255984D01*
X163828073Y-110275834D01*
X163810681Y-110301970D01*
X163799887Y-110333348D01*
X163796062Y-110371363D01*
X163801006Y-110423759D01*
X163814976Y-110467442D01*
X163836918Y-110508299D01*
X163867457Y-110551935D01*
X163805496Y-110601303D01*
X163771855Y-110554477D01*
X163743031Y-110500003D01*
X163728957Y-110461076D01*
X163720286Y-110418404D01*
X163717294Y-110371363D01*
X163721012Y-110318847D01*
X163731471Y-110274563D01*
X163747977Y-110237130D01*
X163770325Y-110205446D01*
X163798834Y-110179185D01*
X163832054Y-110160354D01*
X163870923Y-110148657D01*
X163916779Y-110144538D01*
X163955434Y-110147263D01*
X163992057Y-110155324D01*
X164027055Y-110168718D01*
X164077158Y-110196955D01*
X164128400Y-110235900D01*
X164178563Y-110281287D01*
X164234966Y-110336696D01*
X164389297Y-110493134D01*
X164393510Y-110493134D01*
X164393510Y-110114084D01*
X164477500Y-110114084D01*
G37*
G36*
X169394155Y-111541113D02*
G01*
X169436036Y-111554476D01*
X169471586Y-111576027D01*
X169501858Y-111606240D01*
X169525122Y-111642215D01*
X169542474Y-111685050D01*
X169553548Y-111736049D01*
X169557500Y-111796795D01*
X169557500Y-112060348D01*
X168807781Y-112060348D01*
X168807781Y-111846163D01*
X168807966Y-111841949D01*
X168888656Y-111841949D01*
X168888656Y-111965826D01*
X169127021Y-111965826D01*
X169127021Y-111827249D01*
X169126659Y-111821982D01*
X169205744Y-111821982D01*
X169205744Y-111965826D01*
X169477678Y-111965826D01*
X169477678Y-111814655D01*
X169474575Y-111763136D01*
X169466336Y-111724638D01*
X169454203Y-111696375D01*
X169438843Y-111676078D01*
X169410822Y-111654786D01*
X169377392Y-111641775D01*
X169336994Y-111637198D01*
X169299601Y-111641877D01*
X169268416Y-111655300D01*
X169241968Y-111677635D01*
X169227810Y-111698431D01*
X169216462Y-111727698D01*
X169208686Y-111767897D01*
X169205744Y-111821982D01*
X169126659Y-111821982D01*
X169122603Y-111762960D01*
X169111513Y-111721019D01*
X169096064Y-111694946D01*
X169073093Y-111675702D01*
X169043179Y-111663614D01*
X169004152Y-111659225D01*
X168973889Y-111662264D01*
X168949834Y-111670706D01*
X168930631Y-111684108D01*
X168915446Y-111702823D01*
X168901883Y-111733339D01*
X168892350Y-111778160D01*
X168888656Y-111841949D01*
X168807966Y-111841949D01*
X168810974Y-111773376D01*
X168819663Y-111715255D01*
X168832706Y-111669359D01*
X168849272Y-111633534D01*
X168873125Y-111602756D01*
X168903989Y-111580657D01*
X168943353Y-111566660D01*
X168993665Y-111561589D01*
X169036407Y-111565922D01*
X169072522Y-111578271D01*
X169103391Y-111598363D01*
X169128279Y-111625463D01*
X169147072Y-111660223D01*
X169159536Y-111704380D01*
X169164803Y-111704380D01*
X169175458Y-111658860D01*
X169192097Y-111618833D01*
X169216294Y-111584548D01*
X169248838Y-111558475D01*
X169274264Y-111546725D01*
X169305658Y-111539144D01*
X169344367Y-111536402D01*
X169394155Y-111541113D01*
G37*
G36*
X169258526Y-110728730D02*
G01*
X169325796Y-110742109D01*
X169384805Y-110763419D01*
X169426258Y-110785767D01*
X169462239Y-110812438D01*
X169493279Y-110843549D01*
X169519718Y-110879419D01*
X169540151Y-110918434D01*
X169555221Y-110962558D01*
X169564675Y-111012590D01*
X169567987Y-111069470D01*
X169564647Y-111128062D01*
X169555147Y-111179229D01*
X169540069Y-111223994D01*
X169519718Y-111263231D01*
X169493202Y-111299274D01*
X169462053Y-111330246D01*
X169425923Y-111356505D01*
X169384255Y-111378178D01*
X169325007Y-111398612D01*
X169257551Y-111411453D01*
X169180556Y-111415959D01*
X169104274Y-111411451D01*
X169037523Y-111398609D01*
X168978965Y-111378178D01*
X168937839Y-111356552D01*
X168902045Y-111330320D01*
X168871058Y-111299335D01*
X168844555Y-111263231D01*
X168824216Y-111224008D01*
X168809122Y-111179096D01*
X168799594Y-111127585D01*
X168796240Y-111068417D01*
X168879222Y-111068417D01*
X168882884Y-111119645D01*
X168893185Y-111162787D01*
X168909439Y-111199207D01*
X168931456Y-111229987D01*
X168959547Y-111255858D01*
X169000660Y-111280886D01*
X169050237Y-111299738D01*
X169109905Y-111311865D01*
X169181610Y-111316217D01*
X169253278Y-111311914D01*
X169313152Y-111299903D01*
X169363109Y-111281205D01*
X169404726Y-111256362D01*
X169433226Y-111230623D01*
X169455529Y-111199965D01*
X169471979Y-111163662D01*
X169482399Y-111120625D01*
X169486104Y-111069470D01*
X169482374Y-111017801D01*
X169471910Y-110974565D01*
X169455435Y-110938315D01*
X169433152Y-110907907D01*
X169404726Y-110882579D01*
X169363176Y-110858204D01*
X169313243Y-110839829D01*
X169253345Y-110828013D01*
X169181610Y-110823777D01*
X169109803Y-110828029D01*
X169050100Y-110839869D01*
X169000560Y-110858244D01*
X168959547Y-110882579D01*
X168931495Y-110907860D01*
X168909496Y-110938154D01*
X168893230Y-110974214D01*
X168882902Y-111017162D01*
X168879222Y-111068417D01*
X168796240Y-111068417D01*
X168799512Y-111012089D01*
X168808863Y-110962393D01*
X168823790Y-110918426D01*
X168844051Y-110879419D01*
X168870237Y-110843569D01*
X168901100Y-110812465D01*
X168936992Y-110785786D01*
X168978461Y-110763419D01*
X169037440Y-110742110D01*
X169104693Y-110728730D01*
X169181610Y-110724035D01*
X169258526Y-110728730D01*
G37*
G36*
X169557500Y-110287374D02*
G01*
X169557500Y-110377637D01*
X169033553Y-110377637D01*
X168961104Y-110376630D01*
X168904409Y-110373470D01*
X168932757Y-110403924D01*
X168962158Y-110438545D01*
X169027233Y-110518367D01*
X168965317Y-110566635D01*
X168807781Y-110363990D01*
X168807781Y-110287374D01*
X169557500Y-110287374D01*
G37*
G36*
X158647781Y-111354135D02*
G01*
X159397500Y-111621902D01*
X159397500Y-111716378D01*
X158647781Y-111984145D01*
X158647781Y-111885455D01*
X159128680Y-111716378D01*
X159215325Y-111688076D01*
X159292490Y-111669163D01*
X159214821Y-111650249D01*
X159126619Y-111621902D01*
X158647781Y-111453878D01*
X158647781Y-111354135D01*
G37*
G36*
X158720229Y-110941838D02*
G01*
X158725660Y-111000966D01*
X158741123Y-111051302D01*
X158766109Y-111094552D01*
X158801104Y-111131890D01*
X158843067Y-111160999D01*
X158892908Y-111182576D01*
X158952144Y-111196292D01*
X159022663Y-111201178D01*
X159092862Y-111196604D01*
X159151952Y-111183772D01*
X159201731Y-111163636D01*
X159243672Y-111136607D01*
X159272207Y-111109096D01*
X159294547Y-111076822D01*
X159310994Y-111039085D01*
X159321375Y-110994866D01*
X159325051Y-110942891D01*
X159322906Y-110894288D01*
X159316670Y-110849423D01*
X159295650Y-110763327D01*
X159377533Y-110763327D01*
X159391168Y-110805940D01*
X159400614Y-110849972D01*
X159405988Y-110896719D01*
X159407987Y-110956539D01*
X159404729Y-111014050D01*
X159395450Y-111064450D01*
X159380701Y-111108704D01*
X159360771Y-111147643D01*
X159334784Y-111183419D01*
X159304004Y-111214323D01*
X159268059Y-111240692D01*
X159226362Y-111262636D01*
X159167080Y-111283322D01*
X159099296Y-111296344D01*
X159021610Y-111300921D01*
X158946937Y-111296040D01*
X158880671Y-111282023D01*
X158821575Y-111259476D01*
X158780294Y-111236057D01*
X158744242Y-111208020D01*
X158712942Y-111175182D01*
X158686112Y-111137156D01*
X158665367Y-111096043D01*
X158650126Y-111050115D01*
X158640611Y-110998645D01*
X158637294Y-110940785D01*
X158642522Y-110862683D01*
X158657465Y-110794219D01*
X158681395Y-110733926D01*
X158761216Y-110771754D01*
X158746540Y-110807575D01*
X158732869Y-110848919D01*
X158723491Y-110892656D01*
X158720229Y-110941838D01*
G37*
G36*
X158720229Y-110299968D02*
G01*
X158725660Y-110359096D01*
X158741123Y-110409431D01*
X158766109Y-110452681D01*
X158801104Y-110490019D01*
X158843067Y-110519129D01*
X158892908Y-110540706D01*
X158952144Y-110554422D01*
X159022663Y-110559308D01*
X159092862Y-110554734D01*
X159151952Y-110541902D01*
X159201731Y-110521766D01*
X159243672Y-110494736D01*
X159272207Y-110467226D01*
X159294547Y-110434952D01*
X159310994Y-110397214D01*
X159321375Y-110352996D01*
X159325051Y-110301021D01*
X159322906Y-110252417D01*
X159316670Y-110207553D01*
X159295650Y-110121457D01*
X159377533Y-110121457D01*
X159391168Y-110164070D01*
X159400614Y-110208102D01*
X159405988Y-110254849D01*
X159407987Y-110314668D01*
X159404729Y-110372180D01*
X159395450Y-110422579D01*
X159380701Y-110466833D01*
X159360771Y-110505773D01*
X159334784Y-110541549D01*
X159304004Y-110572453D01*
X159268059Y-110598821D01*
X159226362Y-110620766D01*
X159167080Y-110641452D01*
X159099296Y-110654473D01*
X159021610Y-110659051D01*
X158946937Y-110654170D01*
X158880671Y-110640153D01*
X158821575Y-110617606D01*
X158780294Y-110594187D01*
X158744242Y-110566150D01*
X158712942Y-110533311D01*
X158686112Y-110495286D01*
X158665367Y-110454173D01*
X158650126Y-110408245D01*
X158640611Y-110356775D01*
X158637294Y-110298915D01*
X158642522Y-110220813D01*
X158657465Y-110152348D01*
X158681395Y-110092056D01*
X158761216Y-110129883D01*
X158746540Y-110165705D01*
X158732869Y-110207049D01*
X158723491Y-110250786D01*
X158720229Y-110299968D01*
G37*
G36*
X156461643Y-111961247D02*
G01*
X156461643Y-111701906D01*
X156829152Y-111701906D01*
X156846525Y-111763243D01*
X156858553Y-111824776D01*
X156865483Y-111888774D01*
X156867987Y-111965460D01*
X156864777Y-112024036D01*
X156855612Y-112075707D01*
X156841016Y-112121377D01*
X156821275Y-112161831D01*
X156795474Y-112199268D01*
X156764907Y-112231748D01*
X156729249Y-112259640D01*
X156687964Y-112283098D01*
X156628826Y-112305497D01*
X156560906Y-112319586D01*
X156482663Y-112324543D01*
X156423709Y-112321430D01*
X156370566Y-112312458D01*
X156322525Y-112298037D01*
X156278965Y-112278381D01*
X156238205Y-112252674D01*
X156202552Y-112222174D01*
X156171591Y-112186627D01*
X156145104Y-112145574D01*
X156124853Y-112101749D01*
X156109910Y-112052736D01*
X156100557Y-111997790D01*
X156097294Y-111936059D01*
X156100258Y-111874064D01*
X156108880Y-111816899D01*
X156122950Y-111762128D01*
X156141395Y-111712394D01*
X156223277Y-111748114D01*
X156207092Y-111789543D01*
X156192869Y-111837873D01*
X156183420Y-111888419D01*
X156180229Y-111941326D01*
X156183828Y-111995373D01*
X156194075Y-112042370D01*
X156210420Y-112083392D01*
X156232691Y-112119320D01*
X156261104Y-112150794D01*
X156303435Y-112182549D01*
X156353411Y-112205880D01*
X156412518Y-112220620D01*
X156482663Y-112225853D01*
X156541621Y-112222442D01*
X156594007Y-112212662D01*
X156640703Y-112197002D01*
X156683441Y-112173871D01*
X156718856Y-112143782D01*
X156747773Y-112106189D01*
X156768153Y-112063201D01*
X156781328Y-112009757D01*
X156786104Y-111943432D01*
X156784680Y-111895885D01*
X156780884Y-111859443D01*
X156768244Y-111796428D01*
X156545632Y-111796428D01*
X156545632Y-111961247D01*
X156461643Y-111961247D01*
G37*
G36*
X156857500Y-110928237D02*
G01*
X156857500Y-111038467D01*
X156234863Y-111439590D01*
X156234863Y-111443757D01*
X156326226Y-111438536D01*
X156438562Y-111435376D01*
X156857500Y-111435376D01*
X156857500Y-111522525D01*
X156107781Y-111522525D01*
X156107781Y-111413303D01*
X156728356Y-111013279D01*
X156728356Y-111009066D01*
X156677981Y-111011722D01*
X156604479Y-111014882D01*
X156530932Y-111016439D01*
X156107781Y-111016439D01*
X156107781Y-110928237D01*
X156857500Y-110928237D01*
G37*
G36*
X156552758Y-110128769D02*
G01*
X156618442Y-110142249D01*
X156674162Y-110163418D01*
X156721438Y-110191792D01*
X156761420Y-110227428D01*
X156794643Y-110269936D01*
X156821077Y-110318923D01*
X156840710Y-110375351D01*
X156853122Y-110440438D01*
X156857500Y-110515619D01*
X156857500Y-110724584D01*
X156107781Y-110724584D01*
X156107781Y-110507238D01*
X156188656Y-110507238D01*
X156188656Y-110630062D01*
X156776670Y-110630062D01*
X156776670Y-110528213D01*
X156772312Y-110459042D01*
X156760193Y-110401890D01*
X156741381Y-110354754D01*
X156716401Y-110315978D01*
X156685202Y-110284337D01*
X156647161Y-110259126D01*
X156601133Y-110240219D01*
X156545539Y-110228077D01*
X156478450Y-110223718D01*
X156416469Y-110227278D01*
X156365021Y-110237177D01*
X156322437Y-110252508D01*
X156287297Y-110272742D01*
X156258494Y-110297770D01*
X156229169Y-110336540D01*
X156207448Y-110383236D01*
X156193607Y-110439455D01*
X156188656Y-110507238D01*
X156107781Y-110507238D01*
X156107781Y-110493591D01*
X156112788Y-110418951D01*
X156127053Y-110354007D01*
X156149821Y-110297266D01*
X156173417Y-110257944D01*
X156201656Y-110223747D01*
X156234768Y-110194223D01*
X156273194Y-110169130D01*
X156314246Y-110150155D01*
X156361023Y-110136030D01*
X156414379Y-110127111D01*
X156475290Y-110123976D01*
X156552758Y-110128769D01*
G37*
G36*
X174241643Y-119792636D02*
G01*
X174241643Y-119533295D01*
X174609152Y-119533295D01*
X174626525Y-119594632D01*
X174638553Y-119656165D01*
X174645483Y-119720163D01*
X174647987Y-119796849D01*
X174644777Y-119855425D01*
X174635612Y-119907096D01*
X174621016Y-119952766D01*
X174601275Y-119993220D01*
X174575474Y-120030657D01*
X174544907Y-120063137D01*
X174509249Y-120091029D01*
X174467964Y-120114487D01*
X174408826Y-120136886D01*
X174340906Y-120150975D01*
X174262663Y-120155932D01*
X174203709Y-120152819D01*
X174150566Y-120143847D01*
X174102525Y-120129426D01*
X174058965Y-120109770D01*
X174018205Y-120084063D01*
X173982552Y-120053563D01*
X173951591Y-120018016D01*
X173925104Y-119976963D01*
X173904853Y-119933138D01*
X173889910Y-119884125D01*
X173880557Y-119829179D01*
X173877294Y-119767448D01*
X173880258Y-119705453D01*
X173888880Y-119648288D01*
X173902950Y-119593517D01*
X173921395Y-119543783D01*
X174003277Y-119579503D01*
X173987092Y-119620932D01*
X173972869Y-119669262D01*
X173963420Y-119719808D01*
X173960229Y-119772715D01*
X173963828Y-119826762D01*
X173974075Y-119873759D01*
X173990420Y-119914781D01*
X174012691Y-119950709D01*
X174041104Y-119982183D01*
X174083435Y-120013938D01*
X174133411Y-120037269D01*
X174192518Y-120052009D01*
X174262663Y-120057242D01*
X174321621Y-120053831D01*
X174374007Y-120044051D01*
X174420703Y-120028391D01*
X174463441Y-120005260D01*
X174498856Y-119975171D01*
X174527773Y-119937578D01*
X174548153Y-119894590D01*
X174561328Y-119841146D01*
X174566104Y-119774821D01*
X174564680Y-119727274D01*
X174560884Y-119690832D01*
X174548244Y-119627817D01*
X174325632Y-119627817D01*
X174325632Y-119792636D01*
X174241643Y-119792636D01*
G37*
G36*
X174637500Y-118759626D02*
G01*
X174637500Y-118869856D01*
X174014863Y-119270979D01*
X174014863Y-119275146D01*
X174106226Y-119269925D01*
X174218562Y-119266765D01*
X174637500Y-119266765D01*
X174637500Y-119353914D01*
X173887781Y-119353914D01*
X173887781Y-119244692D01*
X174508356Y-118844668D01*
X174508356Y-118840455D01*
X174457981Y-118843111D01*
X174384479Y-118846271D01*
X174310932Y-118847828D01*
X173887781Y-118847828D01*
X173887781Y-118759626D01*
X174637500Y-118759626D01*
G37*
G36*
X174332758Y-117960158D02*
G01*
X174398442Y-117973638D01*
X174454162Y-117994807D01*
X174501438Y-118023181D01*
X174541420Y-118058817D01*
X174574643Y-118101325D01*
X174601077Y-118150312D01*
X174620710Y-118206740D01*
X174633122Y-118271827D01*
X174637500Y-118347008D01*
X174637500Y-118555973D01*
X173887781Y-118555973D01*
X173887781Y-118338627D01*
X173968656Y-118338627D01*
X173968656Y-118461451D01*
X174556670Y-118461451D01*
X174556670Y-118359602D01*
X174552312Y-118290431D01*
X174540193Y-118233279D01*
X174521381Y-118186143D01*
X174496401Y-118147367D01*
X174465202Y-118115726D01*
X174427161Y-118090515D01*
X174381133Y-118071608D01*
X174325539Y-118059466D01*
X174258450Y-118055107D01*
X174196469Y-118058667D01*
X174145021Y-118068566D01*
X174102437Y-118083897D01*
X174067297Y-118104131D01*
X174038494Y-118129159D01*
X174009169Y-118167929D01*
X173987448Y-118214625D01*
X173973607Y-118270844D01*
X173968656Y-118338627D01*
X173887781Y-118338627D01*
X173887781Y-118324980D01*
X173892788Y-118250340D01*
X173907053Y-118185396D01*
X173929821Y-118128655D01*
X173953417Y-118089333D01*
X173981656Y-118055136D01*
X174014768Y-118025612D01*
X174053194Y-118000519D01*
X174094246Y-117981544D01*
X174141023Y-117967419D01*
X174194379Y-117958500D01*
X174255290Y-117955365D01*
X174332758Y-117960158D01*
G37*
G36*
X174241643Y-111961247D02*
G01*
X174241643Y-111701906D01*
X174609152Y-111701906D01*
X174626525Y-111763243D01*
X174638553Y-111824776D01*
X174645483Y-111888774D01*
X174647987Y-111965460D01*
X174644777Y-112024036D01*
X174635612Y-112075707D01*
X174621016Y-112121377D01*
X174601275Y-112161831D01*
X174575474Y-112199268D01*
X174544907Y-112231748D01*
X174509249Y-112259640D01*
X174467964Y-112283098D01*
X174408826Y-112305497D01*
X174340906Y-112319586D01*
X174262663Y-112324543D01*
X174203709Y-112321430D01*
X174150566Y-112312458D01*
X174102525Y-112298037D01*
X174058965Y-112278381D01*
X174018205Y-112252674D01*
X173982552Y-112222174D01*
X173951591Y-112186627D01*
X173925104Y-112145574D01*
X173904853Y-112101749D01*
X173889910Y-112052736D01*
X173880557Y-111997790D01*
X173877294Y-111936059D01*
X173880258Y-111874064D01*
X173888880Y-111816899D01*
X173902950Y-111762128D01*
X173921395Y-111712394D01*
X174003277Y-111748114D01*
X173987092Y-111789543D01*
X173972869Y-111837873D01*
X173963420Y-111888419D01*
X173960229Y-111941326D01*
X173963828Y-111995373D01*
X173974075Y-112042370D01*
X173990420Y-112083392D01*
X174012691Y-112119320D01*
X174041104Y-112150794D01*
X174083435Y-112182549D01*
X174133411Y-112205880D01*
X174192518Y-112220620D01*
X174262663Y-112225853D01*
X174321621Y-112222442D01*
X174374007Y-112212662D01*
X174420703Y-112197002D01*
X174463441Y-112173871D01*
X174498856Y-112143782D01*
X174527773Y-112106189D01*
X174548153Y-112063201D01*
X174561328Y-112009757D01*
X174566104Y-111943432D01*
X174564680Y-111895885D01*
X174560884Y-111859443D01*
X174548244Y-111796428D01*
X174325632Y-111796428D01*
X174325632Y-111961247D01*
X174241643Y-111961247D01*
G37*
G36*
X174637500Y-110928237D02*
G01*
X174637500Y-111038467D01*
X174014863Y-111439590D01*
X174014863Y-111443757D01*
X174106226Y-111438536D01*
X174218562Y-111435376D01*
X174637500Y-111435376D01*
X174637500Y-111522525D01*
X173887781Y-111522525D01*
X173887781Y-111413303D01*
X174508356Y-111013279D01*
X174508356Y-111009066D01*
X174457981Y-111011722D01*
X174384479Y-111014882D01*
X174310932Y-111016439D01*
X173887781Y-111016439D01*
X173887781Y-110928237D01*
X174637500Y-110928237D01*
G37*
G36*
X174332758Y-110128769D02*
G01*
X174398442Y-110142249D01*
X174454162Y-110163418D01*
X174501438Y-110191792D01*
X174541420Y-110227428D01*
X174574643Y-110269936D01*
X174601077Y-110318923D01*
X174620710Y-110375351D01*
X174633122Y-110440438D01*
X174637500Y-110515619D01*
X174637500Y-110724584D01*
X173887781Y-110724584D01*
X173887781Y-110507238D01*
X173968656Y-110507238D01*
X173968656Y-110630062D01*
X174556670Y-110630062D01*
X174556670Y-110528213D01*
X174552312Y-110459042D01*
X174540193Y-110401890D01*
X174521381Y-110354754D01*
X174496401Y-110315978D01*
X174465202Y-110284337D01*
X174427161Y-110259126D01*
X174381133Y-110240219D01*
X174325539Y-110228077D01*
X174258450Y-110223718D01*
X174196469Y-110227278D01*
X174145021Y-110237177D01*
X174102437Y-110252508D01*
X174067297Y-110272742D01*
X174038494Y-110297770D01*
X174009169Y-110336540D01*
X173987448Y-110383236D01*
X173973607Y-110439455D01*
X173968656Y-110507238D01*
X173887781Y-110507238D01*
X173887781Y-110493591D01*
X173892788Y-110418951D01*
X173907053Y-110354007D01*
X173929821Y-110297266D01*
X173953417Y-110257944D01*
X173981656Y-110223747D01*
X174014768Y-110194223D01*
X174053194Y-110169130D01*
X174094246Y-110150155D01*
X174141023Y-110136030D01*
X174194379Y-110127111D01*
X174255290Y-110123976D01*
X174332758Y-110128769D01*
G37*
G36*
X169394155Y-119598915D02*
G01*
X169436036Y-119612278D01*
X169471586Y-119633829D01*
X169501858Y-119664042D01*
X169525122Y-119700017D01*
X169542474Y-119742852D01*
X169553548Y-119793851D01*
X169557500Y-119854597D01*
X169557500Y-120118150D01*
X168807781Y-120118150D01*
X168807781Y-119903965D01*
X168807966Y-119899751D01*
X168888656Y-119899751D01*
X168888656Y-120023628D01*
X169127021Y-120023628D01*
X169127021Y-119885051D01*
X169126659Y-119879784D01*
X169205744Y-119879784D01*
X169205744Y-120023628D01*
X169477678Y-120023628D01*
X169477678Y-119872457D01*
X169474575Y-119820938D01*
X169466336Y-119782440D01*
X169454203Y-119754177D01*
X169438843Y-119733880D01*
X169410822Y-119712588D01*
X169377392Y-119699577D01*
X169336994Y-119695000D01*
X169299601Y-119699679D01*
X169268416Y-119713102D01*
X169241968Y-119735437D01*
X169227810Y-119756233D01*
X169216462Y-119785500D01*
X169208686Y-119825699D01*
X169205744Y-119879784D01*
X169126659Y-119879784D01*
X169122603Y-119820762D01*
X169111513Y-119778821D01*
X169096064Y-119752748D01*
X169073093Y-119733504D01*
X169043179Y-119721416D01*
X169004152Y-119717027D01*
X168973889Y-119720066D01*
X168949834Y-119728508D01*
X168930631Y-119741910D01*
X168915446Y-119760625D01*
X168901883Y-119791141D01*
X168892350Y-119835962D01*
X168888656Y-119899751D01*
X168807966Y-119899751D01*
X168810974Y-119831178D01*
X168819663Y-119773057D01*
X168832706Y-119727161D01*
X168849272Y-119691336D01*
X168873125Y-119660558D01*
X168903989Y-119638459D01*
X168943353Y-119624462D01*
X168993665Y-119619391D01*
X169036407Y-119623724D01*
X169072522Y-119636073D01*
X169103391Y-119656165D01*
X169128279Y-119683265D01*
X169147072Y-119718025D01*
X169159536Y-119762182D01*
X169164803Y-119762182D01*
X169175458Y-119716662D01*
X169192097Y-119676635D01*
X169216294Y-119642350D01*
X169248838Y-119616277D01*
X169274264Y-119604527D01*
X169305658Y-119596946D01*
X169344367Y-119594204D01*
X169394155Y-119598915D01*
G37*
G36*
X169557500Y-119224908D02*
G01*
X169557500Y-119495835D01*
X169502911Y-119495835D01*
X169482944Y-119407633D01*
X168883389Y-119407633D01*
X168862415Y-119495835D01*
X168807781Y-119495835D01*
X168807781Y-119224908D01*
X168862415Y-119224908D01*
X168883389Y-119313111D01*
X169482944Y-119313111D01*
X169502911Y-119224908D01*
X169557500Y-119224908D01*
G37*
G36*
X169557500Y-118486318D02*
G01*
X169557500Y-118596548D01*
X168934863Y-118997671D01*
X168934863Y-119001838D01*
X169026226Y-118996618D01*
X169138562Y-118993458D01*
X169557500Y-118993458D01*
X169557500Y-119080607D01*
X168807781Y-119080607D01*
X168807781Y-118971384D01*
X169428356Y-118571360D01*
X169428356Y-118567147D01*
X169377981Y-118569803D01*
X169304479Y-118572963D01*
X169230932Y-118574520D01*
X168807781Y-118574520D01*
X168807781Y-118486318D01*
X169557500Y-118486318D01*
G37*
G36*
X169557500Y-117838494D02*
G01*
X169557500Y-118334094D01*
X169480838Y-118334094D01*
X169282406Y-118137768D01*
X169181610Y-118042239D01*
X169136648Y-118007246D01*
X169095010Y-117983437D01*
X169050897Y-117968548D01*
X169002045Y-117963470D01*
X168962369Y-117967968D01*
X168931760Y-117980395D01*
X168908073Y-118000244D01*
X168890681Y-118026380D01*
X168879887Y-118057759D01*
X168876062Y-118095774D01*
X168881006Y-118148170D01*
X168894976Y-118191853D01*
X168916918Y-118232710D01*
X168947457Y-118276345D01*
X168885496Y-118325713D01*
X168851855Y-118278887D01*
X168823031Y-118224413D01*
X168808957Y-118185486D01*
X168800286Y-118142814D01*
X168797294Y-118095774D01*
X168801012Y-118043257D01*
X168811471Y-117998973D01*
X168827977Y-117961540D01*
X168850325Y-117929856D01*
X168878834Y-117903595D01*
X168912054Y-117884765D01*
X168950923Y-117873067D01*
X168996779Y-117868948D01*
X169035434Y-117871674D01*
X169072057Y-117879735D01*
X169107055Y-117893128D01*
X169157158Y-117921365D01*
X169208400Y-117960310D01*
X169258563Y-118005697D01*
X169314966Y-118061106D01*
X169469297Y-118217544D01*
X169473510Y-118217544D01*
X169473510Y-117838494D01*
X169557500Y-117838494D01*
G37*
G36*
X159397500Y-119647739D02*
G01*
X159165454Y-119738047D01*
X159165454Y-120035215D01*
X159397500Y-120124470D01*
X159397500Y-120220000D01*
X158644667Y-119927045D01*
X158644667Y-119886104D01*
X158742303Y-119886104D01*
X158805821Y-119902911D01*
X158854639Y-119918665D01*
X159081465Y-120003707D01*
X159081465Y-119766395D01*
X158854639Y-119850384D01*
X158824231Y-119860917D01*
X158778527Y-119875068D01*
X158742303Y-119886104D01*
X158644667Y-119886104D01*
X158644667Y-119842003D01*
X159397500Y-119550102D01*
X159397500Y-119647739D01*
G37*
G36*
X159397500Y-119236632D02*
G01*
X159397500Y-119507558D01*
X159342911Y-119507558D01*
X159322944Y-119419356D01*
X158723389Y-119419356D01*
X158702415Y-119507558D01*
X158647781Y-119507558D01*
X158647781Y-119236632D01*
X158702415Y-119236632D01*
X158723389Y-119324834D01*
X159322944Y-119324834D01*
X159342911Y-119236632D01*
X159397500Y-119236632D01*
G37*
G36*
X159397500Y-118498042D02*
G01*
X159397500Y-118608271D01*
X158774863Y-119009395D01*
X158774863Y-119013562D01*
X158866226Y-119008341D01*
X158978562Y-119005181D01*
X159397500Y-119005181D01*
X159397500Y-119092330D01*
X158647781Y-119092330D01*
X158647781Y-118983108D01*
X159268356Y-118583084D01*
X159268356Y-118578871D01*
X159217981Y-118581527D01*
X159144479Y-118584687D01*
X159070932Y-118586244D01*
X158647781Y-118586244D01*
X158647781Y-118498042D01*
X159397500Y-118498042D01*
G37*
G36*
X159397500Y-117850218D02*
G01*
X159397500Y-118345817D01*
X159320838Y-118345817D01*
X159122406Y-118149492D01*
X159021610Y-118053962D01*
X158976648Y-118018969D01*
X158935010Y-117995161D01*
X158890897Y-117980272D01*
X158842045Y-117975194D01*
X158802369Y-117979692D01*
X158771760Y-117992118D01*
X158748073Y-118011968D01*
X158730681Y-118038104D01*
X158719887Y-118069483D01*
X158716062Y-118107497D01*
X158721006Y-118159894D01*
X158734976Y-118203576D01*
X158756918Y-118244433D01*
X158787457Y-118288069D01*
X158725496Y-118337437D01*
X158691855Y-118290611D01*
X158663031Y-118236137D01*
X158648957Y-118197210D01*
X158640286Y-118154538D01*
X158637294Y-118107497D01*
X158641012Y-118054981D01*
X158651471Y-118010697D01*
X158667977Y-117973264D01*
X158690325Y-117941580D01*
X158718834Y-117915319D01*
X158752054Y-117896488D01*
X158790923Y-117884791D01*
X158836779Y-117880672D01*
X158875434Y-117883397D01*
X158912057Y-117891458D01*
X158947055Y-117904852D01*
X158997158Y-117933089D01*
X159048400Y-117972034D01*
X159098563Y-118017421D01*
X159154966Y-118072830D01*
X159309297Y-118229268D01*
X159313510Y-118229268D01*
X159313510Y-117850218D01*
X159397500Y-117850218D01*
G37*
G36*
X161937500Y-111557697D02*
G01*
X161705454Y-111648005D01*
X161705454Y-111945173D01*
X161937500Y-112034428D01*
X161937500Y-112129958D01*
X161184667Y-111837003D01*
X161184667Y-111796062D01*
X161282303Y-111796062D01*
X161345821Y-111812869D01*
X161394639Y-111828623D01*
X161621465Y-111913665D01*
X161621465Y-111676353D01*
X161394639Y-111760342D01*
X161364231Y-111770875D01*
X161318527Y-111785026D01*
X161282303Y-111796062D01*
X161184667Y-111796062D01*
X161184667Y-111751961D01*
X161937500Y-111460060D01*
X161937500Y-111557697D01*
G37*
G36*
X161638526Y-110728730D02*
G01*
X161705796Y-110742109D01*
X161764805Y-110763419D01*
X161806258Y-110785767D01*
X161842239Y-110812438D01*
X161873279Y-110843549D01*
X161899718Y-110879419D01*
X161920151Y-110918434D01*
X161935221Y-110962558D01*
X161944675Y-111012590D01*
X161947987Y-111069470D01*
X161944647Y-111128062D01*
X161935147Y-111179229D01*
X161920069Y-111223994D01*
X161899718Y-111263231D01*
X161873202Y-111299274D01*
X161842053Y-111330246D01*
X161805923Y-111356505D01*
X161764255Y-111378178D01*
X161705007Y-111398612D01*
X161637551Y-111411453D01*
X161560556Y-111415959D01*
X161484274Y-111411451D01*
X161417523Y-111398609D01*
X161358965Y-111378178D01*
X161317839Y-111356552D01*
X161282045Y-111330320D01*
X161251058Y-111299335D01*
X161224555Y-111263231D01*
X161204216Y-111224008D01*
X161189122Y-111179096D01*
X161179594Y-111127585D01*
X161176240Y-111068417D01*
X161259222Y-111068417D01*
X161262884Y-111119645D01*
X161273185Y-111162787D01*
X161289439Y-111199207D01*
X161311456Y-111229987D01*
X161339547Y-111255858D01*
X161380660Y-111280886D01*
X161430237Y-111299738D01*
X161489905Y-111311865D01*
X161561610Y-111316217D01*
X161633278Y-111311914D01*
X161693152Y-111299903D01*
X161743109Y-111281205D01*
X161784726Y-111256362D01*
X161813226Y-111230623D01*
X161835529Y-111199965D01*
X161851979Y-111163663D01*
X161862399Y-111120625D01*
X161866104Y-111069470D01*
X161862374Y-111017801D01*
X161851910Y-110974565D01*
X161835435Y-110938315D01*
X161813152Y-110907907D01*
X161784726Y-110882579D01*
X161743176Y-110858204D01*
X161693243Y-110839829D01*
X161633345Y-110828013D01*
X161561610Y-110823777D01*
X161489803Y-110828029D01*
X161430100Y-110839869D01*
X161380560Y-110858244D01*
X161339547Y-110882579D01*
X161311495Y-110907860D01*
X161289496Y-110938154D01*
X161273230Y-110974214D01*
X161262902Y-111017162D01*
X161259222Y-111068417D01*
X161176240Y-111068417D01*
X161179512Y-111012089D01*
X161188863Y-110962393D01*
X161203790Y-110918426D01*
X161224051Y-110879419D01*
X161250237Y-110843569D01*
X161281100Y-110812465D01*
X161316992Y-110785786D01*
X161358461Y-110763419D01*
X161417440Y-110742110D01*
X161484693Y-110728730D01*
X161561610Y-110724035D01*
X161638526Y-110728730D01*
G37*
G36*
X161937500Y-110287374D02*
G01*
X161937500Y-110377637D01*
X161413553Y-110377637D01*
X161341104Y-110376630D01*
X161284409Y-110373470D01*
X161312757Y-110403924D01*
X161342158Y-110438545D01*
X161407233Y-110518367D01*
X161345317Y-110566635D01*
X161187781Y-110363990D01*
X161187781Y-110287374D01*
X161937500Y-110287374D01*
G37*
G36*
X156368918Y-119641430D02*
G01*
X156407437Y-119650692D01*
X156444332Y-119666148D01*
X156477200Y-119688107D01*
X156506367Y-119718749D01*
X156532031Y-119759571D01*
X156549590Y-119804654D01*
X156561278Y-119862940D01*
X156565599Y-119937533D01*
X156565599Y-120023628D01*
X156857500Y-120023628D01*
X156857500Y-120118150D01*
X156107781Y-120118150D01*
X156107781Y-119928099D01*
X156188656Y-119928099D01*
X156188656Y-120023628D01*
X156484770Y-120023628D01*
X156484770Y-119948066D01*
X156480127Y-119876984D01*
X156467928Y-119825288D01*
X156450102Y-119788468D01*
X156430680Y-119766279D01*
X156405569Y-119750082D01*
X156373484Y-119739713D01*
X156332500Y-119735941D01*
X156296795Y-119739164D01*
X156267689Y-119748170D01*
X156243853Y-119762445D01*
X156224376Y-119782148D01*
X156206006Y-119815073D01*
X156193454Y-119862180D01*
X156188656Y-119928099D01*
X156107781Y-119928099D01*
X156107781Y-119919718D01*
X156112223Y-119844315D01*
X156124240Y-119785508D01*
X156142298Y-119740126D01*
X156165529Y-119705532D01*
X156196613Y-119676662D01*
X156233277Y-119655872D01*
X156276637Y-119642895D01*
X156328286Y-119638305D01*
X156368918Y-119641430D01*
G37*
G36*
X156107781Y-118622605D02*
G01*
X156857500Y-118822091D01*
X156857500Y-118917666D01*
X156366113Y-119063616D01*
X156305205Y-119080423D01*
X156251121Y-119094071D01*
X156218056Y-119101398D01*
X156276354Y-119112435D01*
X156369228Y-119137118D01*
X156857500Y-119278855D01*
X156857500Y-119374385D01*
X156107781Y-119572863D01*
X156107781Y-119474173D01*
X156565599Y-119357624D01*
X156659067Y-119336100D01*
X156744110Y-119321903D01*
X156654854Y-119306150D01*
X156560332Y-119282015D01*
X156107781Y-119149712D01*
X156107781Y-119052076D01*
X156563492Y-118914506D01*
X156659571Y-118889319D01*
X156744110Y-118873565D01*
X156659571Y-118858865D01*
X156564545Y-118836791D01*
X156107781Y-118721295D01*
X156107781Y-118622605D01*
G37*
G36*
X156857500Y-118176878D02*
G01*
X156200196Y-118423624D01*
X156200196Y-118427791D01*
X156287895Y-118422571D01*
X156402841Y-118420464D01*
X156857500Y-118420464D01*
X156857500Y-118507613D01*
X156107781Y-118507613D01*
X156107781Y-118367982D01*
X156722036Y-118136944D01*
X156722036Y-118132776D01*
X156107781Y-117897571D01*
X156107781Y-117758948D01*
X156857500Y-117758948D01*
X156857500Y-117852416D01*
X156396567Y-117852416D01*
X156288398Y-117849806D01*
X156201250Y-117845043D01*
X156201250Y-117849256D01*
X156857500Y-118099163D01*
X156857500Y-118176878D01*
G37*
G36*
X156857500Y-117085387D02*
G01*
X156625454Y-117175696D01*
X156625454Y-117472863D01*
X156857500Y-117562118D01*
X156857500Y-117657648D01*
X156104667Y-117364694D01*
X156104667Y-117323753D01*
X156202303Y-117323753D01*
X156265821Y-117340560D01*
X156314639Y-117356313D01*
X156541465Y-117441355D01*
X156541465Y-117204043D01*
X156314639Y-117288032D01*
X156284231Y-117298565D01*
X156238527Y-117312716D01*
X156202303Y-117323753D01*
X156104667Y-117323753D01*
X156104667Y-117279651D01*
X156857500Y-116987751D01*
X156857500Y-117085387D01*
G37*
G36*
X171608918Y-119641430D02*
G01*
X171647437Y-119650692D01*
X171684332Y-119666148D01*
X171717200Y-119688107D01*
X171746367Y-119718749D01*
X171772031Y-119759571D01*
X171789590Y-119804654D01*
X171801278Y-119862940D01*
X171805599Y-119937533D01*
X171805599Y-120023628D01*
X172097500Y-120023628D01*
X172097500Y-120118150D01*
X171347781Y-120118150D01*
X171347781Y-119928099D01*
X171428656Y-119928099D01*
X171428656Y-120023628D01*
X171724770Y-120023628D01*
X171724770Y-119948066D01*
X171720127Y-119876984D01*
X171707928Y-119825288D01*
X171690102Y-119788468D01*
X171670680Y-119766279D01*
X171645569Y-119750082D01*
X171613484Y-119739713D01*
X171572500Y-119735941D01*
X171536795Y-119739164D01*
X171507689Y-119748170D01*
X171483853Y-119762445D01*
X171464376Y-119782148D01*
X171446006Y-119815073D01*
X171433454Y-119862180D01*
X171428656Y-119928099D01*
X171347781Y-119928099D01*
X171347781Y-119919718D01*
X171352223Y-119844315D01*
X171364240Y-119785508D01*
X171382298Y-119740126D01*
X171405529Y-119705532D01*
X171436613Y-119676662D01*
X171473277Y-119655872D01*
X171516637Y-119642895D01*
X171568286Y-119638305D01*
X171608918Y-119641430D01*
G37*
G36*
X171347781Y-118622605D02*
G01*
X172097500Y-118822091D01*
X172097500Y-118917666D01*
X171606113Y-119063616D01*
X171545205Y-119080423D01*
X171491121Y-119094071D01*
X171458056Y-119101398D01*
X171516354Y-119112435D01*
X171609228Y-119137118D01*
X172097500Y-119278855D01*
X172097500Y-119374385D01*
X171347781Y-119572863D01*
X171347781Y-119474173D01*
X171805599Y-119357624D01*
X171899067Y-119336100D01*
X171984110Y-119321903D01*
X171894854Y-119306150D01*
X171800332Y-119282015D01*
X171347781Y-119149712D01*
X171347781Y-119052076D01*
X171803492Y-118914506D01*
X171899571Y-118889319D01*
X171984110Y-118873565D01*
X171899571Y-118858865D01*
X171804545Y-118836791D01*
X171347781Y-118721295D01*
X171347781Y-118622605D01*
G37*
G36*
X172097500Y-118176878D02*
G01*
X171440196Y-118423624D01*
X171440196Y-118427791D01*
X171527895Y-118422571D01*
X171642841Y-118420464D01*
X172097500Y-118420464D01*
X172097500Y-118507613D01*
X171347781Y-118507613D01*
X171347781Y-118367982D01*
X171962036Y-118136944D01*
X171962036Y-118132776D01*
X171347781Y-117897571D01*
X171347781Y-117758948D01*
X172097500Y-117758948D01*
X172097500Y-117852416D01*
X171636567Y-117852416D01*
X171528398Y-117849806D01*
X171441250Y-117845043D01*
X171441250Y-117849256D01*
X172097500Y-118099163D01*
X172097500Y-118176878D01*
G37*
G36*
X171934155Y-117036563D02*
G01*
X171976036Y-117049927D01*
X172011586Y-117071478D01*
X172041858Y-117101690D01*
X172065122Y-117137665D01*
X172082474Y-117180501D01*
X172093548Y-117231499D01*
X172097500Y-117292245D01*
X172097500Y-117555799D01*
X171347781Y-117555799D01*
X171347781Y-117341613D01*
X171347966Y-117337400D01*
X171428656Y-117337400D01*
X171428656Y-117461277D01*
X171667021Y-117461277D01*
X171667021Y-117322699D01*
X171666659Y-117317433D01*
X171745744Y-117317433D01*
X171745744Y-117461277D01*
X172017678Y-117461277D01*
X172017678Y-117310105D01*
X172014575Y-117258587D01*
X172006336Y-117220089D01*
X171994203Y-117191826D01*
X171978843Y-117171528D01*
X171950822Y-117150237D01*
X171917392Y-117137226D01*
X171876994Y-117132648D01*
X171839601Y-117137327D01*
X171808416Y-117150750D01*
X171781968Y-117173085D01*
X171767810Y-117193881D01*
X171756462Y-117223148D01*
X171748686Y-117263348D01*
X171745744Y-117317433D01*
X171666659Y-117317433D01*
X171662603Y-117258410D01*
X171651513Y-117216469D01*
X171636064Y-117190396D01*
X171613093Y-117171153D01*
X171583179Y-117159065D01*
X171544152Y-117154675D01*
X171513889Y-117157714D01*
X171489834Y-117166156D01*
X171470631Y-117179558D01*
X171455446Y-117198273D01*
X171441883Y-117228789D01*
X171432350Y-117273610D01*
X171428656Y-117337400D01*
X171347966Y-117337400D01*
X171350974Y-117268826D01*
X171359663Y-117210705D01*
X171372706Y-117164809D01*
X171389272Y-117128984D01*
X171413125Y-117098207D01*
X171443989Y-117076107D01*
X171483353Y-117062111D01*
X171533665Y-117057039D01*
X171576407Y-117061372D01*
X171612522Y-117073721D01*
X171643391Y-117093813D01*
X171668279Y-117120913D01*
X171687072Y-117155674D01*
X171699536Y-117199830D01*
X171704803Y-117199830D01*
X171715458Y-117154310D01*
X171732097Y-117114284D01*
X171756294Y-117079998D01*
X171788838Y-117053925D01*
X171814264Y-117042175D01*
X171845658Y-117034594D01*
X171884367Y-117031852D01*
X171934155Y-117036563D01*
G37*
G36*
X171347781Y-112382886D02*
G01*
X172097500Y-112650653D01*
X172097500Y-112745129D01*
X171347781Y-113012896D01*
X171347781Y-112914206D01*
X171828680Y-112745129D01*
X171915325Y-112716827D01*
X171992490Y-112697914D01*
X171914821Y-112679000D01*
X171826619Y-112650653D01*
X171347781Y-112482629D01*
X171347781Y-112382886D01*
G37*
G36*
X172097500Y-111950897D02*
G01*
X171440196Y-112197643D01*
X171440196Y-112201811D01*
X171527895Y-112196590D01*
X171642841Y-112194484D01*
X172097500Y-112194484D01*
X172097500Y-112281632D01*
X171347781Y-112281632D01*
X171347781Y-112142002D01*
X171962036Y-111910963D01*
X171962036Y-111906796D01*
X171347781Y-111671590D01*
X171347781Y-111532967D01*
X172097500Y-111532967D01*
X172097500Y-111626436D01*
X171636567Y-111626436D01*
X171528398Y-111623825D01*
X171441250Y-111619063D01*
X171441250Y-111623276D01*
X172097500Y-111873182D01*
X172097500Y-111950897D01*
G37*
G36*
X171798526Y-110680370D02*
G01*
X171865796Y-110693749D01*
X171924805Y-110715059D01*
X171966258Y-110737407D01*
X172002239Y-110764078D01*
X172033279Y-110795189D01*
X172059718Y-110831059D01*
X172080151Y-110870074D01*
X172095221Y-110914198D01*
X172104675Y-110964230D01*
X172107987Y-111021110D01*
X172104647Y-111079702D01*
X172095147Y-111130869D01*
X172080069Y-111175634D01*
X172059718Y-111214871D01*
X172033202Y-111250914D01*
X172002053Y-111281886D01*
X171965923Y-111308145D01*
X171924255Y-111329818D01*
X171865007Y-111350252D01*
X171797551Y-111363093D01*
X171720556Y-111367599D01*
X171644274Y-111363091D01*
X171577523Y-111350249D01*
X171518965Y-111329818D01*
X171477839Y-111308192D01*
X171442045Y-111281960D01*
X171411058Y-111250975D01*
X171384555Y-111214871D01*
X171364216Y-111175648D01*
X171349122Y-111130736D01*
X171339594Y-111079225D01*
X171336240Y-111020057D01*
X171419222Y-111020057D01*
X171422884Y-111071285D01*
X171433185Y-111114427D01*
X171449439Y-111150847D01*
X171471456Y-111181627D01*
X171499547Y-111207498D01*
X171540660Y-111232526D01*
X171590237Y-111251378D01*
X171649905Y-111263505D01*
X171721610Y-111267857D01*
X171793278Y-111263554D01*
X171853152Y-111251543D01*
X171903109Y-111232845D01*
X171944726Y-111208002D01*
X171973226Y-111182263D01*
X171995529Y-111151605D01*
X172011979Y-111115303D01*
X172022399Y-111072265D01*
X172026104Y-111021110D01*
X172022374Y-110969441D01*
X172011910Y-110926205D01*
X171995435Y-110889955D01*
X171973152Y-110859547D01*
X171944726Y-110834219D01*
X171903176Y-110809844D01*
X171853243Y-110791469D01*
X171793345Y-110779653D01*
X171721610Y-110775417D01*
X171649803Y-110779669D01*
X171590100Y-110791509D01*
X171540560Y-110809884D01*
X171499547Y-110834219D01*
X171471495Y-110859500D01*
X171449496Y-110889794D01*
X171433230Y-110925854D01*
X171422902Y-110968802D01*
X171419222Y-111020057D01*
X171336240Y-111020057D01*
X171339512Y-110963729D01*
X171348863Y-110914033D01*
X171363790Y-110870066D01*
X171384051Y-110831059D01*
X171410237Y-110795209D01*
X171441100Y-110764105D01*
X171476992Y-110737426D01*
X171518461Y-110715059D01*
X171577440Y-110693750D01*
X171644693Y-110680370D01*
X171721610Y-110675675D01*
X171798526Y-110680370D01*
G37*
G36*
X172097500Y-110304090D02*
G01*
X172097500Y-110398612D01*
X171430762Y-110398612D01*
X171430762Y-110632764D01*
X171347781Y-110632764D01*
X171347781Y-110070990D01*
X171430762Y-110070990D01*
X171430762Y-110304090D01*
X172097500Y-110304090D01*
G37*
D10*
X138944819Y-72178094D02*
X137944819Y-72178094D01*
X137944819Y-72178094D02*
X137944819Y-71939999D01*
X137944819Y-71939999D02*
X137992438Y-71797142D01*
X137992438Y-71797142D02*
X138087676Y-71701904D01*
X138087676Y-71701904D02*
X138182914Y-71654285D01*
X138182914Y-71654285D02*
X138373390Y-71606666D01*
X138373390Y-71606666D02*
X138516247Y-71606666D01*
X138516247Y-71606666D02*
X138706723Y-71654285D01*
X138706723Y-71654285D02*
X138801961Y-71701904D01*
X138801961Y-71701904D02*
X138897200Y-71797142D01*
X138897200Y-71797142D02*
X138944819Y-71939999D01*
X138944819Y-71939999D02*
X138944819Y-72178094D01*
X138944819Y-70654285D02*
X138944819Y-71225713D01*
X138944819Y-70939999D02*
X137944819Y-70939999D01*
X137944819Y-70939999D02*
X138087676Y-71035237D01*
X138087676Y-71035237D02*
X138182914Y-71130475D01*
X138182914Y-71130475D02*
X138230533Y-71225713D01*
X138994819Y-67891904D02*
X137994819Y-67891904D01*
X138994819Y-67320476D02*
X138423390Y-67749047D01*
X137994819Y-67320476D02*
X138566247Y-67891904D01*
X134073333Y-104594819D02*
X133740000Y-104118628D01*
X133501905Y-104594819D02*
X133501905Y-103594819D01*
X133501905Y-103594819D02*
X133882857Y-103594819D01*
X133882857Y-103594819D02*
X133978095Y-103642438D01*
X133978095Y-103642438D02*
X134025714Y-103690057D01*
X134025714Y-103690057D02*
X134073333Y-103785295D01*
X134073333Y-103785295D02*
X134073333Y-103928152D01*
X134073333Y-103928152D02*
X134025714Y-104023390D01*
X134025714Y-104023390D02*
X133978095Y-104071009D01*
X133978095Y-104071009D02*
X133882857Y-104118628D01*
X133882857Y-104118628D02*
X133501905Y-104118628D01*
X134930476Y-103928152D02*
X134930476Y-104594819D01*
X134692381Y-103547200D02*
X134454286Y-104261485D01*
X134454286Y-104261485D02*
X135073333Y-104261485D01*
X141459047Y-64494819D02*
X141459047Y-65209104D01*
X141459047Y-65209104D02*
X141411428Y-65351961D01*
X141411428Y-65351961D02*
X141316190Y-65447200D01*
X141316190Y-65447200D02*
X141173333Y-65494819D01*
X141173333Y-65494819D02*
X141078095Y-65494819D01*
X141887619Y-64590057D02*
X141935238Y-64542438D01*
X141935238Y-64542438D02*
X142030476Y-64494819D01*
X142030476Y-64494819D02*
X142268571Y-64494819D01*
X142268571Y-64494819D02*
X142363809Y-64542438D01*
X142363809Y-64542438D02*
X142411428Y-64590057D01*
X142411428Y-64590057D02*
X142459047Y-64685295D01*
X142459047Y-64685295D02*
X142459047Y-64780533D01*
X142459047Y-64780533D02*
X142411428Y-64923390D01*
X142411428Y-64923390D02*
X141840000Y-65494819D01*
X141840000Y-65494819D02*
X142459047Y-65494819D01*
X143601905Y-65447200D02*
X143744762Y-65494819D01*
X143744762Y-65494819D02*
X143982857Y-65494819D01*
X143982857Y-65494819D02*
X144078095Y-65447200D01*
X144078095Y-65447200D02*
X144125714Y-65399580D01*
X144125714Y-65399580D02*
X144173333Y-65304342D01*
X144173333Y-65304342D02*
X144173333Y-65209104D01*
X144173333Y-65209104D02*
X144125714Y-65113866D01*
X144125714Y-65113866D02*
X144078095Y-65066247D01*
X144078095Y-65066247D02*
X143982857Y-65018628D01*
X143982857Y-65018628D02*
X143792381Y-64971009D01*
X143792381Y-64971009D02*
X143697143Y-64923390D01*
X143697143Y-64923390D02*
X143649524Y-64875771D01*
X143649524Y-64875771D02*
X143601905Y-64780533D01*
X143601905Y-64780533D02*
X143601905Y-64685295D01*
X143601905Y-64685295D02*
X143649524Y-64590057D01*
X143649524Y-64590057D02*
X143697143Y-64542438D01*
X143697143Y-64542438D02*
X143792381Y-64494819D01*
X143792381Y-64494819D02*
X144030476Y-64494819D01*
X144030476Y-64494819D02*
X144173333Y-64542438D01*
X144982857Y-65447200D02*
X144887619Y-65494819D01*
X144887619Y-65494819D02*
X144697143Y-65494819D01*
X144697143Y-65494819D02*
X144601905Y-65447200D01*
X144601905Y-65447200D02*
X144554286Y-65351961D01*
X144554286Y-65351961D02*
X144554286Y-64971009D01*
X144554286Y-64971009D02*
X144601905Y-64875771D01*
X144601905Y-64875771D02*
X144697143Y-64828152D01*
X144697143Y-64828152D02*
X144887619Y-64828152D01*
X144887619Y-64828152D02*
X144982857Y-64875771D01*
X144982857Y-64875771D02*
X145030476Y-64971009D01*
X145030476Y-64971009D02*
X145030476Y-65066247D01*
X145030476Y-65066247D02*
X144554286Y-65161485D01*
X145459048Y-65494819D02*
X145459048Y-64828152D01*
X145459048Y-65018628D02*
X145506667Y-64923390D01*
X145506667Y-64923390D02*
X145554286Y-64875771D01*
X145554286Y-64875771D02*
X145649524Y-64828152D01*
X145649524Y-64828152D02*
X145744762Y-64828152D01*
X146078096Y-65494819D02*
X146078096Y-64828152D01*
X146078096Y-64494819D02*
X146030477Y-64542438D01*
X146030477Y-64542438D02*
X146078096Y-64590057D01*
X146078096Y-64590057D02*
X146125715Y-64542438D01*
X146125715Y-64542438D02*
X146078096Y-64494819D01*
X146078096Y-64494819D02*
X146078096Y-64590057D01*
X146982857Y-65494819D02*
X146982857Y-64971009D01*
X146982857Y-64971009D02*
X146935238Y-64875771D01*
X146935238Y-64875771D02*
X146840000Y-64828152D01*
X146840000Y-64828152D02*
X146649524Y-64828152D01*
X146649524Y-64828152D02*
X146554286Y-64875771D01*
X146982857Y-65447200D02*
X146887619Y-65494819D01*
X146887619Y-65494819D02*
X146649524Y-65494819D01*
X146649524Y-65494819D02*
X146554286Y-65447200D01*
X146554286Y-65447200D02*
X146506667Y-65351961D01*
X146506667Y-65351961D02*
X146506667Y-65256723D01*
X146506667Y-65256723D02*
X146554286Y-65161485D01*
X146554286Y-65161485D02*
X146649524Y-65113866D01*
X146649524Y-65113866D02*
X146887619Y-65113866D01*
X146887619Y-65113866D02*
X146982857Y-65066247D01*
X147601905Y-65494819D02*
X147506667Y-65447200D01*
X147506667Y-65447200D02*
X147459048Y-65351961D01*
X147459048Y-65351961D02*
X147459048Y-64494819D01*
X135444819Y-72178094D02*
X134444819Y-72178094D01*
X134444819Y-72178094D02*
X134444819Y-71939999D01*
X134444819Y-71939999D02*
X134492438Y-71797142D01*
X134492438Y-71797142D02*
X134587676Y-71701904D01*
X134587676Y-71701904D02*
X134682914Y-71654285D01*
X134682914Y-71654285D02*
X134873390Y-71606666D01*
X134873390Y-71606666D02*
X135016247Y-71606666D01*
X135016247Y-71606666D02*
X135206723Y-71654285D01*
X135206723Y-71654285D02*
X135301961Y-71701904D01*
X135301961Y-71701904D02*
X135397200Y-71797142D01*
X135397200Y-71797142D02*
X135444819Y-71939999D01*
X135444819Y-71939999D02*
X135444819Y-72178094D01*
X134540057Y-71225713D02*
X134492438Y-71178094D01*
X134492438Y-71178094D02*
X134444819Y-71082856D01*
X134444819Y-71082856D02*
X134444819Y-70844761D01*
X134444819Y-70844761D02*
X134492438Y-70749523D01*
X134492438Y-70749523D02*
X134540057Y-70701904D01*
X134540057Y-70701904D02*
X134635295Y-70654285D01*
X134635295Y-70654285D02*
X134730533Y-70654285D01*
X134730533Y-70654285D02*
X134873390Y-70701904D01*
X134873390Y-70701904D02*
X135444819Y-71273332D01*
X135444819Y-71273332D02*
X135444819Y-70654285D01*
X135444819Y-67891904D02*
X134444819Y-67891904D01*
X135444819Y-67320476D02*
X134873390Y-67749047D01*
X134444819Y-67320476D02*
X135016247Y-67891904D01*
X135231905Y-77634819D02*
X135231905Y-76634819D01*
X135231905Y-76634819D02*
X135470000Y-76634819D01*
X135470000Y-76634819D02*
X135612857Y-76682438D01*
X135612857Y-76682438D02*
X135708095Y-76777676D01*
X135708095Y-76777676D02*
X135755714Y-76872914D01*
X135755714Y-76872914D02*
X135803333Y-77063390D01*
X135803333Y-77063390D02*
X135803333Y-77206247D01*
X135803333Y-77206247D02*
X135755714Y-77396723D01*
X135755714Y-77396723D02*
X135708095Y-77491961D01*
X135708095Y-77491961D02*
X135612857Y-77587200D01*
X135612857Y-77587200D02*
X135470000Y-77634819D01*
X135470000Y-77634819D02*
X135231905Y-77634819D01*
X136708095Y-76634819D02*
X136231905Y-76634819D01*
X136231905Y-76634819D02*
X136184286Y-77111009D01*
X136184286Y-77111009D02*
X136231905Y-77063390D01*
X136231905Y-77063390D02*
X136327143Y-77015771D01*
X136327143Y-77015771D02*
X136565238Y-77015771D01*
X136565238Y-77015771D02*
X136660476Y-77063390D01*
X136660476Y-77063390D02*
X136708095Y-77111009D01*
X136708095Y-77111009D02*
X136755714Y-77206247D01*
X136755714Y-77206247D02*
X136755714Y-77444342D01*
X136755714Y-77444342D02*
X136708095Y-77539580D01*
X136708095Y-77539580D02*
X136660476Y-77587200D01*
X136660476Y-77587200D02*
X136565238Y-77634819D01*
X136565238Y-77634819D02*
X136327143Y-77634819D01*
X136327143Y-77634819D02*
X136231905Y-77587200D01*
X136231905Y-77587200D02*
X136184286Y-77539580D01*
X162711428Y-64494819D02*
X162711428Y-65209104D01*
X162711428Y-65209104D02*
X162663809Y-65351961D01*
X162663809Y-65351961D02*
X162568571Y-65447200D01*
X162568571Y-65447200D02*
X162425714Y-65494819D01*
X162425714Y-65494819D02*
X162330476Y-65494819D01*
X163092381Y-64494819D02*
X163711428Y-64494819D01*
X163711428Y-64494819D02*
X163378095Y-64875771D01*
X163378095Y-64875771D02*
X163520952Y-64875771D01*
X163520952Y-64875771D02*
X163616190Y-64923390D01*
X163616190Y-64923390D02*
X163663809Y-64971009D01*
X163663809Y-64971009D02*
X163711428Y-65066247D01*
X163711428Y-65066247D02*
X163711428Y-65304342D01*
X163711428Y-65304342D02*
X163663809Y-65399580D01*
X163663809Y-65399580D02*
X163616190Y-65447200D01*
X163616190Y-65447200D02*
X163520952Y-65494819D01*
X163520952Y-65494819D02*
X163235238Y-65494819D01*
X163235238Y-65494819D02*
X163140000Y-65447200D01*
X163140000Y-65447200D02*
X163092381Y-65399580D01*
X164901905Y-65494819D02*
X164901905Y-64494819D01*
X164901905Y-64494819D02*
X165282857Y-64494819D01*
X165282857Y-64494819D02*
X165378095Y-64542438D01*
X165378095Y-64542438D02*
X165425714Y-64590057D01*
X165425714Y-64590057D02*
X165473333Y-64685295D01*
X165473333Y-64685295D02*
X165473333Y-64828152D01*
X165473333Y-64828152D02*
X165425714Y-64923390D01*
X165425714Y-64923390D02*
X165378095Y-64971009D01*
X165378095Y-64971009D02*
X165282857Y-65018628D01*
X165282857Y-65018628D02*
X164901905Y-65018628D01*
X166044762Y-65494819D02*
X165949524Y-65447200D01*
X165949524Y-65447200D02*
X165901905Y-65399580D01*
X165901905Y-65399580D02*
X165854286Y-65304342D01*
X165854286Y-65304342D02*
X165854286Y-65018628D01*
X165854286Y-65018628D02*
X165901905Y-64923390D01*
X165901905Y-64923390D02*
X165949524Y-64875771D01*
X165949524Y-64875771D02*
X166044762Y-64828152D01*
X166044762Y-64828152D02*
X166187619Y-64828152D01*
X166187619Y-64828152D02*
X166282857Y-64875771D01*
X166282857Y-64875771D02*
X166330476Y-64923390D01*
X166330476Y-64923390D02*
X166378095Y-65018628D01*
X166378095Y-65018628D02*
X166378095Y-65304342D01*
X166378095Y-65304342D02*
X166330476Y-65399580D01*
X166330476Y-65399580D02*
X166282857Y-65447200D01*
X166282857Y-65447200D02*
X166187619Y-65494819D01*
X166187619Y-65494819D02*
X166044762Y-65494819D01*
X166711429Y-64828152D02*
X166901905Y-65494819D01*
X166901905Y-65494819D02*
X167092381Y-65018628D01*
X167092381Y-65018628D02*
X167282857Y-65494819D01*
X167282857Y-65494819D02*
X167473333Y-64828152D01*
X168235238Y-65447200D02*
X168140000Y-65494819D01*
X168140000Y-65494819D02*
X167949524Y-65494819D01*
X167949524Y-65494819D02*
X167854286Y-65447200D01*
X167854286Y-65447200D02*
X167806667Y-65351961D01*
X167806667Y-65351961D02*
X167806667Y-64971009D01*
X167806667Y-64971009D02*
X167854286Y-64875771D01*
X167854286Y-64875771D02*
X167949524Y-64828152D01*
X167949524Y-64828152D02*
X168140000Y-64828152D01*
X168140000Y-64828152D02*
X168235238Y-64875771D01*
X168235238Y-64875771D02*
X168282857Y-64971009D01*
X168282857Y-64971009D02*
X168282857Y-65066247D01*
X168282857Y-65066247D02*
X167806667Y-65161485D01*
X168711429Y-65494819D02*
X168711429Y-64828152D01*
X168711429Y-65018628D02*
X168759048Y-64923390D01*
X168759048Y-64923390D02*
X168806667Y-64875771D01*
X168806667Y-64875771D02*
X168901905Y-64828152D01*
X168901905Y-64828152D02*
X168997143Y-64828152D01*
X151249580Y-74551554D02*
X151297200Y-74599173D01*
X151297200Y-74599173D02*
X151344819Y-74742030D01*
X151344819Y-74742030D02*
X151344819Y-74837268D01*
X151344819Y-74837268D02*
X151297200Y-74980125D01*
X151297200Y-74980125D02*
X151201961Y-75075363D01*
X151201961Y-75075363D02*
X151106723Y-75122982D01*
X151106723Y-75122982D02*
X150916247Y-75170601D01*
X150916247Y-75170601D02*
X150773390Y-75170601D01*
X150773390Y-75170601D02*
X150582914Y-75122982D01*
X150582914Y-75122982D02*
X150487676Y-75075363D01*
X150487676Y-75075363D02*
X150392438Y-74980125D01*
X150392438Y-74980125D02*
X150344819Y-74837268D01*
X150344819Y-74837268D02*
X150344819Y-74742030D01*
X150344819Y-74742030D02*
X150392438Y-74599173D01*
X150392438Y-74599173D02*
X150440057Y-74551554D01*
X151344819Y-73599173D02*
X151344819Y-74170601D01*
X151344819Y-73884887D02*
X150344819Y-73884887D01*
X150344819Y-73884887D02*
X150487676Y-73980125D01*
X150487676Y-73980125D02*
X150582914Y-74075363D01*
X150582914Y-74075363D02*
X150630533Y-74170601D01*
X149728095Y-68244758D02*
X149728095Y-69054281D01*
X149728095Y-69054281D02*
X149775714Y-69149519D01*
X149775714Y-69149519D02*
X149823333Y-69197139D01*
X149823333Y-69197139D02*
X149918571Y-69244758D01*
X149918571Y-69244758D02*
X150109047Y-69244758D01*
X150109047Y-69244758D02*
X150204285Y-69197139D01*
X150204285Y-69197139D02*
X150251904Y-69149519D01*
X150251904Y-69149519D02*
X150299523Y-69054281D01*
X150299523Y-69054281D02*
X150299523Y-68244758D01*
X150728095Y-68339996D02*
X150775714Y-68292377D01*
X150775714Y-68292377D02*
X150870952Y-68244758D01*
X150870952Y-68244758D02*
X151109047Y-68244758D01*
X151109047Y-68244758D02*
X151204285Y-68292377D01*
X151204285Y-68292377D02*
X151251904Y-68339996D01*
X151251904Y-68339996D02*
X151299523Y-68435234D01*
X151299523Y-68435234D02*
X151299523Y-68530472D01*
X151299523Y-68530472D02*
X151251904Y-68673329D01*
X151251904Y-68673329D02*
X150680476Y-69244758D01*
X150680476Y-69244758D02*
X151299523Y-69244758D01*
X148051600Y-66863506D02*
X148051600Y-67101601D01*
X147813505Y-67006363D02*
X148051600Y-67101601D01*
X148051600Y-67101601D02*
X148289695Y-67006363D01*
X147908743Y-67292077D02*
X148051600Y-67101601D01*
X148051600Y-67101601D02*
X148194457Y-67292077D01*
X148051600Y-66863506D02*
X148051600Y-67101601D01*
X147813505Y-67006363D02*
X148051600Y-67101601D01*
X148051600Y-67101601D02*
X148289695Y-67006363D01*
X147908743Y-67292077D02*
X148051600Y-67101601D01*
X148051600Y-67101601D02*
X148194457Y-67292077D01*
X142231905Y-77634819D02*
X142231905Y-76634819D01*
X142231905Y-76634819D02*
X142470000Y-76634819D01*
X142470000Y-76634819D02*
X142612857Y-76682438D01*
X142612857Y-76682438D02*
X142708095Y-76777676D01*
X142708095Y-76777676D02*
X142755714Y-76872914D01*
X142755714Y-76872914D02*
X142803333Y-77063390D01*
X142803333Y-77063390D02*
X142803333Y-77206247D01*
X142803333Y-77206247D02*
X142755714Y-77396723D01*
X142755714Y-77396723D02*
X142708095Y-77491961D01*
X142708095Y-77491961D02*
X142612857Y-77587200D01*
X142612857Y-77587200D02*
X142470000Y-77634819D01*
X142470000Y-77634819D02*
X142231905Y-77634819D01*
X143660476Y-76968152D02*
X143660476Y-77634819D01*
X143422381Y-76587200D02*
X143184286Y-77301485D01*
X143184286Y-77301485D02*
X143803333Y-77301485D01*
X134073333Y-108594819D02*
X133740000Y-108118628D01*
X133501905Y-108594819D02*
X133501905Y-107594819D01*
X133501905Y-107594819D02*
X133882857Y-107594819D01*
X133882857Y-107594819D02*
X133978095Y-107642438D01*
X133978095Y-107642438D02*
X134025714Y-107690057D01*
X134025714Y-107690057D02*
X134073333Y-107785295D01*
X134073333Y-107785295D02*
X134073333Y-107928152D01*
X134073333Y-107928152D02*
X134025714Y-108023390D01*
X134025714Y-108023390D02*
X133978095Y-108071009D01*
X133978095Y-108071009D02*
X133882857Y-108118628D01*
X133882857Y-108118628D02*
X133501905Y-108118628D01*
X134978095Y-107594819D02*
X134501905Y-107594819D01*
X134501905Y-107594819D02*
X134454286Y-108071009D01*
X134454286Y-108071009D02*
X134501905Y-108023390D01*
X134501905Y-108023390D02*
X134597143Y-107975771D01*
X134597143Y-107975771D02*
X134835238Y-107975771D01*
X134835238Y-107975771D02*
X134930476Y-108023390D01*
X134930476Y-108023390D02*
X134978095Y-108071009D01*
X134978095Y-108071009D02*
X135025714Y-108166247D01*
X135025714Y-108166247D02*
X135025714Y-108404342D01*
X135025714Y-108404342D02*
X134978095Y-108499580D01*
X134978095Y-108499580D02*
X134930476Y-108547200D01*
X134930476Y-108547200D02*
X134835238Y-108594819D01*
X134835238Y-108594819D02*
X134597143Y-108594819D01*
X134597143Y-108594819D02*
X134501905Y-108547200D01*
X134501905Y-108547200D02*
X134454286Y-108499580D01*
X164905714Y-98809104D02*
X165381904Y-98809104D01*
X164810476Y-99094819D02*
X165143809Y-98094819D01*
X165143809Y-98094819D02*
X165477142Y-99094819D01*
X166334285Y-99094819D02*
X165762857Y-99094819D01*
X166048571Y-99094819D02*
X166048571Y-98094819D01*
X166048571Y-98094819D02*
X165953333Y-98237676D01*
X165953333Y-98237676D02*
X165858095Y-98332914D01*
X165858095Y-98332914D02*
X165762857Y-98380533D01*
X171789819Y-94818094D02*
X170789819Y-94818094D01*
X170789819Y-94818094D02*
X170789819Y-94579999D01*
X170789819Y-94579999D02*
X170837438Y-94437142D01*
X170837438Y-94437142D02*
X170932676Y-94341904D01*
X170932676Y-94341904D02*
X171027914Y-94294285D01*
X171027914Y-94294285D02*
X171218390Y-94246666D01*
X171218390Y-94246666D02*
X171361247Y-94246666D01*
X171361247Y-94246666D02*
X171551723Y-94294285D01*
X171551723Y-94294285D02*
X171646961Y-94341904D01*
X171646961Y-94341904D02*
X171742200Y-94437142D01*
X171742200Y-94437142D02*
X171789819Y-94579999D01*
X171789819Y-94579999D02*
X171789819Y-94818094D01*
X170789819Y-93627618D02*
X170789819Y-93532380D01*
X170789819Y-93532380D02*
X170837438Y-93437142D01*
X170837438Y-93437142D02*
X170885057Y-93389523D01*
X170885057Y-93389523D02*
X170980295Y-93341904D01*
X170980295Y-93341904D02*
X171170771Y-93294285D01*
X171170771Y-93294285D02*
X171408866Y-93294285D01*
X171408866Y-93294285D02*
X171599342Y-93341904D01*
X171599342Y-93341904D02*
X171694580Y-93389523D01*
X171694580Y-93389523D02*
X171742200Y-93437142D01*
X171742200Y-93437142D02*
X171789819Y-93532380D01*
X171789819Y-93532380D02*
X171789819Y-93627618D01*
X171789819Y-93627618D02*
X171742200Y-93722856D01*
X171742200Y-93722856D02*
X171694580Y-93770475D01*
X171694580Y-93770475D02*
X171599342Y-93818094D01*
X171599342Y-93818094D02*
X171408866Y-93865713D01*
X171408866Y-93865713D02*
X171170771Y-93865713D01*
X171170771Y-93865713D02*
X170980295Y-93818094D01*
X170980295Y-93818094D02*
X170885057Y-93770475D01*
X170885057Y-93770475D02*
X170837438Y-93722856D01*
X170837438Y-93722856D02*
X170789819Y-93627618D01*
X149771905Y-77634819D02*
X149771905Y-76634819D01*
X149771905Y-76634819D02*
X150010000Y-76634819D01*
X150010000Y-76634819D02*
X150152857Y-76682438D01*
X150152857Y-76682438D02*
X150248095Y-76777676D01*
X150248095Y-76777676D02*
X150295714Y-76872914D01*
X150295714Y-76872914D02*
X150343333Y-77063390D01*
X150343333Y-77063390D02*
X150343333Y-77206247D01*
X150343333Y-77206247D02*
X150295714Y-77396723D01*
X150295714Y-77396723D02*
X150248095Y-77491961D01*
X150248095Y-77491961D02*
X150152857Y-77587200D01*
X150152857Y-77587200D02*
X150010000Y-77634819D01*
X150010000Y-77634819D02*
X149771905Y-77634819D01*
X151200476Y-76634819D02*
X151010000Y-76634819D01*
X151010000Y-76634819D02*
X150914762Y-76682438D01*
X150914762Y-76682438D02*
X150867143Y-76730057D01*
X150867143Y-76730057D02*
X150771905Y-76872914D01*
X150771905Y-76872914D02*
X150724286Y-77063390D01*
X150724286Y-77063390D02*
X150724286Y-77444342D01*
X150724286Y-77444342D02*
X150771905Y-77539580D01*
X150771905Y-77539580D02*
X150819524Y-77587200D01*
X150819524Y-77587200D02*
X150914762Y-77634819D01*
X150914762Y-77634819D02*
X151105238Y-77634819D01*
X151105238Y-77634819D02*
X151200476Y-77587200D01*
X151200476Y-77587200D02*
X151248095Y-77539580D01*
X151248095Y-77539580D02*
X151295714Y-77444342D01*
X151295714Y-77444342D02*
X151295714Y-77206247D01*
X151295714Y-77206247D02*
X151248095Y-77111009D01*
X151248095Y-77111009D02*
X151200476Y-77063390D01*
X151200476Y-77063390D02*
X151105238Y-77015771D01*
X151105238Y-77015771D02*
X150914762Y-77015771D01*
X150914762Y-77015771D02*
X150819524Y-77063390D01*
X150819524Y-77063390D02*
X150771905Y-77111009D01*
X150771905Y-77111009D02*
X150724286Y-77206247D01*
X180906666Y-104204819D02*
X180906666Y-104919104D01*
X180906666Y-104919104D02*
X180859047Y-105061961D01*
X180859047Y-105061961D02*
X180763809Y-105157200D01*
X180763809Y-105157200D02*
X180620952Y-105204819D01*
X180620952Y-105204819D02*
X180525714Y-105204819D01*
X181906666Y-105204819D02*
X181335238Y-105204819D01*
X181620952Y-105204819D02*
X181620952Y-104204819D01*
X181620952Y-104204819D02*
X181525714Y-104347676D01*
X181525714Y-104347676D02*
X181430476Y-104442914D01*
X181430476Y-104442914D02*
X181335238Y-104490533D01*
X134073333Y-112594819D02*
X133740000Y-112118628D01*
X133501905Y-112594819D02*
X133501905Y-111594819D01*
X133501905Y-111594819D02*
X133882857Y-111594819D01*
X133882857Y-111594819D02*
X133978095Y-111642438D01*
X133978095Y-111642438D02*
X134025714Y-111690057D01*
X134025714Y-111690057D02*
X134073333Y-111785295D01*
X134073333Y-111785295D02*
X134073333Y-111928152D01*
X134073333Y-111928152D02*
X134025714Y-112023390D01*
X134025714Y-112023390D02*
X133978095Y-112071009D01*
X133978095Y-112071009D02*
X133882857Y-112118628D01*
X133882857Y-112118628D02*
X133501905Y-112118628D01*
X134930476Y-111594819D02*
X134740000Y-111594819D01*
X134740000Y-111594819D02*
X134644762Y-111642438D01*
X134644762Y-111642438D02*
X134597143Y-111690057D01*
X134597143Y-111690057D02*
X134501905Y-111832914D01*
X134501905Y-111832914D02*
X134454286Y-112023390D01*
X134454286Y-112023390D02*
X134454286Y-112404342D01*
X134454286Y-112404342D02*
X134501905Y-112499580D01*
X134501905Y-112499580D02*
X134549524Y-112547200D01*
X134549524Y-112547200D02*
X134644762Y-112594819D01*
X134644762Y-112594819D02*
X134835238Y-112594819D01*
X134835238Y-112594819D02*
X134930476Y-112547200D01*
X134930476Y-112547200D02*
X134978095Y-112499580D01*
X134978095Y-112499580D02*
X135025714Y-112404342D01*
X135025714Y-112404342D02*
X135025714Y-112166247D01*
X135025714Y-112166247D02*
X134978095Y-112071009D01*
X134978095Y-112071009D02*
X134930476Y-112023390D01*
X134930476Y-112023390D02*
X134835238Y-111975771D01*
X134835238Y-111975771D02*
X134644762Y-111975771D01*
X134644762Y-111975771D02*
X134549524Y-112023390D01*
X134549524Y-112023390D02*
X134501905Y-112071009D01*
X134501905Y-112071009D02*
X134454286Y-112166247D01*
X134073333Y-100594819D02*
X133740000Y-100118628D01*
X133501905Y-100594819D02*
X133501905Y-99594819D01*
X133501905Y-99594819D02*
X133882857Y-99594819D01*
X133882857Y-99594819D02*
X133978095Y-99642438D01*
X133978095Y-99642438D02*
X134025714Y-99690057D01*
X134025714Y-99690057D02*
X134073333Y-99785295D01*
X134073333Y-99785295D02*
X134073333Y-99928152D01*
X134073333Y-99928152D02*
X134025714Y-100023390D01*
X134025714Y-100023390D02*
X133978095Y-100071009D01*
X133978095Y-100071009D02*
X133882857Y-100118628D01*
X133882857Y-100118628D02*
X133501905Y-100118628D01*
X134406667Y-99594819D02*
X135025714Y-99594819D01*
X135025714Y-99594819D02*
X134692381Y-99975771D01*
X134692381Y-99975771D02*
X134835238Y-99975771D01*
X134835238Y-99975771D02*
X134930476Y-100023390D01*
X134930476Y-100023390D02*
X134978095Y-100071009D01*
X134978095Y-100071009D02*
X135025714Y-100166247D01*
X135025714Y-100166247D02*
X135025714Y-100404342D01*
X135025714Y-100404342D02*
X134978095Y-100499580D01*
X134978095Y-100499580D02*
X134930476Y-100547200D01*
X134930476Y-100547200D02*
X134835238Y-100594819D01*
X134835238Y-100594819D02*
X134549524Y-100594819D01*
X134549524Y-100594819D02*
X134454286Y-100547200D01*
X134454286Y-100547200D02*
X134406667Y-100499580D01*
D12*
%TO.C,J4*%
X175910000Y-79490000D02*
X175910000Y-66730000D01*
X178570000Y-66730000D02*
X175910000Y-66730000D01*
X178570000Y-79490000D02*
X175910000Y-79490000D01*
X178570000Y-79490000D02*
X178570000Y-66730000D01*
X178570000Y-80760000D02*
X178570000Y-82090000D01*
X178570000Y-82090000D02*
X177240000Y-82090000D01*
D13*
%TO.C,U1*%
X143411000Y-89634000D02*
X143411000Y-90939560D01*
X143411000Y-92900440D02*
X143411000Y-93556617D01*
X143411000Y-95363383D02*
X143411000Y-96096617D01*
X143411000Y-97903383D02*
X143411000Y-98636617D01*
X143411000Y-100443383D02*
X143411000Y-101176617D01*
X143411000Y-102983383D02*
X143411000Y-103716617D01*
X143411000Y-105523383D02*
X143411000Y-106256617D01*
X143411000Y-108063383D02*
X143411000Y-109446000D01*
X143411000Y-109446000D02*
X150269000Y-109446000D01*
X150269000Y-89634000D02*
X143411000Y-89634000D01*
X150269000Y-91016617D02*
X150269000Y-89634000D01*
X150269000Y-93556617D02*
X150269000Y-92823383D01*
X150269000Y-96096617D02*
X150269000Y-95363383D01*
X150269000Y-98636617D02*
X150269000Y-97903383D01*
X150269000Y-101176617D02*
X150269000Y-100443383D01*
X150269000Y-103716617D02*
X150269000Y-102983383D01*
X150269000Y-106256617D02*
X150269000Y-105523383D01*
X150269000Y-109446000D02*
X150269000Y-108063383D01*
D12*
%TO.C,SW2*%
X138740000Y-116890000D02*
X138740000Y-118390000D01*
X139990000Y-120890000D02*
X144490000Y-120890000D01*
X144490000Y-114390000D02*
X139990000Y-114390000D01*
X145740000Y-118390000D02*
X145740000Y-116890000D01*
%TO.C,J5*%
X179910000Y-66730000D02*
X181240000Y-66730000D01*
X179910000Y-68060000D02*
X179910000Y-66730000D01*
X179910000Y-69330000D02*
X179910000Y-89710000D01*
X179910000Y-69330000D02*
X182570000Y-69330000D01*
X179910000Y-89710000D02*
X182570000Y-89710000D01*
X182570000Y-69330000D02*
X182570000Y-89710000D01*
%TO.C,R1*%
X130200000Y-90140000D02*
X130970000Y-90140000D01*
X130970000Y-88770000D02*
X130970000Y-91510000D01*
X130970000Y-91510000D02*
X137510000Y-91510000D01*
X137510000Y-88770000D02*
X130970000Y-88770000D01*
X137510000Y-91510000D02*
X137510000Y-88770000D01*
X138280000Y-90140000D02*
X137510000Y-90140000D01*
%TO.C,R2*%
X130200000Y-94140000D02*
X130970000Y-94140000D01*
X130970000Y-92770000D02*
X130970000Y-95510000D01*
X130970000Y-95510000D02*
X137510000Y-95510000D01*
X137510000Y-92770000D02*
X130970000Y-92770000D01*
X137510000Y-95510000D02*
X137510000Y-92770000D01*
X138280000Y-94140000D02*
X137510000Y-94140000D01*
%TO.C,C2*%
X151720000Y-72364888D02*
X151720000Y-76404888D01*
X152345000Y-72364888D02*
X151720000Y-72364888D01*
X152345000Y-76404888D02*
X151720000Y-76404888D01*
X154560000Y-72364888D02*
X153935000Y-72364888D01*
X154560000Y-72364888D02*
X154560000Y-76404888D01*
X154560000Y-76404888D02*
X153935000Y-76404888D01*
%TO.C,D3*%
X128520000Y-69320000D02*
X128520000Y-73560000D01*
X128520000Y-73560000D02*
X130760000Y-73560000D01*
X129640000Y-68670000D02*
X129640000Y-69320000D01*
X129640000Y-74210000D02*
X129640000Y-73560000D01*
X130760000Y-69320000D02*
X128520000Y-69320000D01*
X130760000Y-69920000D02*
X128520000Y-69920000D01*
X130760000Y-70040000D02*
X128520000Y-70040000D01*
X130760000Y-70160000D02*
X128520000Y-70160000D01*
X130760000Y-73560000D02*
X130760000Y-69320000D01*
%TO.C,M1*%
D11*
X155080000Y-122760000D02*
X175400000Y-122760000D01*
X175400000Y-107520000D01*
X155080000Y-107520000D01*
X155080000Y-122760000D01*
D12*
%TO.C,D1*%
X135620000Y-69320000D02*
X135620000Y-73560000D01*
X135620000Y-73560000D02*
X137860000Y-73560000D01*
X136740000Y-68670000D02*
X136740000Y-69320000D01*
X136740000Y-74210000D02*
X136740000Y-73560000D01*
X137860000Y-69320000D02*
X135620000Y-69320000D01*
X137860000Y-69920000D02*
X135620000Y-69920000D01*
X137860000Y-70040000D02*
X135620000Y-70040000D01*
X137860000Y-70160000D02*
X135620000Y-70160000D01*
X137860000Y-73560000D02*
X137860000Y-69320000D01*
%TO.C,R4*%
X130200000Y-102140000D02*
X130970000Y-102140000D01*
X130970000Y-100770000D02*
X130970000Y-103510000D01*
X130970000Y-103510000D02*
X137510000Y-103510000D01*
X137510000Y-100770000D02*
X130970000Y-100770000D01*
X137510000Y-103510000D02*
X137510000Y-100770000D01*
X138280000Y-102140000D02*
X137510000Y-102140000D01*
D13*
%TO.C,J2 Serial*%
X139107600Y-56191900D02*
X139107600Y-57215170D01*
X139107600Y-60207030D02*
X139107600Y-61367572D01*
X139982832Y-63888101D02*
X142497685Y-63888101D01*
X140079836Y-56191900D02*
X139107600Y-56191900D01*
X146182315Y-63888101D02*
X148697168Y-63888101D01*
X149572400Y-56191900D02*
X148600164Y-56191900D01*
X149572400Y-57215170D02*
X149572400Y-56191900D01*
X149572400Y-61367572D02*
X149572400Y-60207030D01*
D12*
%TO.C,D2*%
X132070000Y-69320000D02*
X132070000Y-73560000D01*
X132070000Y-73560000D02*
X134310000Y-73560000D01*
X133190000Y-68670000D02*
X133190000Y-69320000D01*
X133190000Y-74210000D02*
X133190000Y-73560000D01*
X134310000Y-69320000D02*
X132070000Y-69320000D01*
X134310000Y-69920000D02*
X132070000Y-69920000D01*
X134310000Y-70040000D02*
X132070000Y-70040000D01*
X134310000Y-70160000D02*
X132070000Y-70160000D01*
X134310000Y-73560000D02*
X134310000Y-69320000D01*
%TO.C,D5*%
X133410000Y-79595000D02*
X133410000Y-82685000D01*
X133410000Y-79595170D02*
G75*
G02*
X138960000Y-81140462I2560000J-1544830D01*
G01*
X138960000Y-81139538D02*
G75*
G02*
X133410000Y-82684830I-2990000J-462D01*
G01*
X138470000Y-81140000D02*
G75*
G02*
X133470000Y-81140000I-2500000J0D01*
G01*
X133470000Y-81140000D02*
G75*
G02*
X138470000Y-81140000I2500000J0D01*
G01*
D13*
%TO.C,J3 Power*%
X160407600Y-56191900D02*
X160407600Y-57215170D01*
X160407600Y-60207030D02*
X160407600Y-61367572D01*
X161282832Y-63888101D02*
X163797685Y-63888101D01*
X161379836Y-56191900D02*
X160407600Y-56191900D01*
X167482315Y-63888101D02*
X169997168Y-63888101D01*
X170872400Y-56191900D02*
X169900164Y-56191900D01*
X170872400Y-57215170D02*
X170872400Y-56191900D01*
X170872400Y-61367572D02*
X170872400Y-60207030D01*
D12*
%TO.C,C1*%
X146100000Y-74624888D02*
X144571000Y-74624888D01*
X146100000Y-74664888D02*
X144575000Y-74664888D01*
X146100000Y-74704888D02*
X144579000Y-74704888D01*
X146100000Y-74744888D02*
X144584000Y-74744888D01*
X146100000Y-74784888D02*
X144590000Y-74784888D01*
X146100000Y-74824888D02*
X144597000Y-74824888D01*
X146100000Y-74864888D02*
X144604000Y-74864888D01*
X146100000Y-74904888D02*
X144612000Y-74904888D01*
X146100000Y-74944888D02*
X144620000Y-74944888D01*
X146100000Y-74984888D02*
X144629000Y-74984888D01*
X146100000Y-75024888D02*
X144639000Y-75024888D01*
X146100000Y-75064888D02*
X144649000Y-75064888D01*
X146100000Y-75105888D02*
X144660000Y-75105888D01*
X146100000Y-75145888D02*
X144672000Y-75145888D01*
X146100000Y-75185888D02*
X144685000Y-75185888D01*
X146100000Y-75225888D02*
X144698000Y-75225888D01*
X146100000Y-75265888D02*
X144712000Y-75265888D01*
X146100000Y-75305888D02*
X144726000Y-75305888D01*
X146100000Y-75345888D02*
X144742000Y-75345888D01*
X146100000Y-75385888D02*
X144758000Y-75385888D01*
X146100000Y-75425888D02*
X144775000Y-75425888D01*
X146100000Y-75465888D02*
X144792000Y-75465888D01*
X146100000Y-75505888D02*
X144811000Y-75505888D01*
X146100000Y-75545888D02*
X144830000Y-75545888D01*
X146100000Y-75585888D02*
X144850000Y-75585888D01*
X146100000Y-75625888D02*
X144872000Y-75625888D01*
X146100000Y-75665888D02*
X144893000Y-75665888D01*
X146100000Y-75705888D02*
X144916000Y-75705888D01*
X146100000Y-75745888D02*
X144940000Y-75745888D01*
X146100000Y-75785888D02*
X144965000Y-75785888D01*
X146100000Y-75825888D02*
X144991000Y-75825888D01*
X146100000Y-75865888D02*
X145018000Y-75865888D01*
X146100000Y-75905888D02*
X145045000Y-75905888D01*
X146100000Y-75945888D02*
X145075000Y-75945888D01*
X146100000Y-75985888D02*
X145105000Y-75985888D01*
X146100000Y-76025888D02*
X145136000Y-76025888D01*
X146100000Y-76065888D02*
X145169000Y-76065888D01*
X146100000Y-76105888D02*
X145203000Y-76105888D01*
X146100000Y-76145888D02*
X145239000Y-76145888D01*
X146100000Y-76185888D02*
X145276000Y-76185888D01*
X146100000Y-76225888D02*
X145314000Y-76225888D01*
X146100000Y-76265888D02*
X145355000Y-76265888D01*
X146100000Y-76305888D02*
X145397000Y-76305888D01*
X146100000Y-76345888D02*
X145441000Y-76345888D01*
X146100000Y-76385888D02*
X145487000Y-76385888D01*
X146100000Y-76425888D02*
X145535000Y-76425888D01*
X146100000Y-76465888D02*
X145586000Y-76465888D01*
X146100000Y-76505888D02*
X145640000Y-76505888D01*
X146100000Y-76545888D02*
X145697000Y-76545888D01*
X146100000Y-76585888D02*
X145757000Y-76585888D01*
X146100000Y-76625888D02*
X145821000Y-76625888D01*
X146100000Y-76665888D02*
X145889000Y-76665888D01*
X147424000Y-76985888D02*
X146856000Y-76985888D01*
X147658000Y-76945888D02*
X146622000Y-76945888D01*
X147817000Y-76905888D02*
X146463000Y-76905888D01*
X147945000Y-76865888D02*
X146335000Y-76865888D01*
X148055000Y-76825888D02*
X146225000Y-76825888D01*
X148151000Y-76785888D02*
X146129000Y-76785888D01*
X148238000Y-76745888D02*
X146042000Y-76745888D01*
X148318000Y-76705888D02*
X145962000Y-76705888D01*
X148391000Y-76665888D02*
X148180000Y-76665888D01*
X148459000Y-76625888D02*
X148180000Y-76625888D01*
X148523000Y-76585888D02*
X148180000Y-76585888D01*
X148583000Y-76545888D02*
X148180000Y-76545888D01*
X148615000Y-71580113D02*
X148615000Y-72080113D01*
X148640000Y-76505888D02*
X148180000Y-76505888D01*
X148694000Y-76465888D02*
X148180000Y-76465888D01*
X148745000Y-76425888D02*
X148180000Y-76425888D01*
X148793000Y-76385888D02*
X148180000Y-76385888D01*
X148839000Y-76345888D02*
X148180000Y-76345888D01*
X148865000Y-71830113D02*
X148365000Y-71830113D01*
X148883000Y-76305888D02*
X148180000Y-76305888D01*
X148925000Y-76265888D02*
X148180000Y-76265888D01*
X148966000Y-76225888D02*
X148180000Y-76225888D01*
X149004000Y-76185888D02*
X148180000Y-76185888D01*
X149041000Y-76145888D02*
X148180000Y-76145888D01*
X149077000Y-76105888D02*
X148180000Y-76105888D01*
X149111000Y-76065888D02*
X148180000Y-76065888D01*
X149144000Y-76025888D02*
X148180000Y-76025888D01*
X149175000Y-75985888D02*
X148180000Y-75985888D01*
X149205000Y-75945888D02*
X148180000Y-75945888D01*
X149235000Y-75905888D02*
X148180000Y-75905888D01*
X149262000Y-75865888D02*
X148180000Y-75865888D01*
X149289000Y-75825888D02*
X148180000Y-75825888D01*
X149315000Y-75785888D02*
X148180000Y-75785888D01*
X149340000Y-75745888D02*
X148180000Y-75745888D01*
X149364000Y-75705888D02*
X148180000Y-75705888D01*
X149387000Y-75665888D02*
X148180000Y-75665888D01*
X149408000Y-75625888D02*
X148180000Y-75625888D01*
X149430000Y-75585888D02*
X148180000Y-75585888D01*
X149450000Y-75545888D02*
X148180000Y-75545888D01*
X149469000Y-75505888D02*
X148180000Y-75505888D01*
X149488000Y-75465888D02*
X148180000Y-75465888D01*
X149505000Y-75425888D02*
X148180000Y-75425888D01*
X149522000Y-75385888D02*
X148180000Y-75385888D01*
X149538000Y-75345888D02*
X148180000Y-75345888D01*
X149554000Y-75305888D02*
X148180000Y-75305888D01*
X149568000Y-75265888D02*
X148180000Y-75265888D01*
X149582000Y-75225888D02*
X148180000Y-75225888D01*
X149595000Y-75185888D02*
X148180000Y-75185888D01*
X149608000Y-75145888D02*
X148180000Y-75145888D01*
X149620000Y-75105888D02*
X148180000Y-75105888D01*
X149631000Y-75064888D02*
X148180000Y-75064888D01*
X149641000Y-75024888D02*
X148180000Y-75024888D01*
X149651000Y-74984888D02*
X148180000Y-74984888D01*
X149660000Y-74944888D02*
X148180000Y-74944888D01*
X149668000Y-74904888D02*
X148180000Y-74904888D01*
X149676000Y-74864888D02*
X148180000Y-74864888D01*
X149683000Y-74824888D02*
X148180000Y-74824888D01*
X149690000Y-74784888D02*
X148180000Y-74784888D01*
X149696000Y-74744888D02*
X148180000Y-74744888D01*
X149701000Y-74704888D02*
X148180000Y-74704888D01*
X149705000Y-74664888D02*
X148180000Y-74664888D01*
X149709000Y-74624888D02*
X148180000Y-74624888D01*
X149713000Y-74584888D02*
X144567000Y-74584888D01*
X149716000Y-74544888D02*
X144564000Y-74544888D01*
X149718000Y-74504888D02*
X144562000Y-74504888D01*
X149719000Y-74464888D02*
X144561000Y-74464888D01*
X149720000Y-74384888D02*
X144560000Y-74384888D01*
X149720000Y-74424888D02*
X144560000Y-74424888D01*
X149760000Y-74384888D02*
G75*
G02*
X144520000Y-74384888I-2620000J0D01*
G01*
X144520000Y-74384888D02*
G75*
G02*
X149760000Y-74384888I2620000J0D01*
G01*
D14*
%TO.C,U2*%
G36*
X152801400Y-69230502D02*
G01*
X152547400Y-69230502D01*
X152547400Y-68849502D01*
X152801400Y-68849502D01*
X152801400Y-69230502D01*
G37*
D12*
%TO.C,D4*%
X140410000Y-79595000D02*
X140410000Y-82685000D01*
X140410000Y-79595170D02*
G75*
G02*
X145960000Y-81140462I2560000J-1544830D01*
G01*
X145960000Y-81139538D02*
G75*
G02*
X140410000Y-82684830I-2990000J-462D01*
G01*
X145470000Y-81140000D02*
G75*
G02*
X140470000Y-81140000I-2500000J0D01*
G01*
X140470000Y-81140000D02*
G75*
G02*
X145470000Y-81140000I2500000J0D01*
G01*
%TO.C,R5*%
X130200000Y-106140000D02*
X130970000Y-106140000D01*
X130970000Y-104770000D02*
X130970000Y-107510000D01*
X130970000Y-107510000D02*
X137510000Y-107510000D01*
X137510000Y-104770000D02*
X130970000Y-104770000D01*
X137510000Y-107510000D02*
X137510000Y-104770000D01*
X138280000Y-106140000D02*
X137510000Y-106140000D01*
D10*
%TO.C,A1*%
X156730000Y-100430000D02*
X156730000Y-57250000D01*
X174510000Y-57250000D02*
X156730000Y-57250000D01*
X174510000Y-100430000D02*
X156730000Y-100430000D01*
X174510000Y-100430000D02*
X174510000Y-57250000D01*
D12*
%TO.C,D6*%
X147950000Y-79595000D02*
X147950000Y-82685000D01*
X147950000Y-79595170D02*
G75*
G02*
X153500000Y-81140462I2560000J-1544830D01*
G01*
X153500000Y-81139538D02*
G75*
G02*
X147950000Y-82684830I-2990000J-462D01*
G01*
X153010000Y-81140000D02*
G75*
G02*
X148010000Y-81140000I-2500000J0D01*
G01*
X148010000Y-81140000D02*
G75*
G02*
X153010000Y-81140000I2500000J0D01*
G01*
%TO.C,J1*%
X179910000Y-95870000D02*
X179910000Y-103550000D01*
X179910000Y-95870000D02*
X182570000Y-95870000D01*
X179910000Y-103550000D02*
X182570000Y-103550000D01*
X181240000Y-93270000D02*
X182570000Y-93270000D01*
X182570000Y-93270000D02*
X182570000Y-94600000D01*
X182570000Y-95870000D02*
X182570000Y-103550000D01*
%TO.C,R6*%
X130200000Y-110140000D02*
X130970000Y-110140000D01*
X130970000Y-108770000D02*
X130970000Y-111510000D01*
X130970000Y-111510000D02*
X137510000Y-111510000D01*
X137510000Y-108770000D02*
X130970000Y-108770000D01*
X137510000Y-111510000D02*
X137510000Y-108770000D01*
X138280000Y-110140000D02*
X137510000Y-110140000D01*
%TO.C,R3*%
X130200000Y-98140000D02*
X130970000Y-98140000D01*
X130970000Y-96770000D02*
X130970000Y-99510000D01*
X130970000Y-99510000D02*
X137510000Y-99510000D01*
X137510000Y-96770000D02*
X130970000Y-96770000D01*
X137510000Y-99510000D02*
X137510000Y-96770000D01*
X138280000Y-98140000D02*
X137510000Y-98140000D01*
%TD*%
M02*
