M48
; DRILL file {KiCad 9.0.1-9.0.1-0~ubuntu24.04.1} date 2025-04-06T11:40:14+0100
; FORMAT={-:-/ absolute / metric / decimal}
; #@! TF.CreationDate,2025-04-06T11:40:14+01:00
; #@! TF.GenerationSoftware,Kicad,Pcbnew,9.0.1-9.0.1-0~ubuntu24.04.1
; #@! TF.FileFunction,Plated,1,2,PTH
FMAT,2
METRIC
; #@! TA.AperFunction,Plated,PTH,ViaDrill
T1C0.300
; #@! TA.AperFunction,Plated,PTH,ComponentDrill
T2C0.600
; #@! TA.AperFunction,Plated,PTH,ComponentDrill
T3C0.787
; #@! TA.AperFunction,Plated,PTH,ComponentDrill
T4C0.800
; #@! TA.AperFunction,Plated,PTH,ComponentDrill
T5C0.900
; #@! TA.AperFunction,Plated,PTH,ComponentDrill
T6C1.000
; #@! TA.AperFunction,Plated,PTH,ComponentDrill
T7C1.016
; #@! TA.AperFunction,Plated,PTH,ComponentDrill
T8C1.100
%
G90
G05
T1
X133.24Y-92.14
X134.24Y-102.14
X141.24Y-75.14
X141.49Y-77.64
X142.24Y-117.14
X143.24Y-76.14
X144.24Y-67.14
X144.24Y-77.14
X145.24Y-96.14
X145.64Y-66.14
X146.24Y-71.14
X146.24Y-85.14
X146.24Y-97.14
X147.74Y-70.39
X148.24Y-66.14
X148.24Y-112.14
X149.24Y-66.14
X149.24Y-97.14
X150.24Y-72.14
X152.24Y-60.14
X152.24Y-64.14
X153.24Y-64.14
X154.24Y-100.14
X155.24Y-101.14
X156.24Y-85.14
X160.74Y-96.64
X162.24Y-94.64
X162.24Y-97.64
X163.24Y-104.14
X165.74Y-85.14
X167.34Y-74.94
X168.24Y-66.14
X178.54Y-100.14
X179.24Y-68.14
X179.24Y-70.64
X179.24Y-73.64
X179.24Y-75.64
X179.24Y-78.64
X179.24Y-83.54
T3
X143.03Y-91.92
X143.03Y-94.46
X143.03Y-97.0
X143.03Y-99.54
X143.03Y-102.08
X143.03Y-104.62
X143.03Y-107.16
X150.65Y-91.92
X150.65Y-94.46
X150.65Y-97.0
X150.65Y-99.54
X150.65Y-102.08
X150.65Y-104.62
X150.65Y-107.16
T4
X129.16Y-90.14
X129.16Y-94.14
X129.16Y-98.14
X129.16Y-102.14
X129.16Y-106.14
X129.16Y-110.14
X129.64Y-67.63
X129.64Y-75.25
X133.19Y-67.63
X133.19Y-75.25
X136.74Y-67.63
X136.74Y-75.25
X139.32Y-90.14
X139.32Y-94.14
X139.32Y-98.14
X139.32Y-102.14
X139.32Y-106.14
X139.32Y-110.14
X147.14Y-73.135
X147.14Y-75.635
X153.14Y-73.135
X153.14Y-75.635
T5
X134.7Y-81.14
X137.24Y-81.14
X141.7Y-81.14
X144.24Y-81.14
X149.24Y-81.14
X151.78Y-81.14
T6
X156.35Y-108.79
X156.35Y-121.49
X158.89Y-108.79
X158.89Y-121.49
X161.43Y-108.79
X161.43Y-121.49
X163.97Y-108.79
X163.97Y-121.49
X166.51Y-108.79
X166.51Y-121.49
X169.05Y-108.79
X169.05Y-121.49
X171.59Y-108.79
X171.59Y-121.49
X174.13Y-108.79
X174.13Y-121.49
X177.24Y-68.06
X177.24Y-70.6
X177.24Y-73.14
X177.24Y-75.68
X177.24Y-78.22
X177.24Y-80.76
X181.24Y-68.06
X181.24Y-70.6
X181.24Y-73.14
X181.24Y-75.68
X181.24Y-78.22
X181.24Y-80.76
X181.24Y-83.3
X181.24Y-85.84
X181.24Y-88.38
X181.24Y-94.6
X181.24Y-97.14
X181.24Y-99.68
X181.24Y-102.22
T7
X158.0Y-61.06
X158.0Y-63.6
X158.0Y-66.14
X158.0Y-68.68
X158.0Y-71.22
X158.0Y-73.76
X158.0Y-76.3
X158.0Y-78.84
X158.0Y-81.38
X158.0Y-83.92
X158.0Y-86.46
X158.0Y-89.0
X158.0Y-91.54
X158.0Y-94.08
X158.0Y-96.62
X173.24Y-61.06
X173.24Y-63.6
X173.24Y-66.14
X173.24Y-68.68
X173.24Y-71.22
X173.24Y-73.76
X173.24Y-76.3
X173.24Y-78.84
X173.24Y-81.38
X173.24Y-83.92
X173.24Y-86.46
X173.24Y-89.0
X173.24Y-91.54
X173.24Y-94.08
X173.24Y-96.62
T8
X138.99Y-115.39
X138.99Y-119.89
X145.49Y-115.39
X145.49Y-119.89
T2
G00X139.39Y-59.211
M15
G01X139.39Y-58.211
M16
G05
G00X139.39Y-63.211
M15
G01X139.39Y-62.211
M16
G05
G00X149.29Y-59.211
M15
G01X149.29Y-58.211
M16
G05
G00X149.29Y-63.211
M15
G01X149.29Y-62.211
M16
G05
G00X160.69Y-59.211
M15
G01X160.69Y-58.211
M16
G05
G00X160.69Y-63.211
M15
G01X160.69Y-62.211
M16
G05
G00X170.59Y-59.211
M15
G01X170.59Y-58.211
M16
G05
G00X170.59Y-63.211
M15
G01X170.59Y-62.211
M16
G05
M30
